<svg xmlns="http://www.w3.org/2000/svg" xmlns:xlink="http://www.w3.org/1999/xlink" width="570.001" height="397.112" viewBox="0 0 570.001 397.112">
  <defs>
    <linearGradient id="linear-gradient" x1="0.82" y1="0.205" x2="0.293" y2="0.736" gradientUnits="objectBoundingBox">
      <stop offset="0" stop-color="#f6b3b5"/>
      <stop offset="1" stop-color="#fad1d3"/>
    </linearGradient>
    <linearGradient id="linear-gradient-2" x1="0.366" y1="-0.117" x2="0.567" y2="0.831" xlink:href="#linear-gradient"/>
    <linearGradient id="linear-gradient-3" x1="0.78" y1="-0.114" x2="0.167" y2="1.33" xlink:href="#linear-gradient"/>
    <linearGradient id="linear-gradient-4" x1="-0.374" y1="0.5" x2="1.105" y2="0.5" xlink:href="#linear-gradient"/>
    <linearGradient id="linear-gradient-5" x1="0.493" y1="1.236" x2="0.514" y2="-0.278" gradientUnits="objectBoundingBox">
      <stop offset="0" stop-color="#001462"/>
      <stop offset="0.069" stop-color="#071e71"/>
      <stop offset="0.252" stop-color="#183594"/>
      <stop offset="0.437" stop-color="#2647b0"/>
      <stop offset="0.623" stop-color="#3054c4"/>
      <stop offset="0.81" stop-color="#365cd0"/>
      <stop offset="1" stop-color="#385fd4"/>
    </linearGradient>
    <linearGradient id="linear-gradient-6" x1="1.087" y1="0.417" x2="-0.153" y2="0.767" gradientUnits="objectBoundingBox">
      <stop offset="0" stop-color="#f6b3b5"/>
      <stop offset="0.991" stop-color="#fad1d3"/>
    </linearGradient>
    <linearGradient id="linear-gradient-7" x1="0.561" y1="0.433" x2="0.105" y2="0.79" xlink:href="#linear-gradient-6"/>
    <linearGradient id="linear-gradient-8" x1="1.154" y1="0.34" x2="-0.141" y2="0.687" xlink:href="#linear-gradient-6"/>
    <linearGradient id="linear-gradient-9" x1="0.567" y1="-0.104" x2="0.42" y2="0.968" xlink:href="#linear-gradient-6"/>
    <linearGradient id="linear-gradient-10" x1="-3.555" y1="6.748" x2="0.835" y2="-0.016" gradientUnits="objectBoundingBox">
      <stop offset="0" stop-color="#8cc6ff"/>
      <stop offset="1" stop-color="#f6b3b5"/>
    </linearGradient>
    <linearGradient id="linear-gradient-11" x1="0.5" y1="1.073" x2="0.5" y2="-0.165" xlink:href="#linear-gradient-6"/>
    <linearGradient id="linear-gradient-12" x1="0.6" y1="1.4" x2="0.415" y2="-0.007" xlink:href="#linear-gradient-6"/>
    <linearGradient id="linear-gradient-13" x1="-2.302" y1="0.233" x2="4.871" y2="0.924" gradientUnits="objectBoundingBox">
      <stop offset="0.105" stop-color="#001462"/>
      <stop offset="0.297" stop-color="#132e89"/>
      <stop offset="0.49" stop-color="#2343aa"/>
      <stop offset="0.675" stop-color="#2e52c1"/>
      <stop offset="0.849" stop-color="#355bcf"/>
      <stop offset="1" stop-color="#385fd4"/>
    </linearGradient>
    <linearGradient id="linear-gradient-14" x1="-2.16" y1="0.268" x2="5.982" y2="0.959" xlink:href="#linear-gradient-13"/>
    <linearGradient id="linear-gradient-15" x1="-0.999" y1="-0.736" x2="2.936" y2="2.477" xlink:href="#linear-gradient-13"/>
    <linearGradient id="linear-gradient-16" x1="0.414" y1="0.064" x2="0.577" y2="1.038" xlink:href="#linear-gradient"/>
    <linearGradient id="linear-gradient-17" x1="1.006" y1="-0.155" x2="-0.018" y2="0.867" xlink:href="#linear-gradient"/>
    <linearGradient id="linear-gradient-18" x1="0.5" y1="0.963" x2="0.5" y2="0.053" xlink:href="#linear-gradient"/>
    <linearGradient id="linear-gradient-19" x1="-13.998" y1="0.933" x2="-13.92" y2="-0.689" gradientUnits="objectBoundingBox">
      <stop offset="0" stop-color="#001462"/>
      <stop offset="0.118" stop-color="#0e277f"/>
      <stop offset="0.267" stop-color="#1d3b9e"/>
      <stop offset="0.424" stop-color="#294bb5"/>
      <stop offset="0.591" stop-color="#3156c6"/>
      <stop offset="0.773" stop-color="#365cd0"/>
      <stop offset="1" stop-color="#385fd4"/>
    </linearGradient>
  </defs>
  <g id="_3" data-name="3" transform="translate(16542.002 2218)">
    <g id="Group_169701" data-name="Group 169701">
      <g id="Group_169692" data-name="Group 169692">
        <g id="Group_169351" data-name="Group 169351" transform="translate(-6199.001 -3793.441)">
          <path id="Path_80300" data-name="Path 80300" d="M678.293,317.954c-4.821,39.255-32.637,32.723-37.029,78.366-1.567,16.291,10.289,26.532,16.18,40.637,6.524,15.59,4.213,29.6-4.6,40.283H169.362c-10.688-4.906-20.887-10.126-29.764-16.394-12.221-8.612-21.893-19.228-26.825-33.782-4.452-13.151-7.882-25.838,3.813-35.813,6.349-5.423,12.958-9.608,18.7-14.635a45.448,45.448,0,0,0,11.033-13.655c21.076-41.21-5.96-77.527-15.889-118.763-.958-4.007-1.835-8.054-2.534-12.115-1.821-10.343-2.668-20.836-1.588-31.057a68.448,68.448,0,0,1,8.478-27.132c7.373-12.919,26.472-32,46.995-28.359,15.421,2.739,25.125,17.811,39.049,23.262,17.547,6.868,37.014,1.376,50.159-8.721,25.566-19.637,41.949-56.963,85.645-53.542,14.816,1.158,24.818,13.082,37.809,18.547,17.859,7.522,35.476,7.467,52.544.149,19.628-8.421,33.095-24.065,52.368-33.019a130.4,130.4,0,0,1,20.349-7.454c15.5-4.279,32.458-5.792,48.448-2.494a94.223,94.223,0,0,1,9.65,2.494c53.458,16.775,55.974,71.721,53.458,111.813-1.154,18.369-15.58,50.049-4.923,69.029S682.955,279.995,678.293,317.954Z" transform="translate(-10451.623 1494.97)" fill="rgba(252,79,25,0.99)" opacity="0.1"/>
        </g>
        <g id="Group_169687" data-name="Group 169687" transform="translate(-16663.92 -2291.836)">
          <g id="OBJECTS" transform="translate(146.174 202.182)">
            <g id="Group_169660" data-name="Group 169660">
              <g id="Group_169643" data-name="Group 169643">
                <g id="Group_169688" data-name="Group 169688">
                  <g id="Group_169641" data-name="Group 169641">
                    <g id="Group_169632" data-name="Group 169632" transform="translate(34.2 4)">
                      <g id="Group_169624" data-name="Group 169624" transform="translate(116.269 23.7)">
                        <path id="Path_85389" data-name="Path 85389" d="M254.779,400.413c2.6,10.976,6.419,23.3,10.384,34.923h65.766c1.481-4.779,2.956-9.913,4.355-15.363,8.081-31.468-.425-58.685-8.079-71.017s-14.246-27-2.571-44.99,12.777-31.981,12.777-31.981c-1.7-6.8-7.018-9.143-20.823-15.732,0,0-.824-.274-2.1-.708-2.924,11.876-9.094,21.319-20.025,23.244-14.243,2.509-27.1-6.178-33.6-21.43-6.27,1.852-13.253,3.824-16.579,5.7,0,0,17.435,37.847,20.76,59.249S246.83,366.817,254.779,400.413Z" transform="translate(-239.339 -194.712)" fill="#3e6193"/>
                        <g id="Group_169623" data-name="Group 169623" transform="translate(21.52 36.661)">
                          <path id="Path_85390" data-name="Path 85390" d="M288.346,287.7c10.93-1.925,17.1-11.368,20.025-23.244-4.575-1.548-15.332-5.242-18.323-6.737-3.827-1.914-2.764-17.435-2.764-17.435l-20.21,5.766v15.071c0,1.413-5.774,3.214-12.327,5.148C261.249,281.523,274.1,290.209,288.346,287.7Z" transform="translate(-254.746 -240.286)" fill="url(#linear-gradient)"/>
                          <path id="Path_85391" data-name="Path 85391" d="M282.737,240.444l-20.208,5.768v12.807A41.2,41.2,0,0,1,283.9,287.837c10.862-1.967,17.005-11.385,19.92-23.221-4.575-1.548-15.333-5.242-18.323-6.737C281.674,255.965,282.737,240.444,282.737,240.444Z" transform="translate(-250.2 -240.194)" fill="#cb9eae"/>
                        </g>
                        <path id="Path_85392" data-name="Path 85392" d="M303.722,300.3c-9.018,2.758-17.53,5.79-22.033,5.79-8.931,0-22.114-12.545-28.349-4.874s-7.16,12.743-2.28,16.144,20.422-1.275,27.864.212c3.32.665,14.65,1.242,26.684,1.057C306.633,313.839,306.484,305.1,303.722,300.3Z" transform="translate(-237.199 -169.489)" fill="url(#linear-gradient-2)"/>
                        <path id="Path_85393" data-name="Path 85393" d="M309.105,266.8c-2.1-8.385-19.35,7.018-15.1,21.05,3.647,12.034,2.321,28.2,2.321,28.2l16.891,17.088C318.961,326.123,310.807,273.6,309.105,266.8Z" transform="translate(-210.685 -189.527)" fill="#3e6193"/>
                        <path id="Path_85394" data-name="Path 85394" d="M307.9,297.142c-6.531-.955-15.884,1.492-24.744,4.2,2.763,4.8,2.912,13.544,1.887,18.328,14.93-.23,30.949-1.636,34.126-5.521C319.168,314.152,326.822,299.9,307.9,297.142Z" transform="translate(-216.632 -170.538)" fill="#3e6193"/>
                        <path id="Path_85395" data-name="Path 85395" d="M260.337,226.852c-3.547,6.9-3.152,30.351,6.7,32.52,8.608,1.893,13.4-6.5,13.4-6.5V237.312a11.376,11.376,0,0,1-5.519-8.489c-.531-4.767-3.35-5.272-3.35-5.272S265.658,227.05,260.337,226.852Z" transform="translate(-231.152 -213.4)" fill="url(#linear-gradient-3)"/>
                        <path id="Path_85396" data-name="Path 85396" d="M255.022,319.962c-4.448-8.958-7.4-20.251-10.01-26.626-4.915-12.027-5.715-28.8,1.09-32.623,12.545-6.425,17.861,15.667,18.71,22.079s2.552,21.4,7.23,26.768Z" transform="translate(-241.161 -192.37)" fill="#3e6193"/>
                        <path id="Path_85397" data-name="Path 85397" d="M301.14,267.171c-8.5-5.315.974-34.63-13.286-45.909-11.741-9.286-30.469-2.3-30.469,15.234v42.033c4.643-1.451,8.149-2.786,8.149-3.887V262.295c-7.827-4.982-7.989-25.236-4.665-31.7,5.321.2,11.234-3.3,11.234-3.3s2.82.505,3.35,5.272a11.376,11.376,0,0,0,5.519,8.489v15.556c0,14.605,3.515,30.576,11.841,31.462s9.742-10.1,16.12-9.389C308.933,278.684,309.641,272.484,301.14,267.171Z" transform="translate(-231.684 -217.143)" fill="#333"/>
                        <path id="Path_85398" data-name="Path 85398" d="M262.072,284.308c-4.645,6.349-11.919,11.9-12.161,21.2,3.951,7.946,9.074,14.051,16.169,13.253,10.461-1.179,14.079-13.487,15.317-24.753C274.411,294.544,265.51,289.014,262.072,284.308Z" transform="translate(-236.05 -177.911)" fill="#3e6193"/>
                        <path id="Path_85399" data-name="Path 85399" d="M273.382,248.16c-1.994.908-9.066,7.071-9.066,8.613s3.173,13.146,3.173,16.682-3.241,18.943-7.5,28.059a23.743,23.743,0,0,1-2.4,3.944c3.438,4.706,12.339,10.236,19.324,9.7a122.975,122.975,0,0,0,.63-13.308s.714-25.772,1.884-27.6c1.066-1.673,1.058-4.429,1.058-6.778v-4.776s1.624-.1,1.717-2.894c0-.082,0-.168,0-.257C282.2,256.5,275.376,247.254,273.382,248.16Z" transform="translate(-231.566 -199.062)" fill="url(#linear-gradient-4)"/>
                      </g>
                      <g id="Group_169629" data-name="Group 169629" transform="translate(166.771 12.891)">
                        <g id="Group_169625" data-name="Group 169625" transform="translate(162.423)">
                          <path id="Path_85400" data-name="Path 85400" d="M375.6,255.335v75.226s25.106.765,24.34,0,0-34.95,0-34.95Z" transform="translate(-375.559 -184.026)" fill="#ff9843"/>
                          <path id="Path_85401" data-name="Path 85401" d="M413.787,309.664c2.075,14.079.776,30.123,0,36.184s-18.629,60.234-18.629,60.234H438.68l11.984-57.39-15.9-43.843Z" transform="translate(-364.135 -155.105)" fill="url(#linear-gradient-5)"/>
                          <path id="Path_85402" data-name="Path 85402" d="M415.1,309.664c2.075,14.079.776,30.123,0,36.184s-22.189,60.69-22.189,60.69h47.081l11.984-57.847-15.9-43.843Z" transform="translate(-365.448 -155.105)" fill="#184992"/>
                          <path id="Path_85403" data-name="Path 85403" d="M455.7,298.464c6.411,20.1,35.142,26.594,27.215,59.052-5.72,23.43-17.392,52.751-17.392,52.751H411.2s17.035-51.081,17.035-57.847-10.7-41.532-10.7-41.532Z" transform="translate(-354.764 -158.834)" fill="#184992"/>
                          <path id="Path_85404" data-name="Path 85404" d="M384.4,244.593c-6.411,3.056-12.267,16.665-6.411,29.441s6.69,10.493,8.911,20.522,1.35,15.584,19.7,28.083,17.8,15.832,18.629,22.22,52.494,5,51.661-18.887.485-51.469-14.9-64.479S384.4,244.593,384.4,244.593Z" transform="translate(-375.574 -190.3)" fill="#ff9843"/>
                          <path id="Path_85405" data-name="Path 85405" d="M377.1,225.922v71.7s26.03-13.967,25.8-27.633-11.77-44.065-11.77-44.065Z" transform="translate(-374.685 -201.206)" fill="#001462"/>
                          <path id="Path_85406" data-name="Path 85406" d="M388.638,258.64s3.466,5.611,4.641,8.022-4.041,13.074-2.321,22.212,13.026,7.582,15.553,0c.762-2.284,2.785-18.5,2.785-18.5V243.564Z" transform="translate(-367.944 -190.901)" fill="url(#linear-gradient-6)"/>
                          <path id="Path_85407" data-name="Path 85407" d="M393.279,266.662c7.314-8.195,14.886,26.505,2.9,28.265.029.008.059.009.087.017l1.717.19a9.165,9.165,0,0,0,8.532-6.26c.762-2.284,2.785-18.5,2.785-18.5V243.564L388.638,258.64S392.1,264.251,393.279,266.662Z" transform="translate(-367.944 -190.901)" fill="#cb9eae"/>
                          <path id="Path_85408" data-name="Path 85408" d="M379.487,231.87c-3.558,22.059.355,42.392,10.99,44.8s25.883-9.224,25.883-19.486,10.282-37-1.418-43.1S381.754,217.815,379.487,231.87Z" transform="translate(-374.037 -209.199)" fill="url(#linear-gradient-7)"/>
                          <path id="Path_85409" data-name="Path 85409" d="M389.076,230.98a93.569,93.569,0,0,1-9.631,7.089c-4.074,2.422-3.076-11.564,4.816-18.136S402.5,207.765,406.7,211.54c0,0,13.146-3.636,21.118,9.79s8.532,25.453,11.049,28.81,6.713,5.456,4.755,11.748c0,0,13.984-2.8,16.083,6.854s1.4,12.769,1.4,12.769-4.347-3.4-13.26-6.52c0,0-6,4.729-11.738,4.729s-12.958,23.136-23.028,23.136l-.084-55.092S390.245,244.862,389.076,230.98Z" transform="translate(-374.685 -210.319)" fill="#333"/>
                        </g>
                        <g id="Group_169627" data-name="Group 169627" transform="translate(0 44.262)">
                          <path id="Path_85410" data-name="Path 85410" d="M322.226,297.349c-26.424,27.514-49.185,111.445-49.185,111.445h37.935l23.709-55.722Z" transform="translate(-273.041 -203.747)" fill="#f6a60d"/>
                          <path id="Path_85411" data-name="Path 85411" d="M442.065,309.39c-5.529-6.282-34.974-26.952-72.519-24.706-33.1,1.982-59.881,12.207-65.1,20.161-3.818,5.817,4.545,45.085,10.363,60.72a137.115,137.115,0,0,1,8.362,46.539s93.624-.547,94.169,0,11.635-34.541,13.089-51.993S428.612,323.389,442.065,309.39Z" transform="translate(-255.261 -211.243)" fill="#f6a60d"/>
                          <path id="Path_85412" data-name="Path 85412" d="M372.527,264.055s.467,29.1,0,37.782-13.931,16.5-18.924,16.72-16.069-7.165-17.807-19.543V272.741Z" transform="translate(-236.386 -223.194)" fill="url(#linear-gradient-8)"/>
                          <path id="Path_85413" data-name="Path 85413" d="M372.7,279.863c-.057-8.432-.176-15.808-.176-15.808L335.8,272.741v21.545c3.06,13.466,23.373,9.785,28.21-2.977C366.776,283.994,369.146,281.822,372.7,279.863Z" transform="translate(-236.386 -223.194)" fill="#cb9eae"/>
                          <path id="Path_85414" data-name="Path 85414" d="M329.674,266.462c1.38,21.319,10.069,41.957,23.836,39.78,17.077-2.7,22.261-28.6,21.587-42.712s-8.717-22.938-20.961-22.949C342.49,240.57,328.507,248.413,329.674,266.462Z" transform="translate(-240.001 -236.905)" fill="url(#linear-gradient-9)"/>
                          <path id="Path_85415" data-name="Path 85415" d="M363.2,264.427c-.912,4.252-2.981,7.475-4.619,7.2s-2.224-3.941-1.312-8.191,2.981-7.475,4.619-7.2S364.115,260.177,363.2,264.427Z" transform="translate(-224.094 -227.77)" fill="url(#linear-gradient-10)"/>
                          <path id="Path_85416" data-name="Path 85416" d="M330.8,271.152c-2.6-3.979-2.782-5.544-2.59-12.156s5.769-6.843,5.652-9.668,3.487-10.417,18.206-11.029,13.834,6.137,18.393,6.576,11.626,5.115,8.184,21.851c0,0-4,.383-5.578,8.47a.725.725,0,0,1-1.283.244,10.637,10.637,0,0,1-1.35-3.1c-1.1-4.043-5.5,2.032-6.3-6.027-.57-5.744-14.585,4.8-24.981-4.521,0,0-1.545,2.056-5.974,1.925C330.6,263.64,330.8,271.152,330.8,271.152Z" transform="translate(-240.849 -238.26)" fill="#333"/>
                          <g id="Group_169626" data-name="Group 169626" transform="translate(86.818 74.649)">
                            <path id="Path_85417" data-name="Path 85417" d="M340.431,320.666s1.212,1.549,3.476-1.907,10.005-13.951,12.69-12.915l-.013-.017c-5.446-1.133-14.588-8.21-16.153-19.369v-.9c-4.331.6-8.483,1.34-12.427,2.175C326.913,293.894,331.537,313.851,340.431,320.666Z" transform="translate(-327.846 -285.285)" fill="#c1881a"/>
                            <path id="Path_85418" data-name="Path 85418" d="M365.092,289.379c-.406,7.555-10.639,14.449-16.584,16.261h0c2.807-1.091,13.124,12.481,14.913,15.472s5.072-1.058,8.339-9.4c2.373-6.058,6.04-16.5,4.5-23.868a105.68,105.68,0,0,0-11.038-2.459C365.192,286.954,365.149,288.324,365.092,289.379Z" transform="translate(-315.778 -285.384)" fill="#c1881a"/>
                          </g>
                          <path id="Path_85419" data-name="Path 85419" d="M339.957,288.456v-6.325c-5.489,2.411-10.574,4.448-11.133,7.589-1.1,6.156,3.843,24.045,11.133,30.363,0,0,1.212,1.549,3.477-1.907s10.005-11.369,12.69-10.333l-.013-.017C350.664,306.694,341.524,299.615,339.957,288.456Z" transform="translate(-240.547 -212.635)" fill="#f8c25a"/>
                          <path id="Path_85420" data-name="Path 85420" d="M374.272,288.183c-1.519-3.438-6.447-6.229-8.969-7.423-.013,4.672-.07,8.835-.2,11.32-.406,7.555-10.639,14.449-16.584,16.261h0c2.809-1.091,13.126,9.9,14.914,12.888s4-.494,7.627-8.689C374.749,304.2,376.751,293.789,374.272,288.183Z" transform="translate(-228.958 -213.436)" fill="#f8c25a"/>
                          <path id="Path_85421" data-name="Path 85421" d="M417.8,385.489c0-24.127-7.029-72.484-18.179-85.271,0,0-17.454,9.335-22.974,38.923-1.649,8.839,1.16,34.1,1.887,44.764Z" transform="translate(-212.821 -202.071)" fill="#f6a60d"/>
                          <path id="Path_85422" data-name="Path 85422" d="M359.623,382.336h52.96c7.844,0,16.281-6.4,15.1-23.754S398.107,343.666,388.412,357l-29.179,4.456Z" transform="translate(-222.696 -175.164)" fill="#f6a60d"/>
                          <path id="Path_85423" data-name="Path 85423" d="M354.593,376.741l2.5-2.349,7.618,2.7a12.325,12.325,0,0,0,4.119.708h15.117s7.154-1.532,7.388-9.975-7.037-10.907-10.2-10.907H364.562a12.1,12.1,0,0,1-2.471-.255L350.3,354.2a7.269,7.269,0,0,0-5.1.811l-6.68,3.838a16.88,16.88,0,0,0-3.534,2.709l-12.122,12.148a2.4,2.4,0,0,0,1.7,4.093h27.346A3.915,3.915,0,0,0,354.593,376.741Z" transform="translate(-244.349 -170.629)" fill="url(#linear-gradient-11)"/>
                        </g>
                        <g id="Group_169628" data-name="Group 169628" transform="translate(99.868 72.895)">
                          <path id="Path_85424" data-name="Path 85424" d="M462.784,257.668c-11.353-6.561-31.25,12.1-26.969,34.161s-19.947,49.432-19.947,49.432-27.459,11.025-38.481,13.115a42.655,42.655,0,0,1,7.027,16.511c18.032-1.484,43.907-5.151,54.363-13.866,15.8-13.17,32.593-61.736,32.6-77.166C471.378,261.9,462.784,257.668,462.784,257.668Z" transform="translate(-311.96 -256.336)" fill="#ff9843"/>
                          <path id="Path_85425" data-name="Path 85425" d="M398.64,318.567h-35.5s-25.352,8.587-26.009,10.056-1.977,10.2,0,12.255,14.816,5.676,18.108,5.017,28.975-10.206,34.9-10.206c2.005,0,9.181-.19,18.4-.95a42.655,42.655,0,0,0-7.027-16.511A16.341,16.341,0,0,1,398.64,318.567Z" transform="translate(-336.085 -220.185)" fill="url(#linear-gradient-12)"/>
                        </g>
                      </g>
                      <g id="Group_169631" data-name="Group 169631">
                        <path id="Path_85426" data-name="Path 85426" d="M231.952,310.577s8.9,7.04,17.994,0,2.831-19.058,2.831-19.058l-20.825,11.093Z" transform="translate(-130.271 -150)" fill="#f9b277"/>
                        <path id="Path_85427" data-name="Path 85427" d="M246.365,261.916v52.631H229.25V264.8Z" transform="translate(-131.849 -167.291)" fill="#f9b277"/>
                        <g id="Group_169630" data-name="Group 169630" transform="translate(25.744 185.963)">
                          <path id="Path_85428" data-name="Path 85428" d="M228.694,358.005c-1.647,8.782-11.006,21.118-16.959,38.928h34.012c3.262-21.4,6.208-50.115,1.557-75.641H227.693C229.5,329.9,230.244,349.743,228.694,358.005Z" transform="translate(-167.824 -318.572)" fill="url(#linear-gradient-13)"/>
                          <path id="Path_85429" data-name="Path 85429" d="M201.85,356.1s3.936,19.111,6.626,40.832h9.033c5.953-17.81,15.312-30.145,16.959-38.928,1.549-8.263.809-28.11-1-36.713H202.661Z" transform="translate(-173.598 -318.572)" fill="url(#linear-gradient-14)"/>
                          <path id="Path_85430" data-name="Path 85430" d="M243.885,322.295a18.526,18.526,0,0,0-.748-2.72H184.015c.814,28.457,3.057,56.776,4.4,78.361h39.508c5.953-17.81,15.312-30.146,16.959-38.928C246.435,350.745,245.7,330.9,243.885,322.295Z" transform="translate(-184.015 -319.575)" fill="url(#linear-gradient-15)"/>
                        </g>
                        <path id="Path_85431" data-name="Path 85431" d="M232.612,233.372c-34.971-9.384-58.591,6.229-62.469,28.65-3.542,20.478,22.171,83.886,22.171,109.526,0,0,41.451,21.368,79.481,2.72,0,0-5.7-27.2,0-51.282s13.289-37.887,6.846-55.166C273.013,252.723,248.968,237.76,232.612,233.372Z" transform="translate(-166.569 -185.585)" fill="#f9b277"/>
                        <path id="Path_85432" data-name="Path 85432" d="M225.21,217.778s-13.2,16.6-18.768,21.891,4.708,16.115,12.5,20.709c5.15,3.035,16.009,6.4,12.807-3.064,0,0-1.811-5.289,6.961-12.807C238.715,244.506,228.969,215.411,225.21,217.778Z" transform="translate(-146.098 -193.152)" fill="url(#linear-gradient-16)"/>
                        <path id="Path_85433" data-name="Path 85433" d="M232.272,242.471s-4.519-13.485-8.589-21.347l-4.3,2.029c-5.01,10.276-5.909,29.639,5.928,32.126C225.312,255.279,223.5,249.99,232.272,242.471Z" transform="translate(-139.655 -191.117)" fill="#cb9eae"/>
                        <path id="Path_85434" data-name="Path 85434" d="M223.61,220.238c1.117-6.33-4.538-6.8-6.313-1.522-2.028,6.037.206,10.219,2.528,8.827,0,0-4.507,13.631,1.167,21.84s12.918,5.055,21.973-3.864c7.786-7.667,12.855-17.035,13.642-20.644,2.053-9.417-7.726-17.034-16.9-16.54C228.478,208.939,223.61,220.238,223.61,220.238Z" transform="translate(-139.293 -198.601)" fill="url(#linear-gradient-17)"/>
                        <path id="Path_85435" data-name="Path 85435" d="M222.154,223.819c-.353,3.727.257,6.614,2.449,5.345s7.382-8.768,12.112-3.346,8.565,10.468,16.959,9.576c10.843-1.155,13.359-15.832,3.807-18.458,0,0,4.153-5.044-3.23-7.383-6.759-2.143-7.03-.816-11.76-6.121-2.723-3.056-19.043-1.426-23.492,15.34C219,218.772,222.7,218.012,222.154,223.819Z" transform="translate(-137.837 -202.182)" fill="#333"/>
                        <path id="Path_85436" data-name="Path 85436" d="M198.456,312.128c.347-7.292,4.858-26.212,11.22-38.3s3.24-27.632-5.408-33.716c-8.589-6.045-20.63-4.973-26.333,3.445-15.337,22.637-10.883,73.531-2.614,90.707,1.643,3.411,5.6,5.627,10.973,6.957C174.652,335.906,186.327,309.356,198.456,312.128Z" transform="translate(-167.763 -182.265)" fill="#f9b277"/>
                        <path id="Path_85437" data-name="Path 85437" d="M215.769,308.029l22.976-27.8a3.952,3.952,0,0,1,4.093-1.293l38.977,10.742a1.263,1.263,0,0,1,.512,2.154l-29.482,26.613a2.558,2.558,0,0,1-2.3.591l-33.756-7.982A1.879,1.879,0,0,1,215.769,308.029Z" transform="translate(-139.975 -157.431)" fill="#f6a60d"/>
                        <path id="Path_85438" data-name="Path 85438" d="M266.067,293.968a12.857,12.857,0,0,0-7.379-7.317c-1.617-.461-13.639-.252-20.1-.1a13.884,13.884,0,0,0-7.084,2.113c-2.034,1.278-4.57,2.693-5.829,2.693h-20.3a70.828,70.828,0,0,0-11.981-7.119c-12.13-2.772-23.8,23.777-12.161,29.1,19.576,4.855,58.217-2.232,74.459-7.783a17.781,17.781,0,0,0,8.952-6.6C265.8,297.273,266.586,295.453,266.067,293.968Z" transform="translate(-162.702 -154.372)" fill="url(#linear-gradient-18)"/>
                      </g>
                    </g>
                    <g id="Group_169633" data-name="Group 169633" transform="translate(145.463 177.312)">
                      <path id="Path_85439" data-name="Path 85439" d="M321,374.929h55.626a5.775,5.775,0,0,0,5.776-5.776h0a2.635,2.635,0,0,0-2.634-2.634H321a2.635,2.635,0,0,0-2.634,2.634v3.141A2.634,2.634,0,0,0,321,374.929Z" transform="translate(-191.059 -283.504)" fill="#385fd4"/>
                      <path id="Path_85440" data-name="Path 85440" d="M269.49,405.539H385.678a6.788,6.788,0,0,0,6.547-8.587L371.717,322.3a11.132,11.132,0,0,0-10.734-8.183H244.794a6.791,6.791,0,0,0-6.547,8.589l20.508,74.652A11.135,11.135,0,0,0,269.49,405.539Z" transform="translate(-238.001 -314.114)" fill="url(#linear-gradient-19)"/>
                    </g>
                  </g>
                </g>
              </g>
            </g>
          </g>
        </g>
      </g>
      <g id="Group_169694" data-name="Group 169694" transform="translate(-16126.662 -1922.485)">
        <path id="Path_81022" data-name="Path 81022" d="M577.719,1187.1s-10.18,7.57-12.165,7.111,7.44-8.172,7.44-8.172c-3.547-1.705-14.571-.636-14.571-.636s-3.672,11.842-5.483,10.909,3.787-10.32,3.787-10.32c-3.95-.238-8.795,2.695-8.795,2.695-6.632,5.238.436,13.484.436,13.484a20.158,20.158,0,0,1-5.55,7.789,17.5,17.5,0,0,0-6.4,12.328l1.086.1s1.721-7.362,4.849-10.844c.122-.126.3-.307.517-.527.51-.471.867-.826,1.107-1.089,1.557-1.5,3.708-3.4,4.744-3.585a2,2,0,0,1-.044-.521c.014.167.029.338.044.521.355,4.167,8.441,7.807,13.415,8.556s3.437-1.3,1.723-4.328-7.138-4.388-8.375-5.785,1.321-1.4,4.318-.031,3.407,5.019,8.215,7.321,12.042-5.676,12.042-5.676c-3.831-.194-9.3-4.356-9.105-5.629s9.288,2.2,10.842,2.363,5.09-1.766,5.637-8.026S577.719,1187.1,577.719,1187.1Z" transform="translate(-482.411 -1144.733)" fill="#82b378"/>
        <g id="Group_166577" data-name="Group 166577" transform="translate(0 17.948)">
          <path id="Path_81023" data-name="Path 81023" d="M279.308,1090.507s11.244-6.3,6-14.842c0,0-4.2-5.247-8.7-6.6,0,0,2.4,12.743,0,13.043s-1.649-14.392-1.649-14.392-11.844-5.7-16.491-5.247c0,0,7.346,12.443,4.947,12.143s-10.644-12.893-10.644-12.893-12.144-2.249-14.092,4.947,1.2,10.794,3,11.244,13.343.3,13.043,1.8-8.1,3.9-12.443,2.549c0,0,4.8,11.843,11.094,11.244s8.246-4.5,12.143-4.8,6.746.75,4.8,1.8-8.545.344-11.694,3.021-5.7,4.325.15,5.525,16.341.45,18.44-4.048Z" transform="translate(-238.065 -1061.39)" fill="#a8d29f"/>
          <path id="Path_81024" data-name="Path 81024" d="M310.184,1135.512a23.916,23.916,0,0,1-3-10.944c-3.6-11.394-35.081-21.589-35.081-21.589,40.028,16.191,32.982,26.086,32.982,26.086,1.079.63,2.7,3.63,3.819,5.932.16.392.413.934.789,1.67h0c.152.333.274.605.358.8,2.061,5.157.969,14.062.969,14.062l1.249.336A20.764,20.764,0,0,0,310.184,1135.512Z" transform="translate(-265.942 -1095.451)" fill="#82b378"/>
        </g>
        <g id="Group_166578" data-name="Group 166578" transform="translate(49.387)">
          <path id="Path_81025" data-name="Path 81025" d="M520.631,1000.622s-14.822-8.3-7.9-19.565c0,0,5.533-6.917,11.462-8.7,0,0-3.162,16.8,0,17.193s2.174-18.972,2.174-18.972,15.612-7.51,21.739-6.917c0,0-9.684,16.4-6.522,16.007s14.031-17,14.031-17,16.007-2.964,18.577,6.522-1.581,14.229-3.952,14.822-17.589.4-17.193,2.371,10.671,5.138,16.4,3.36c0,0-6.324,15.612-14.624,14.822s-10.869-5.929-16.007-6.324-8.893.988-6.324,2.372,11.264.453,15.414,3.981,7.51,5.7-.2,7.283-21.541.593-24.307-5.336Z" transform="translate(-510.887 -962.24)" fill="#a8d29f"/>
          <path id="Path_81026" data-name="Path 81026" d="M575.541,1017.064s-41.5,13.438-46.243,28.458a31.524,31.524,0,0,1-3.953,14.426s-6.4,9.719-2.751,21.549l1.646-.442s-1.439-11.738,1.278-18.536c.111-.25.272-.609.472-1.048h0c.5-.97.83-1.685,1.04-2.2,1.48-3.035,3.612-6.99,5.034-7.819C532.065,1051.45,522.777,1038.407,575.541,1017.064Z" transform="translate(-519.554 -1007.14)" fill="#82b378"/>
        </g>
        <path id="Path_81027" data-name="Path 81027" d="M430.605,1383.372a29.033,29.033,0,0,0,29.033-29.033H401.572A29.033,29.033,0,0,0,430.605,1383.372Z" transform="translate(-371.973 -1283.36)" fill="#f1a34f"/>
        <path id="Path_81028" data-name="Path 81028" d="M453.757,1383.149a29.054,29.054,0,0,1-32.639-28.811h7.213A29.038,29.038,0,0,0,453.757,1383.149Z" transform="translate(-387.981 -1283.359)" fill="#ffb973"/>
        <path id="Path_81029" data-name="Path 81029" d="M454.643,1503.694h-51.7a3.582,3.582,0,0,0-3.582,3.582h58.868A3.582,3.582,0,0,0,454.643,1503.694Z" transform="translate(-370.159 -1405.678)" fill="#f1a34f"/>
        <path id="Path_81030" data-name="Path 81030" d="M455.534,1354.338H396.743a.445.445,0,0,0,0,.891h58.791a.445.445,0,0,0,0-.891Z" transform="translate(-367.654 -1283.359)" fill="#d86713"/>
      </g>
    </g>
  </g>
</svg>
