<svg xmlns="http://www.w3.org/2000/svg" xmlns:xlink="http://www.w3.org/1999/xlink" width="133.836" height="132.002" viewBox="0 0 133.836 132.002">
  <defs>
    <linearGradient id="linear-gradient" x1="0.5" x2="0.5" y2="1" gradientUnits="objectBoundingBox">
      <stop offset="0" stop-color="#92693a"/>
      <stop offset="0.197" stop-color="#e0c06c"/>
      <stop offset="0.422" stop-color="#b58b42"/>
      <stop offset="0.728" stop-color="#f8e69d"/>
      <stop offset="1" stop-color="#916739"/>
    </linearGradient>
  </defs>
  <g id="Most_Innovative_school_Management_ERP" data-name="Most  Innovative school  Management  ERP" transform="translate(-561.816 -34.545)">
    <path id="Path_92767" data-name="Path 92767" d="M628.736,37.1c-3.861,0-7.944-3.111-11.621-2.467-3.781.662-6.558,4.992-10.084,6.276-3.59,1.307-8.5-.214-11.76,1.674-3.295,1.906-4.42,6.924-7.317,9.358s-8.042,2.684-10.482,5.589-1.787,8-3.694,11.29c-1.887,3.263-6.635,5.242-7.942,8.832-1.286,3.528,1.069,8.089.407,11.871-.644,3.678-4.426,7.161-4.426,11.023s3.782,7.345,4.426,11.023c.662,3.781-1.692,8.344-.407,11.872,1.306,3.59,6.054,5.568,7.942,8.832,1.906,3.294,1.261,8.392,3.693,11.29s7.576,3.148,10.482,5.589,4.023,7.451,7.317,9.357c3.264,1.888,8.17.368,11.76,1.674,3.527,1.285,6.3,5.614,10.084,6.276,3.677.644,7.76-2.466,11.621-2.466s7.945,3.11,11.621,2.466c3.782-.662,6.558-4.992,10.085-6.276,3.59-1.307,8.5.214,11.759-1.674,3.294-1.906,4.42-6.925,7.317-9.358s8.041-2.684,10.482-5.589,1.786-8,3.692-11.289c1.888-3.264,6.636-5.243,7.942-8.833,1.284-3.528-1.069-8.09-.407-11.871.644-3.678,4.426-7.162,4.426-11.023s-3.782-7.345-4.426-11.023c-.662-3.781,1.691-8.344.407-11.871-1.307-3.59-6.055-5.57-7.942-8.833-1.906-3.294-1.26-8.392-3.693-11.289s-7.576-3.15-10.482-5.589-4.024-7.452-7.317-9.358c-3.263-1.888-8.169-.367-11.759-1.674-3.526-1.285-6.3-5.614-10.084-6.276C636.681,33.991,632.6,37.1,628.736,37.1Z" fill="#fff"/>
    <g id="Group_175662" data-name="Group 175662" transform="translate(569.612 42.523)">
      <g id="Group_175661" data-name="Group 175661">
        <g id="Group_175644" data-name="Group 175644" transform="translate(94.407 59.125)">
          <g id="Group_175643" data-name="Group 175643">
            <path id="Path_92768" data-name="Path 92768" d="M694.785,149.141a6.532,6.532,0,0,1,.236,2.585,8.786,8.786,0,0,1-.484,1.935c-.145.376-.325.785-.545,1.242a15.308,15.308,0,0,1-.789,1.476l1.748,1.467a10.5,10.5,0,0,0,.615-1.137,10.364,10.364,0,0,0,.478-1.19c.077-.24.141-.469.191-.7s.074-.455.1-.68a6.739,6.739,0,0,0,.007-1.251,6.368,6.368,0,0,0-.492-2.012A6.286,6.286,0,0,0,694.785,149.141Z" transform="translate(-686.785 -121.504)" fill="url(#linear-gradient)"/>
            <path id="Path_92769" data-name="Path 92769" d="M693.387,149.037a7.617,7.617,0,0,0-1.985-.3,9.2,9.2,0,0,0-1.992.151,6.579,6.579,0,0,0-1.091.3c-.184.068-.367.141-.555.227s-.381.172-.569.271a8.149,8.149,0,0,0-.91.578c-.286.207-.556.437-.846.65l1.749,1.467c.44-.334.8-.669,1.165-.942s.691-.52,1-.731a8.417,8.417,0,0,1,4.03-1.675Z" transform="translate(-685.44 -121.435)" fill="url(#linear-gradient)"/>
            <path id="Path_92770" data-name="Path 92770" d="M703.968,142.127a7.23,7.23,0,0,0-.026-1.406,6.958,6.958,0,0,0-.29-1.223,6.673,6.673,0,0,0-1.927-2.928,4.4,4.4,0,0,0-.45-.355,6.452,6.452,0,0,1,.837,2.541,8.12,8.12,0,0,1-.066,2.1,16.892,16.892,0,0,1-.764,3.134,10.336,10.336,0,0,0-.419,6.381,5.91,5.91,0,0,0,.759,1.567,3.364,3.364,0,0,0,.436.513,9.258,9.258,0,0,1-.021-2.937,14.415,14.415,0,0,1,.627-2.553q.111-.3.213-.6c.068-.2.134-.4.2-.608.135-.4.263-.8.394-1.2A10.048,10.048,0,0,0,703.968,142.127Z" transform="translate(-688.056 -119.265)" fill="url(#linear-gradient)"/>
            <path id="Path_92771" data-name="Path 92771" d="M693.256,141.141c.725-.922,1.284-1.683,1.815-2.27a14.139,14.139,0,0,1,1.381-1.383,9.654,9.654,0,0,1,2.277-1.3,5.213,5.213,0,0,0-.568-.01,9.28,9.28,0,0,0-1.433.179,8.528,8.528,0,0,0-1.9.6,6.584,6.584,0,0,0-.986.55,7.554,7.554,0,0,0-.988.738,14.38,14.38,0,0,0-1.375,1.531c-.212.267-.421.541-.632.808-.106.136-.212.268-.32.406l-.352.381a6.858,6.858,0,0,1-1.645,1.329,5.984,5.984,0,0,1-2.34.687,3.837,3.837,0,0,0,.6.243,5.171,5.171,0,0,0,1.605.243,5.373,5.373,0,0,0,2.306-.541,7.137,7.137,0,0,0,2.555-2.191Z" transform="translate(-685.57 -119.258)" fill="url(#linear-gradient)"/>
            <path id="Path_92772" data-name="Path 92772" d="M706.383,129.735a20.864,20.864,0,0,0-.055,2.1,11.974,11.974,0,0,0,.213,1.728,7.361,7.361,0,0,0,.919,2.474,5.7,5.7,0,0,0,1.09,1.338,2.829,2.829,0,0,0,.533.4c-.1-.248-.183-.5-.256-.737s-.151-.488-.209-.724a9.247,9.247,0,0,1-.228-1.39,17.3,17.3,0,0,1,.018-2.628c.036-.428.085-.85.136-1.267.032-.425.063-.842.093-1.265a9.975,9.975,0,0,0-.073-2.469,6.779,6.779,0,0,0-.913-2.485,7.041,7.041,0,0,0-1.359-1.576,6.139,6.139,0,0,0-1.715-1.067,7.1,7.1,0,0,1,1.4,2.281,8.368,8.368,0,0,1,.414,2.054,13.22,13.22,0,0,1,.074,1.443C706.458,128.483,706.433,129.075,706.383,129.735Z" transform="translate(-688.756 -116.831)" fill="url(#linear-gradient)"/>
            <path id="Path_92773" data-name="Path 92773" d="M698.114,128.255q.342-.8.662-1.45c.212-.439.381-.833.567-1.181a13.6,13.6,0,0,1,1.033-1.663,8.566,8.566,0,0,1,1.917-1.8,7.813,7.813,0,0,0-1.926.627,8.223,8.223,0,0,0-1.692,1.032,7.6,7.6,0,0,0-1.629,1.712,14.405,14.405,0,0,0-.985,1.808c-.138.311-.277.622-.413.933-.158.309-.317.615-.489.917a6.05,6.05,0,0,1-1.291,1.672,5.629,5.629,0,0,1-.932.68,4.863,4.863,0,0,1-.549.289,6.576,6.576,0,0,1-.641.234,3.359,3.359,0,0,0,.651.1,5.236,5.236,0,0,0,1.625-.131,5.5,5.5,0,0,0,2.112-1.058,6.053,6.053,0,0,0,1.044-1.114A7.28,7.28,0,0,0,698.114,128.255Z" transform="translate(-686.533 -116.83)" fill="url(#linear-gradient)"/>
            <path id="Path_92774" data-name="Path 92774" d="M713.1,123.3a10.189,10.189,0,0,1-1.07-1.943,10.027,10.027,0,0,1-.6-1.9c-.073-.316-.116-.63-.174-.939s-.108-.632-.154-.942c-.085-.629-.167-1.239-.249-1.857h-2.282c.016.127.036.255.053.385a13.809,13.809,0,0,0,1.023,3.691,8.039,8.039,0,0,0,1.476,2.192,5.488,5.488,0,0,0,1.365,1.049,3.341,3.341,0,0,0,.612.264Z" transform="translate(-689.447 -115.712)" fill="url(#linear-gradient)"/>
            <path id="Path_92775" data-name="Path 92775" d="M694.662,121.244a3.942,3.942,0,0,0,.656-.051,5.446,5.446,0,0,0,1.561-.5,5.138,5.138,0,0,0,1.8-1.522,5.837,5.837,0,0,0,.778-1.324,9.9,9.9,0,0,0,.534-1.792c.021-.111.047-.225.067-.338h-2.281c-.112.5-.222.993-.332,1.494-.06.246-.125.494-.2.741a6.489,6.489,0,0,1-.289.727,6.191,6.191,0,0,1-.854,1.373,5.712,5.712,0,0,1-1.44,1.192Z" transform="translate(-687.038 -115.712)" fill="url(#linear-gradient)"/>
          </g>
          <path id="Path_92776" data-name="Path 92776" d="M701.757,115.712h1.05s-.014.564-.04,1.553c0,.99-.112,2.4-.27,4.083-.055.417-.107.856-.167,1.307s-.106.92-.2,1.4c-.179.949-.321,1.963-.583,2.993q-.177.775-.362,1.571c-.149.52-.3,1.052-.448,1.587-.078.27-.155.536-.229.8s-.179.529-.265.8c-.181.532-.363,1.067-.543,1.6a53.223,53.223,0,0,1-5.609,11.044c-.472.7-.932,1.325-1.328,1.885s-.79,1.018-1.088,1.415-.546.689-.71.9a3.521,3.521,0,0,1-.265.311l-.806-.678.261-.3c.16-.206.394-.5.694-.884s.678-.83,1.066-1.383.838-1.164,1.3-1.851a52.356,52.356,0,0,0,5.5-10.818c.176-.521.352-1.048.528-1.565.087-.263.181-.523.26-.785s.151-.527.227-.789c.146-.522.294-1.044.44-1.558.12-.518.237-1.034.354-1.535.256-1.008.393-2,.57-2.933.093-.466.138-.926.2-1.374s.111-.868.165-1.283c.155-1.649.262-3.026.265-3.993S701.757,115.712,701.757,115.712Z" transform="translate(-686.211 -115.712)" fill="url(#linear-gradient)"/>
        </g>
        <g id="Group_175646" data-name="Group 175646" transform="translate(67.239 88.609)">
          <g id="Group_175645" data-name="Group 175645">
            <path id="Path_92777" data-name="Path 92777" d="M660.2,174.881a7.121,7.121,0,0,1-1.483,2.126,7.577,7.577,0,0,1-1.62,1.16c-.355.2-.753.4-1.21.622a15.639,15.639,0,0,1-1.558.606l.394,2.245a10.22,10.22,0,0,0,2.335-1.076,6.7,6.7,0,0,0,1.924-1.815,6.949,6.949,0,0,0,1.2-3.294,4.585,4.585,0,0,0,.018-.574Z" transform="translate(-652.881 -155.449)" fill="url(#linear-gradient)"/>
            <path id="Path_92778" data-name="Path 92778" d="M659.877,174.041s-.112-.179-.338-.466a8.973,8.973,0,0,0-1-1.056,8.626,8.626,0,0,0-1.619-1.153,7.92,7.92,0,0,0-2.213-.821,14.522,14.522,0,0,0-2.132-.193l.4,2.246c.551,0,1.047.027,1.5.045s.857.03,1.229.063a14.132,14.132,0,0,1,1.839.3,8.858,8.858,0,0,1,2.334,1.035Z" transform="translate(-652.578 -154.664)" fill="url(#linear-gradient)"/>
            <path id="Path_92779" data-name="Path 92779" d="M670.775,175.279a7.308,7.308,0,0,0,1.447-2.213,6.794,6.794,0,0,0,.451-2.035,6.22,6.22,0,0,0-.169-2.021c-.431,1.55-.543,3.117-4.981,5.977a13.373,13.373,0,0,0-2.992,2.4,7.882,7.882,0,0,0-1.433,2.229,5.432,5.432,0,0,0-.427,1.663,3.022,3.022,0,0,0,0,.666,9.667,9.667,0,0,1,.9-1.236,10.262,10.262,0,0,1,.976-1.019,16.656,16.656,0,0,1,2.121-1.551c.363-.231.729-.447,1.1-.664s.727-.417,1.071-.663a11.528,11.528,0,0,0,1.936-1.533Z" transform="translate(-654.324 -154.432)" fill="url(#linear-gradient)"/>
            <path id="Path_92780" data-name="Path 92780" d="M664.166,168.714c.565-.146,1.081-.263,1.553-.358s.9-.165,1.291-.235a10.213,10.213,0,0,1,1.953-.16,8.451,8.451,0,0,1,2.58.453,7.817,7.817,0,0,0-1.65-1.167,8.938,8.938,0,0,0-1.837-.738,6.828,6.828,0,0,0-2.344-.276,10.989,10.989,0,0,0-2.039.28c-.327.086-.666.151-1,.212s-.676.123-1.019.169a6.265,6.265,0,0,1-2.115-.041,5.177,5.177,0,0,1-1.1-.33,6.643,6.643,0,0,1-1.133-.657,3.653,3.653,0,0,0,.308.578,5.467,5.467,0,0,0,1.074,1.242,5.252,5.252,0,0,0,2.111,1.046A7.215,7.215,0,0,0,664.166,168.714Z" transform="translate(-653.397 -153.887)" fill="url(#linear-gradient)"/>
            <path id="Path_92781" data-name="Path 92781" d="M681.1,167.226a12.868,12.868,0,0,0-1.391,1.59,10.113,10.113,0,0,0-.958,1.439,7.6,7.6,0,0,0-.58,1.334,6.788,6.788,0,0,0-.3,1.156,5.6,5.6,0,0,0-.026,1.731,3.1,3.1,0,0,0,.155.646,10.2,10.2,0,0,1,1.3-2.622,13.505,13.505,0,0,1,1.706-2c.594-.625,1.214-1.2,1.8-1.785a12.788,12.788,0,0,0,1.527-1.951,6.682,6.682,0,0,0,.87-4.569,6.241,6.241,0,0,0-.634-1.926,12.185,12.185,0,0,1-.047,1.23,4.973,4.973,0,0,1-.341,1.421,10.09,10.09,0,0,1-1,1.846c-.244.357-.543.729-.887,1.137a15.94,15.94,0,0,1-1.2,1.323Z" transform="translate(-656.947 -152.917)" fill="url(#linear-gradient)"/>
            <path id="Path_92782" data-name="Path 92782" d="M675.8,161.981c.536-.239.992-.5,1.434-.7s.84-.367,1.207-.515a9.943,9.943,0,0,1,1.852-.623,8.386,8.386,0,0,1,1.4-.174c.418-.015.811.014,1.222.023a7.818,7.818,0,0,0-1.87-.747,8.134,8.134,0,0,0-4.306-.033,10.166,10.166,0,0,0-1.912.756c-.627.283-1.243.583-1.885.842a7.338,7.338,0,0,1-2.071.446,5.591,5.591,0,0,1-2.4-.446,3.711,3.711,0,0,0,.432.492,5.317,5.317,0,0,0,1.331.947,5.627,5.627,0,0,0,1.033.39,5.8,5.8,0,0,0,1.266.15,6.555,6.555,0,0,0,1.527-.165,9.51,9.51,0,0,0,1.74-.643Z" transform="translate(-655.331 -152.686)" fill="url(#linear-gradient)"/>
            <path id="Path_92783" data-name="Path 92783" d="M691.368,166.623a10.4,10.4,0,0,1,1.185-4.021c.291-.58.644-1.1.968-1.645s.663-1.062.992-1.594l-1.748-1.467c-.066.109-.135.215-.2.33a15.7,15.7,0,0,0-.986,1.86,9.911,9.911,0,0,0-.6,1.631,8.058,8.058,0,0,0-.286,2.622,5.582,5.582,0,0,0,.375,1.687A3.32,3.32,0,0,0,691.368,166.623Z" transform="translate(-659.179 -152.506)" fill="url(#linear-gradient)"/>
            <path id="Path_92784" data-name="Path 92784" d="M678.27,153.613a3.817,3.817,0,0,0,.534.38,5.425,5.425,0,0,0,1.51.61,5.122,5.122,0,0,0,2.366,0,6.851,6.851,0,0,0,1.446-.518,8.021,8.021,0,0,0,1.55-1.028c.092-.072.181-.147.27-.216l-1.749-1.467c-.4.308-.794.619-1.2.939a8.338,8.338,0,0,1-1.324.8,5.5,5.5,0,0,1-3.4.5Z" transform="translate(-657.03 -151.376)" fill="url(#linear-gradient)"/>
          </g>
          <path id="Path_92785" data-name="Path 92785" d="M683.6,155.114l.806.678s-.369.422-1.015,1.17c-.316.383-.742.8-1.214,1.308-.239.248-.488.511-.757.79s-.57.55-.873.84a51.028,51.028,0,0,1-21.289,12.3c-1.624.494-3.006.773-3.969,1-.971.179-1.525.276-1.525.276l-.182-1.038s.543-.1,1.5-.269c.94-.23,2.3-.493,3.885-.977a51.652,51.652,0,0,0,5.344-1.879,51.09,51.09,0,0,0,15.512-10.178c.3-.289.589-.558.86-.826s.506-.531.738-.775c.463-.494.881-.9,1.189-1.278C683.238,155.53,683.6,155.114,683.6,155.114Z" transform="translate(-652.752 -152.024)" fill="url(#linear-gradient)"/>
        </g>
        <g id="Group_175648" data-name="Group 175648" transform="translate(30.998 98.521)">
          <g id="Group_175647" data-name="Group 175647">
            <path id="Path_92786" data-name="Path 92786" d="M617.28,172.863a6.979,6.979,0,0,1-2.5.67,6.436,6.436,0,0,1-.9,0c-.325-.027-.685-.079-1.086-.15s-.837-.174-1.324-.3-1-.326-1.584-.537l-1.143,1.975c.407.154.813.3,1.222.417a7.776,7.776,0,0,0,1.259.253,6.631,6.631,0,0,0,4.541-1A6.076,6.076,0,0,0,617.28,172.863Z" transform="translate(-608.741 -164.957)" fill="url(#linear-gradient)"/>
            <path id="Path_92787" data-name="Path 92787" d="M618.184,171.279a8.518,8.518,0,0,0-1.715-5.991c-.226-.288-.481-.532-.728-.791s-.513-.493-.781-.729l-1.141,1.974c.421.353.784.7,1.123,1s.64.574.9.836.491.517.688.756a7.954,7.954,0,0,1,.529.654,9.208,9.208,0,0,1,1.125,2.291Z" transform="translate(-609.621 -163.435)" fill="url(#linear-gradient)"/>
            <path id="Path_92788" data-name="Path 92788" d="M624.233,180.561a7.277,7.277,0,0,0,2.532-.761,7.032,7.032,0,0,0,1.656-1.274,6.173,6.173,0,0,0,1.167-1.654c-1.324.912-2.417,2.039-7.66,1.373a10.085,10.085,0,0,0-6.361.7,5.469,5.469,0,0,0-1.4,1,3.031,3.031,0,0,0-.428.508,9.941,9.941,0,0,1,1.482-.366,9.129,9.129,0,0,1,1.4-.155,10.558,10.558,0,0,1,1.329.037c.432.046.867.077,1.293.136A20.8,20.8,0,0,0,624.233,180.561Z" transform="translate(-609.607 -165.706)" fill="url(#linear-gradient)"/>
            <path id="Path_92789" data-name="Path 92789" d="M625.094,169.957a19.611,19.611,0,0,1,4.155,2.512,8.383,8.383,0,0,1,1.688,2,8.031,8.031,0,0,0-.516-1.955,8.491,8.491,0,0,0-.933-1.743,7.029,7.029,0,0,0-1.615-1.722c-1.1-.877-2.377-1.338-3.538-2.1a6.117,6.117,0,0,1-2.225-2.346,6.278,6.278,0,0,1-.445-1.234,4.047,4.047,0,0,0-.139.642,5.46,5.46,0,0,0,.029,1.646,6.16,6.16,0,0,0,3.539,4.3Z" transform="translate(-610.948 -163.366)" fill="url(#linear-gradient)"/>
            <path id="Path_92790" data-name="Path 92790" d="M637.094,180.619a13.187,13.187,0,0,0-2.081.329,9.515,9.515,0,0,0-1.662.483,8.456,8.456,0,0,0-1.3.65,6.721,6.721,0,0,0-.973.692,5.631,5.631,0,0,0-1.129,1.306,3.157,3.157,0,0,0-.3.6,9.259,9.259,0,0,1,1.358-.715,13.95,13.95,0,0,1,1.326-.459,13.058,13.058,0,0,1,2.589-.434c.853-.1,1.7-.139,2.529-.216a11.417,11.417,0,0,0,2.417-.512,6.542,6.542,0,0,0,2.285-1.334,6.786,6.786,0,0,0,1.321-1.588,6.383,6.383,0,0,0,.754-1.9c-.265.311-.52.622-.829.926a5.8,5.8,0,0,1-1.176.847,8.489,8.489,0,0,1-1.95.775c-.414.114-.881.211-1.408.311A14.6,14.6,0,0,1,637.094,180.619Z" transform="translate(-612.364 -165.82)" fill="url(#linear-gradient)"/>
            <path id="Path_92791" data-name="Path 92791" d="M638.12,172.577c.566.16,1.082.274,1.548.394s.885.247,1.26.372a12.378,12.378,0,0,1,1.817.714,7,7,0,0,1,1.181.787c.329.252.613.519.92.789a7.76,7.76,0,0,0-.949-1.764,8.876,8.876,0,0,0-1.308-1.512,8.02,8.02,0,0,0-1.972-1.3,11.106,11.106,0,0,0-1.952-.65c-.662-.188-1.329-.346-1.983-.559a7.553,7.553,0,0,1-1.878-.991,4.516,4.516,0,0,1-.832-.8,6.536,6.536,0,0,1-.723-1.081,3.614,3.614,0,0,0,.016.651,5.269,5.269,0,0,0,.411,1.58,5.474,5.474,0,0,0,.541.963,5.373,5.373,0,0,0,.875.926,6.921,6.921,0,0,0,1.274.861A9.549,9.549,0,0,0,638.12,172.577Z" transform="translate(-612.986 -163.992)" fill="url(#linear-gradient)"/>
            <path id="Path_92792" data-name="Path 92792" d="M646.239,186.13a10.273,10.273,0,0,1,1.722-1.4,11.45,11.45,0,0,1,1.774-.907c1.192-.522,2.419-.8,3.586-1.233l-.394-2.245-.369.127a20.072,20.072,0,0,0-1.956.78,10.16,10.16,0,0,0-1.5.884,7.169,7.169,0,0,0-1.909,1.812,5.868,5.868,0,0,0-.8,1.539,3.255,3.255,0,0,0-.154.643Z" transform="translate(-615.239 -166.307)" fill="url(#linear-gradient)"/>
            <path id="Path_92793" data-name="Path 92793" d="M645.352,167.823a3.779,3.779,0,0,0,.165.637,5.033,5.033,0,0,0,.765,1.435,5.482,5.482,0,0,0,1.811,1.526,6.438,6.438,0,0,0,1.434.517,6.943,6.943,0,0,0,1.849.222h.346l-.4-2.246a13.425,13.425,0,0,1-3.046-.279,5.415,5.415,0,0,1-1.5-.62,5.642,5.642,0,0,1-1.424-1.192Z" transform="translate(-615.085 -164.138)" fill="url(#linear-gradient)"/>
          </g>
          <path id="Path_92794" data-name="Path 92794" d="M646.317,174.816l.182,1.038-.4.072c-.259.041-.639.125-1.13.179s-1.084.138-1.767.224-1.459.123-2.3.2a55.71,55.71,0,0,1-5.78.06c-.53-.012-1.066-.074-1.609-.106-.541-.053-1.1-.068-1.644-.146-1.1-.146-2.226-.253-3.332-.48a53.356,53.356,0,0,1-6.444-1.545c-.5-.169-.995-.34-1.476-.5s-.96-.315-1.4-.5c-.9-.362-1.763-.665-2.53-1.033-1.556-.673-2.8-1.343-3.68-1.792-.435-.229-.766-.436-1-.563l-.353-.2.527-.911.346.2c.227.126.551.323.979.555.861.436,2.079,1.094,3.6,1.753.747.357,1.6.656,2.477,1.014.438.184.9.334,1.377.494s.953.326,1.444.489a51.86,51.86,0,0,0,6.312,1.515c1.086.22,2.188.327,3.264.473.541.077,1.081.091,1.612.143.534.032,1.058.088,1.577.1a54.342,54.342,0,0,0,5.664-.062c.827-.069,1.586-.1,2.252-.188s1.253-.16,1.733-.22.852-.137,1.109-.179A3.1,3.1,0,0,0,646.317,174.816Z" transform="translate(-609.245 -164.308)" fill="url(#linear-gradient)"/>
        </g>
        <g id="Group_175650" data-name="Group 175650" transform="translate(5.971 74.824)">
          <g id="Group_175649" data-name="Group 175649">
            <path id="Path_92795" data-name="Path 92795" d="M586.294,143.145c-.383-.116-.754-.226-1.143-.385a5.091,5.091,0,0,1-1.222-.7,9.765,9.765,0,0,1-1.43-1.385,20.222,20.222,0,0,1-1.7-2.511l-2.145.775a12.5,12.5,0,0,0,1.473,2.111,6.977,6.977,0,0,0,2.134,1.576,6.652,6.652,0,0,0,1.033.385,7.909,7.909,0,0,0,.965.188A6.284,6.284,0,0,0,586.294,143.145Z" transform="translate(-578.501 -135.303)" fill="url(#linear-gradient)"/>
            <path id="Path_92796" data-name="Path 92796" d="M587.962,142.516a7.982,7.982,0,0,0,1.25-1.573,8.845,8.845,0,0,0,.446-.823,8.636,8.636,0,0,0,.408-.973,7.429,7.429,0,0,0,.41-2.323,10.228,10.228,0,0,0-.185-2.122l-2.147.78a26.8,26.8,0,0,1,.378,2.708,9.463,9.463,0,0,1,.036,1.855,7.925,7.925,0,0,1-.236,1.339C588.216,141.779,588.087,142.137,587.962,142.516Z" transform="translate(-580.113 -134.702)" fill="url(#linear-gradient)"/>
            <path id="Path_92797" data-name="Path 92797" d="M586.453,153.911a6.816,6.816,0,0,0,4.5,1.142,6.4,6.4,0,0,0,1.966-.527,6.479,6.479,0,0,1-2.621-.546,12.71,12.71,0,0,1-4.12-3.328,17.61,17.61,0,0,0-1.5-1.48,9.733,9.733,0,0,0-1.391-1.036c-.229-.141-.451-.261-.668-.37s-.417-.207-.619-.289a6.634,6.634,0,0,0-1.143-.367,5.49,5.49,0,0,0-1.73-.123,3.123,3.123,0,0,0-.658.118,9.27,9.27,0,0,1,2.543,1.45,13.28,13.28,0,0,1,1.9,1.815c.577.655,1.128,1.274,1.685,1.9a9.121,9.121,0,0,0,.885.877A9.841,9.841,0,0,0,586.453,153.911Z" transform="translate(-578.468 -136.827)" fill="url(#linear-gradient)"/>
            <path id="Path_92798" data-name="Path 92798" d="M593.978,145.807a22,22,0,0,1,1.572,4.6,9.911,9.911,0,0,1,0,2.624,7.742,7.742,0,0,0,.847-1.815,9.137,9.137,0,0,0,.428-1.956,8.136,8.136,0,0,0-.137-2.355,7.656,7.656,0,0,0-.282-1c-.121-.325-.239-.641-.36-.959-.241-.641-.533-1.26-.733-1.923a7.449,7.449,0,0,1-.332-2.09,6.014,6.014,0,0,1,.581-2.374,4.093,4.093,0,0,0-.515.4,5.222,5.222,0,0,0-1.013,1.27,5.407,5.407,0,0,0-.443,1.007,5.331,5.331,0,0,0-.16.6c-.036.206-.06.426-.077.656a7.143,7.143,0,0,0,.084,1.534A7.721,7.721,0,0,0,593.978,145.807Z" transform="translate(-581.045 -135.371)" fill="url(#linear-gradient)"/>
            <path id="Path_92799" data-name="Path 92799" d="M595.776,162.707c-.316-.222-.626-.42-.932-.6s-.58-.35-.865-.5a10.155,10.155,0,0,0-1.6-.682,7.474,7.474,0,0,0-2.6-.441,5.554,5.554,0,0,0-1.715.28,3.273,3.273,0,0,0-.612.265,9.544,9.544,0,0,1,2.818.817c.4.2.8.4,1.176.623s.738.462,1.088.706c.687.508,1.389.988,2.076,1.462a9.876,9.876,0,0,0,2.175,1.171,6.273,6.273,0,0,0,2.608.45,6.919,6.919,0,0,0,2.036-.37,6.643,6.643,0,0,0,1.32-.634,3.968,3.968,0,0,0,.475-.328,6.523,6.523,0,0,1-2.679.069,8.018,8.018,0,0,1-1.989-.662c-.389-.183-.814-.4-1.284-.663S596.323,163.079,595.776,162.707Z" transform="translate(-580.025 -139.17)" fill="url(#linear-gradient)"/>
            <path id="Path_92800" data-name="Path 92800" d="M602.427,156.181c.349.466.638.917.927,1.3s.522.747.732,1.086a13.733,13.733,0,0,1,.923,1.725,9.714,9.714,0,0,1,.6,2.55,5.2,5.2,0,0,0,.167-.538,8.979,8.979,0,0,0,.241-1.424,8.475,8.475,0,0,0-.031-2,8.853,8.853,0,0,0-.669-2.264,14.493,14.493,0,0,0-1.075-1.759,20.379,20.379,0,0,1-1.155-1.7,10.2,10.2,0,0,1-.476-.931,4.668,4.668,0,0,1-.328-1.03,5.8,5.8,0,0,1,.014-2.439,3.8,3.8,0,0,0-.414.513,5.2,5.2,0,0,0-.69,1.471,5.387,5.387,0,0,0-.141,2.359,6.957,6.957,0,0,0,.44,1.464,7.348,7.348,0,0,0,.387.8C602.039,155.631,602.22,155.9,602.427,156.181Z" transform="translate(-582.369 -137.138)" fill="url(#linear-gradient)"/>
            <path id="Path_92801" data-name="Path 92801" d="M599.426,172.44a10.948,10.948,0,0,1,2.221.038,10.5,10.5,0,0,1,1.943.445c1.247.362,2.364.945,3.537,1.36l1.143-1.975c-.119-.046-.239-.1-.361-.141a20.88,20.88,0,0,0-2-.659,10.966,10.966,0,0,0-1.715-.289,7.29,7.29,0,0,0-2.631.165,5.889,5.889,0,0,0-1.6.661,3.2,3.2,0,0,0-.537.4Z" transform="translate(-582.1 -141.021)" fill="url(#linear-gradient)"/>
            <path id="Path_92802" data-name="Path 92802" d="M611.161,157.18a4.085,4.085,0,0,0-.281.6,5.02,5.02,0,0,0-.344,1.6,5.492,5.492,0,0,0,.407,2.326,6.309,6.309,0,0,0,.766,1.322,7.284,7.284,0,0,0,1.276,1.357c.089.074.176.15.264.22l1.141-1.974a14.02,14.02,0,0,1-2.157-2.164,5.918,5.918,0,0,1-.749-1.443,5.463,5.463,0,0,1-.323-1.844Z" transform="translate(-584.024 -138.597)" fill="url(#linear-gradient)"/>
          </g>
          <path id="Path_92803" data-name="Path 92803" d="M607.408,163.235l-.527.911-.351-.2c-.226-.137-.572-.316-.981-.593s-.922-.589-1.5-.96-1.2-.84-1.89-1.329c-.351-.235-.69-.518-1.049-.8s-.732-.572-1.113-.869-.747-.639-1.133-.972-.791-.664-1.167-1.035c-.762-.734-1.572-1.466-2.323-2.288-.378-.4-.781-.794-1.144-1.228s-.737-.852-1.109-1.273a52.672,52.672,0,0,1-6.775-10.367c-.2-.371-.365-.743-.524-1.1s-.308-.687-.451-1c-.294-.62-.5-1.184-.685-1.641s-.324-.821-.42-1.065-.143-.38-.143-.38l.987-.363s.044.131.142.372.233.6.409,1.042.383,1.007.672,1.613c.142.307.289.636.444.977s.314.709.51,1.076a51.661,51.661,0,0,0,6.639,10.155q.543.624,1.082,1.251c.358.42.752.8,1.124,1.2.736.8,1.529,1.527,2.276,2.247.37.361.771.681,1.143,1.009s.74.655,1.112.952.737.578,1.088.853.685.55,1.029.787c.679.473,1.288.931,1.854,1.3s1.061.675,1.467.94.74.445.963.578S607.408,163.235,607.408,163.235Z" transform="translate(-579.448 -135.046)" fill="url(#linear-gradient)"/>
        </g>
        <g id="Group_175652" data-name="Group 175652" transform="translate(0 39.784)">
          <g id="Group_175651" data-name="Group 175651">
            <path id="Path_92804" data-name="Path 92804" d="M581.758,100.445a6.961,6.961,0,0,1-1.119-2.349,9.514,9.514,0,0,1-.2-1.983,18.222,18.222,0,0,1,.313-3.014l-2.145-.78a13.182,13.182,0,0,0-.231,2.562,6.714,6.714,0,0,0,1.789,4.3,6.255,6.255,0,0,0,1.593,1.264Z" transform="translate(-572.481 -92.318)" fill="url(#linear-gradient)"/>
            <path id="Path_92805" data-name="Path 92805" d="M582.539,101.059a7.854,7.854,0,0,0,1.974-.4,8.078,8.078,0,0,0,3.609-2.339,10,10,0,0,0,1.229-1.749l-2.147-.78c-.523.957-1.036,1.7-1.448,2.316a8.777,8.777,0,0,1-3.218,2.956Z" transform="translate(-573.203 -92.919)" fill="url(#linear-gradient)"/>
            <path id="Path_92806" data-name="Path 92806" d="M575.1,108.69a7.156,7.156,0,0,0,.508,1.31,7.321,7.321,0,0,0,.69,1.047,7.022,7.022,0,0,0,1.516,1.411,6.525,6.525,0,0,0,1.3.676,4.016,4.016,0,0,0,.543.184,6.5,6.5,0,0,1-1.653-2.1,7.893,7.893,0,0,1-.66-1.993,17.174,17.174,0,0,1-.359-3.2,18.3,18.3,0,0,0-.2-2.1,10.078,10.078,0,0,0-.4-1.693,8.2,8.2,0,0,0-1.2-2.348,5.7,5.7,0,0,0-1.242-1.209,3.1,3.1,0,0,0-.583-.33,9.219,9.219,0,0,1,1.012,2.75,12.541,12.541,0,0,1,.294,2.612A20.974,20.974,0,0,0,575.1,108.69Z" transform="translate(-571.612 -93.362)" fill="url(#linear-gradient)"/>
            <path id="Path_92807" data-name="Path 92807" d="M584.495,107.593c-.37,1.114-.62,2.021-.923,2.76a14.2,14.2,0,0,1-.824,1.772,9.807,9.807,0,0,1-1.692,2.007s.2-.06.536-.193a8.934,8.934,0,0,0,1.285-.653,8.37,8.37,0,0,0,1.581-1.224,7,7,0,0,0,.738-.853,7.6,7.6,0,0,0,.673-1.036c.637-1.241.921-2.575,1.438-3.858a7.7,7.7,0,0,1,1.084-1.815,6.112,6.112,0,0,1,1.976-1.443,3.937,3.937,0,0,0-.653-.023,5.389,5.389,0,0,0-1.594.32,5.1,5.1,0,0,0-1.973,1.3,6.77,6.77,0,0,0-.922,1.222,7.477,7.477,0,0,0-.73,1.717Z" transform="translate(-572.946 -94.174)" fill="url(#linear-gradient)"/>
            <path id="Path_92808" data-name="Path 92808" d="M576.521,121.487a16.551,16.551,0,0,0-.658-2,14.037,14.037,0,0,0-.787-1.552,7.419,7.419,0,0,0-1.713-2.011,6.086,6.086,0,0,0-1.481-.885,3.3,3.3,0,0,0-.636-.185,9.807,9.807,0,0,1,2.11,3.669c.154.409.279.828.392,1.236.231.828.391,1.654.644,2.46a10.986,10.986,0,0,0,.907,2.3,7.374,7.374,0,0,0,1.7,2.025,7.23,7.23,0,0,0,1.824,1.02,6.269,6.269,0,0,0,1.976.418C579.442,127.125,577.973,126.562,576.521,121.487Z" transform="translate(-571.246 -96.223)" fill="url(#linear-gradient)"/>
            <path id="Path_92809" data-name="Path 92809" d="M584.724,120.853a19.9,19.9,0,0,1-.671,4.813,8.489,8.489,0,0,1-1.177,2.34,7.887,7.887,0,0,0,1.592-1.246,8.2,8.2,0,0,0,1.234-1.546,7.1,7.1,0,0,0,.952-2.162,12.054,12.054,0,0,0,.314-2.035,18.566,18.566,0,0,1,.219-2.049,9.851,9.851,0,0,1,.223-1.021,6.347,6.347,0,0,1,.423-1,5.567,5.567,0,0,1,1.582-1.868,4.434,4.434,0,0,0-.647.133,5.111,5.111,0,0,0-1.484.681,5.479,5.479,0,0,0-1.62,1.72,5.62,5.62,0,0,0-.608,1.4A8.007,8.007,0,0,0,584.724,120.853Z" transform="translate(-573.261 -96.262)" fill="url(#linear-gradient)"/>
            <path id="Path_92810" data-name="Path 92810" d="M572.966,131.4a9.179,9.179,0,0,1,1.663,1.462,10.2,10.2,0,0,1,1.221,1.587c.175.274.335.55.484.828s.31.559.465.83c.293.567.583,1.112.872,1.659l2.145-.775c-.061-.117-.122-.229-.184-.344a12.905,12.905,0,0,0-1.119-1.789,10.416,10.416,0,0,0-1.1-1.336,8,8,0,0,0-1.109-.939,7.225,7.225,0,0,0-1.022-.625,5.556,5.556,0,0,0-1.643-.522,3.092,3.092,0,0,0-.668-.036Z" transform="translate(-571.544 -99.09)" fill="url(#linear-gradient)"/>
            <path id="Path_92811" data-name="Path 92811" d="M591.334,127.147a3.59,3.59,0,0,0-.594.266,5.294,5.294,0,0,0-1.295,1.007,5.625,5.625,0,0,0-.668.868,5.714,5.714,0,0,0-.508,1.171,6.481,6.481,0,0,0-.285,1.513,9.552,9.552,0,0,0,.115,1.856c.017.119.033.225.049.344l2.147-.78c-.069-.5-.136-1-.2-1.516-.028-.253-.06-.5-.065-.761a6.8,6.8,0,0,1,.025-.78,6.063,6.063,0,0,1,.33-1.577,6.236,6.236,0,0,1,.949-1.611Z" transform="translate(-574.145 -98.353)" fill="url(#linear-gradient)"/>
          </g>
          <path id="Path_92812" data-name="Path 92812" d="M584.458,129.342l-.987.363s-.184-.536-.5-1.472l-.26-.777c-.1-.283-.174-.592-.268-.926s-.2-.68-.3-1.051c-.053-.188-.1-.376-.16-.573s-.094-.4-.141-.6c-.094-.413-.2-.844-.3-1.288s-.2-.907-.277-1.386-.175-.969-.264-1.471-.139-1.021-.211-1.543a50.658,50.658,0,0,1,0-13.221c.072-.524.119-1.041.211-1.545s.179-.99.264-1.471.166-.94.277-1.381.2-.875.3-1.29c.047-.207.093-.408.141-.605s.107-.386.16-.569c.1-.376.206-.725.3-1.058s.179-.638.268-.926l.26-.775c.316-.936.5-1.467.5-1.467l.987.357s-.177.527-.488,1.443c-.076.225-.164.48-.255.757s-.17.582-.264.907-.188.668-.291,1.034c-.054.179-.1.367-.157.559s-.09.39-.137.592c-.094.4-.192.822-.292,1.26s-.192.89-.273,1.358-.169.948-.258,1.438-.133,1-.2,1.514a49.325,49.325,0,0,0,0,12.959c.071.51.116,1.019.2,1.508s.174.972.258,1.443.163.921.273,1.353.2.861.292,1.26c.047.2.091.4.137.6s.1.375.157.56q.155.542.291,1.03c.094.322.177.628.264.907s.179.532.255.761Z" transform="translate(-572.825 -92.663)" fill="url(#linear-gradient)"/>
        </g>
        <g id="Group_175654" data-name="Group 175654" transform="translate(6.129 10.171)">
          <g id="Group_175653" data-name="Group 175653">
            <path id="Path_92813" data-name="Path 92813" d="M605.25,64.732a6.619,6.619,0,0,1,.663-2.51,7.6,7.6,0,0,1,1.118-1.651,16,16,0,0,1,2.177-2.1L608.065,56.5c-.333.273-.668.55-.975.847a9.328,9.328,0,0,0-.846.967,7.675,7.675,0,0,0-.749,1.19,6.686,6.686,0,0,0-.429,1.179,6.779,6.779,0,0,0-.222,2.058,6.363,6.363,0,0,0,.227,1.443,4.864,4.864,0,0,0,.179.548Z" transform="translate(-583.195 -56.498)" fill="url(#linear-gradient)"/>
            <path id="Path_92814" data-name="Path 92814" d="M605.383,66.3a5.122,5.122,0,0,0,.473.315,9.981,9.981,0,0,0,1.3.642,8.226,8.226,0,0,0,1.92.536,7.516,7.516,0,0,0,1.129.086,6.883,6.883,0,0,0,1.234-.081,7.282,7.282,0,0,0,1.043-.244c.342-.092.684-.192,1.019-.31l-1.141-1.973c-1.047.346-1.878.652-2.6.835a13,13,0,0,1-1.826.357A9.673,9.673,0,0,1,605.383,66.3Z" transform="translate(-583.29 -58.018)" fill="url(#linear-gradient)"/>
            <path id="Path_92815" data-name="Path 92815" d="M594.247,66.732a6.639,6.639,0,0,0-.338,4.633,6.952,6.952,0,0,0,.541,1.344,4.329,4.329,0,0,0,.3.494,6.925,6.925,0,0,1,.089-2.675,7.98,7.98,0,0,1,.782-1.944c.2-.375.432-.8.728-1.246s.65-.917,1.052-1.443a18.863,18.863,0,0,0,1.2-1.725,13.262,13.262,0,0,0,.773-1.562,7.419,7.419,0,0,0,.585-2.574,5.779,5.779,0,0,0-.171-1.715,3.011,3.011,0,0,0-.231-.619,10.461,10.461,0,0,1-.982,2.758,12.452,12.452,0,0,1-.7,1.128c-.24.366-.5.718-.761,1.051s-.535.668-.8.988-.522.667-.775,1a10.049,10.049,0,0,0-1.287,2.107Z" transform="translate(-581.255 -56.706)" fill="url(#linear-gradient)"/>
            <path id="Path_92816" data-name="Path 92816" d="M601.888,72.872c-.487.325-.935.605-1.353.852s-.775.482-1.123.67a13.64,13.64,0,0,1-1.777.82,8.7,8.7,0,0,1-2.593.445,4.563,4.563,0,0,0,.534.2,8.505,8.505,0,0,0,1.417.34,8.2,8.2,0,0,0,4.286-.46,13.89,13.89,0,0,0,1.82-.975c.289-.179.574-.367.862-.55s.6-.343.908-.5a10.229,10.229,0,0,1,.953-.432,5.836,5.836,0,0,1,1.05-.258,5.337,5.337,0,0,1,2.437.16,3.5,3.5,0,0,0-.488-.443,5,5,0,0,0-1.434-.789,5.462,5.462,0,0,0-2.345-.27,5.974,5.974,0,0,0-1.486.353,7.3,7.3,0,0,0-1.668.837Z" transform="translate(-581.498 -59.124)" fill="url(#linear-gradient)"/>
            <path id="Path_92817" data-name="Path 92817" d="M587.669,77.444a10.076,10.076,0,0,0,1.153-6.293,5.532,5.532,0,0,0-.557-1.626,3.181,3.181,0,0,0-.368-.555,9.178,9.178,0,0,1-.074,1.524,8.762,8.762,0,0,1-.252,1.386,16.316,16.316,0,0,1-.919,2.457,21.058,21.058,0,0,0-1.864,4.645,7.3,7.3,0,0,0,0,2.641,6.909,6.909,0,0,0,.742,1.951,6.191,6.191,0,0,0,1.242,1.592C586.29,83.644,585.525,82.272,587.669,77.444Z" transform="translate(-579.7 -58.659)" fill="url(#linear-gradient)"/>
            <path id="Path_92818" data-name="Path 92818" d="M593.294,82.947a19.916,19.916,0,0,1-3.6,3.258,8.476,8.476,0,0,1-2.414,1.033,8.014,8.014,0,0,0,2.023.073,8.107,8.107,0,0,0,1.939-.39,7,7,0,0,0,2.119-1.05c1.15-.8,1.966-1.887,3.032-2.786a6.124,6.124,0,0,1,1.794-1.128,5.612,5.612,0,0,1,1.1-.33,6.485,6.485,0,0,1,1.309-.074,3.75,3.75,0,0,0-.572-.316,5.376,5.376,0,0,0-1.584-.443,6.163,6.163,0,0,0-5.146,2.153Z" transform="translate(-580.153 -60.703)" fill="url(#linear-gradient)"/>
            <path id="Path_92819" data-name="Path 92819" d="M579.148,82.757a9.517,9.517,0,0,1,.336,2.19,10,10,0,0,1-.085,2c-.043.32-.1.633-.165.948s-.111.626-.176.935c-.127.623-.279,1.228-.4,1.833l2.145.78c.016-.126.052-.249.075-.38a13.1,13.1,0,0,0,.3-2.086,12.143,12.143,0,0,0,.006-1.734,8.248,8.248,0,0,0-.628-2.567,5.593,5.593,0,0,0-.921-1.457,3.2,3.2,0,0,0-.487-.462Z" transform="translate(-578.659 -61.048)" fill="url(#linear-gradient)"/>
            <path id="Path_92820" data-name="Path 92820" d="M595.141,91.694a3.7,3.7,0,0,0-.632-.174,5.2,5.2,0,0,0-1.634-.063,5.043,5.043,0,0,0-2.216.805,6.1,6.1,0,0,0-1.183.977,9.916,9.916,0,0,0-1.115,1.493c-.057.106-.127.2-.179.3l2.147.78c.268-.427.538-.861.818-1.289.141-.211.286-.417.439-.623a6.579,6.579,0,0,1,.518-.58,6.369,6.369,0,0,1,1.272-1,6.145,6.145,0,0,1,1.765-.626Z" transform="translate(-580.309 -62.549)" fill="url(#linear-gradient)"/>
          </g>
          <path id="Path_92821" data-name="Path 92821" d="M585.11,88.986l-.987-.357s.043-.138.143-.381.24-.605.42-1.067.39-1.019.685-1.645q.215-.462.451-1c.157-.358.325-.723.524-1.1a52.527,52.527,0,0,1,6.775-10.367c.372-.43.738-.856,1.109-1.279s.766-.819,1.144-1.228c.751-.818,1.561-1.558,2.323-2.288.375-.374.787-.7,1.167-1.035s.754-.668,1.133-.967.752-.594,1.113-.875.7-.56,1.049-.8c.694-.485,1.316-.952,1.89-1.327l1.5-.963c.408-.271.755-.455.981-.588l.351-.2.527.907-.343.2c-.223.132-.559.307-.963.574s-.9.578-1.467.944-1.175.828-1.854,1.3c-.344.234-.677.513-1.029.784s-.714.564-1.088.856-.733.624-1.112.949-.773.649-1.143,1.016c-.747.719-1.54,1.438-2.276,2.242-.372.4-.766.78-1.124,1.2s-.72.837-1.082,1.256a51.53,51.53,0,0,0-6.639,10.158c-.2.365-.357.727-.51,1.071s-.3.672-.444.983c-.289.606-.491,1.156-.672,1.606s-.315.805-.409,1.044S585.11,88.986,585.11,88.986Z" transform="translate(-579.606 -57.37)" fill="url(#linear-gradient)"/>
        </g>
        <g id="Group_175656" data-name="Group 175656" transform="translate(30.998)">
          <g id="Group_175655" data-name="Group 175655">
            <path id="Path_92822" data-name="Path 92822" d="M645.795,52.865a6.919,6.919,0,0,1,2.12-1.494,8.085,8.085,0,0,1,.847-.311,9.854,9.854,0,0,1,1.067-.23,15.564,15.564,0,0,1,3.021-.211l.394-2.246c-.437-.009-.865-.009-1.294.018a10.252,10.252,0,0,0-1.269.2,6.455,6.455,0,0,0-2.424,1.057,6.812,6.812,0,0,0-1.494,1.442,5.987,5.987,0,0,0-.968,1.775Z" transform="translate(-615.162 -44.918)" fill="url(#linear-gradient)"/>
            <path id="Path_92823" data-name="Path 92823" d="M645.792,53.882a8.192,8.192,0,0,0,.741,1.881,8.533,8.533,0,0,0,1.129,1.641,8.2,8.2,0,0,0,1.8,1.522,7.068,7.068,0,0,0,.956.478c.321.155.651.3.98.425l.4-2.246c-1.024-.411-1.859-.705-2.533-1.03-.34-.16-.64-.326-.908-.476a6.693,6.693,0,0,1-.722-.427,9.437,9.437,0,0,1-1.843-1.768Z" transform="translate(-615.161 -45.874)" fill="url(#linear-gradient)"/>
            <path id="Path_92824" data-name="Path 92824" d="M635.219,47.673a6.745,6.745,0,0,0-3.242,3.347,6.3,6.3,0,0,0-.537,1.956,6.917,6.917,0,0,1,1.787-2,10.412,10.412,0,0,1,1.852-.99,21.252,21.252,0,0,1,3.093-.912,9.958,9.958,0,0,0,5.729-2.837,5.363,5.363,0,0,0,.968-1.415,3.054,3.054,0,0,0,.226-.625,9.511,9.511,0,0,1-1.264.85,8.9,8.9,0,0,1-1.262.632,16.865,16.865,0,0,1-2.517.732c-.419.093-.836.169-1.253.248s-.828.142-1.233.25a12.774,12.774,0,0,0-2.347.764Z" transform="translate(-612.674 -44.195)" fill="url(#linear-gradient)"/>
            <path id="Path_92825" data-name="Path 92825" d="M638.489,57.14c-1.161-.107-2.106-.28-2.875-.422a9.876,9.876,0,0,1-1.89-.518,8.8,8.8,0,0,1-2.268-1.31,7.907,7.907,0,0,0,1.148,1.658,8.028,8.028,0,0,0,3.575,2.389,9.593,9.593,0,0,0,2.018.435c.333.034.675.1,1.015.151s.681.119,1.019.188a6.261,6.261,0,0,1,1.982.766,5.862,5.862,0,0,1,.924.682,6.3,6.3,0,0,1,.844,1.007,4.079,4.079,0,0,0-.092-.655,5.493,5.493,0,0,0-.593-1.531,6.219,6.219,0,0,0-4.807-2.84Z" transform="translate(-612.677 -46.048)" fill="url(#linear-gradient)"/>
            <path id="Path_92826" data-name="Path 92826" d="M623.344,51.306a16.714,16.714,0,0,0,1.849-1.012,9.825,9.825,0,0,0,1.4-1.033,8.251,8.251,0,0,0,1.685-2.03,5.617,5.617,0,0,0,.618-1.617,3.076,3.076,0,0,0,.074-.664,9.347,9.347,0,0,1-2.127,2.011,12.124,12.124,0,0,1-2.286,1.292l-2.308,1.072a10.117,10.117,0,0,0-1.091.592,10.412,10.412,0,0,0-1.01.714,6.536,6.536,0,0,0-1.7,2.035,6.467,6.467,0,0,0-.693,1.946,6.372,6.372,0,0,0-.064,2.04c.143-.385.278-.761.465-1.156a5.238,5.238,0,0,1,.814-1.2,12.573,12.573,0,0,1,4.374-2.99Z" transform="translate(-610.284 -44.326)" fill="url(#linear-gradient)"/>
            <path id="Path_92827" data-name="Path 92827" d="M625.1,59.749a22.02,22.02,0,0,1-4.846.183,7.838,7.838,0,0,1-1.378-.322c-.394-.132-.754-.288-1.135-.434a7.755,7.755,0,0,0,1.494,1.334,9.072,9.072,0,0,0,1.748.969,8.29,8.29,0,0,0,2.292.55,7.468,7.468,0,0,0,1.034.015c.347-.024.684-.046,1.023-.072.68-.041,1.361-.14,2.049-.144a7.7,7.7,0,0,1,2.1.281,6.044,6.044,0,0,1,2.1,1.251,3.54,3.54,0,0,0-.235-.606,5.339,5.339,0,0,0-.925-1.346,5.086,5.086,0,0,0-1.973-1.3,7.43,7.43,0,0,0-1.489-.366,8.023,8.023,0,0,0-1.859.007Z" transform="translate(-610.3 -46.791)" fill="url(#linear-gradient)"/>
            <path id="Path_92828" data-name="Path 92828" d="M614.178,49.523a10.079,10.079,0,0,1-1.138,1.912,13.386,13.386,0,0,1-1.353,1.466,16.257,16.257,0,0,1-1.476,1.224c-.5.375-.986.775-1.471,1.165l1.143,1.974c.1-.079.2-.16.3-.245.3-.246.58-.484.838-.728.263-.227.506-.457.728-.682a9.983,9.983,0,0,0,1.109-1.343,7.464,7.464,0,0,0,1.173-2.36,5.628,5.628,0,0,0,.221-1.721,3.1,3.1,0,0,0-.074-.662Z" transform="translate(-608.741 -45.118)" fill="url(#linear-gradient)"/>
            <path id="Path_92829" data-name="Path 92829" d="M621.286,67.036a4.1,4.1,0,0,0-.374-.546,5.1,5.1,0,0,0-1.205-1.081,5.467,5.467,0,0,0-2.225-.817,6.685,6.685,0,0,0-1.524.009c-.282.028-.575.074-.879.135-.3.081-.609.174-.934.293-.11.041-.218.079-.326.118l1.141,1.973c.485-.149.951-.344,1.446-.475a10.032,10.032,0,0,1,1.513-.31,5.309,5.309,0,0,1,1.62.065A5.712,5.712,0,0,1,621.286,67.036Z" transform="translate(-609.621 -47.722)" fill="url(#linear-gradient)"/>
          </g>
          <path id="Path_92830" data-name="Path 92830" d="M612.178,60.985l-.527-.907s.122-.076.353-.2.561-.334,1-.569c.882-.448,2.124-1.114,3.68-1.787.766-.367,1.631-.678,2.53-1.039.445-.188.921-.339,1.4-.5s.976-.329,1.476-.5a53.51,53.51,0,0,1,6.444-1.553c1.1-.22,2.229-.331,3.332-.477.549-.077,1.1-.1,1.644-.142s1.079-.094,1.609-.108a55.2,55.2,0,0,1,5.78.062c.842.07,1.619.1,2.3.193s1.275.165,1.767.225.871.136,1.13.178.4.069.4.069l-.182,1.04-.392-.069c-.256-.04-.628-.122-1.109-.174s-1.064-.136-1.733-.22-1.425-.123-2.252-.194a56,56,0,0,0-5.664-.061c-.519.014-1.043.077-1.577.109s-1.071.065-1.612.139c-1.076.146-2.178.251-3.264.471a53.12,53.12,0,0,0-6.312,1.514c-.491.169-.973.329-1.444.494s-.939.311-1.377.5c-.88.356-1.73.651-2.477,1.013-1.523.66-2.741,1.316-3.6,1.755-.428.225-.752.422-.979.549S612.178,60.985,612.178,60.985Z" transform="translate(-609.245 -45.748)" fill="url(#linear-gradient)"/>
        </g>
        <g id="Group_175658" data-name="Group 175658" transform="translate(67.239 2.53)">
          <g id="Group_175657" data-name="Group 175657">
            <path id="Path_92831" data-name="Path 92831" d="M684.92,69.939c1.565-.033,3.052-.341,6.849,2.813l1.748-1.466a11.9,11.9,0,0,0-2.1-1.481,7.278,7.278,0,0,0-2.536-.751,6.989,6.989,0,0,0-2.082.148,6.235,6.235,0,0,0-1.879.737Z" transform="translate(-658.182 -51.028)" fill="url(#linear-gradient)"/>
            <path id="Path_92832" data-name="Path 92832" d="M684.692,70.188a7.968,7.968,0,0,0-.644,1.917,8.264,8.264,0,0,0-.18,1.969,6.958,6.958,0,0,0,.4,2.327,11.646,11.646,0,0,0,.9,1.946l1.749-1.472a18.233,18.233,0,0,1-1.938-4.16,8.645,8.645,0,0,1-.287-2.527Z" transform="translate(-657.999 -51.229)" fill="url(#linear-gradient)"/>
            <path id="Path_92833" data-name="Path 92833" d="M679.575,59.657a6.7,6.7,0,0,0-4.631.478,6.175,6.175,0,0,0-1.668,1.155,6.852,6.852,0,0,1,2.653-.389,10.216,10.216,0,0,1,2.055.434,11.815,11.815,0,0,1,1.343.522c.488.216,1.034.451,1.61.771a13.139,13.139,0,0,0,1.913.89,12.318,12.318,0,0,0,1.66.5,7.646,7.646,0,0,0,1.439.174,7,7,0,0,0,1.2-.042,5.572,5.572,0,0,0,1.659-.47,3.08,3.08,0,0,0,.58-.332,11.276,11.276,0,0,1-5.287-1.557c-.766-.394-1.485-.835-2.225-1.22a13.3,13.3,0,0,0-2.3-.914Z" transform="translate(-656.164 -49.369)" fill="url(#linear-gradient)"/>
            <path id="Path_92834" data-name="Path 92834" d="M677.136,67.987c-.392-.439-.766-.806-1.081-1.172s-.589-.71-.842-1.009a9.625,9.625,0,0,1-1.119-1.6,8.942,8.942,0,0,1-.895-2.461,7.9,7.9,0,0,0-.184,2.006,8.069,8.069,0,0,0,1.2,4.129,9.491,9.491,0,0,0,1.266,1.622c.453.518.912,1.031,1.34,1.569a5.792,5.792,0,0,1,1.285,4.287,3.359,3.359,0,0,0,.347-.554,5.164,5.164,0,0,0,.527-1.548,4.9,4.9,0,0,0,.079-1.1,5.622,5.622,0,0,0-.217-1.262,6.321,6.321,0,0,0-.594-1.415,9.809,9.809,0,0,0-1.112-1.492Z" transform="translate(-656.119 -49.765)" fill="url(#linear-gradient)"/>
            <path id="Path_92835" data-name="Path 92835" d="M667.76,55.032a15.293,15.293,0,0,0,2.069.408,9.9,9.9,0,0,0,1.734.114,8.188,8.188,0,0,0,2.594-.476,5.687,5.687,0,0,0,1.515-.84,3.229,3.229,0,0,0,.484-.465,9.29,9.29,0,0,1-2.924.178,12.285,12.285,0,0,1-2.584-.478c-.833-.209-1.646-.452-2.452-.664a11.256,11.256,0,0,0-2.45-.352c-.249,0-.492,0-.723.014a5.817,5.817,0,0,0-.683.1,7.485,7.485,0,0,0-1.2.353A6.648,6.648,0,0,0,660,55.5a6.454,6.454,0,0,1,2.49-.989,9.4,9.4,0,0,1,2.1-.065c.428.042.9.107,1.429.2.263.046.539.1.834.155S667.442,54.943,667.76,55.032Z" transform="translate(-653.864 -48.156)" fill="url(#linear-gradient)"/>
            <path id="Path_92836" data-name="Path 92836" d="M665.247,61.373c-.241-.16-.467-.329-.687-.475s-.433-.285-.628-.422c-.4-.272-.747-.532-1.055-.78a11.5,11.5,0,0,1-1.462-1.3,10.145,10.145,0,0,1-1.441-2.191,7.9,7.9,0,0,0,.292,1.984,9.516,9.516,0,0,0,.715,1.86,7.25,7.25,0,0,0,.6.964c.118.155.245.311.378.462s.273.317.424.469a10.867,10.867,0,0,0,1.61,1.277c.555.4,1.127.78,1.665,1.209A7.522,7.522,0,0,1,667.08,66a5.849,5.849,0,0,1,.814,2.308,3.777,3.777,0,0,0,.212-.622,5.33,5.33,0,0,0,.154-1.62,5.12,5.12,0,0,0-.675-2.267,7.186,7.186,0,0,0-.905-1.241,8.946,8.946,0,0,0-1.433-1.185Z" transform="translate(-653.86 -48.806)" fill="url(#linear-gradient)"/>
            <path id="Path_92837" data-name="Path 92837" d="M662.6,47.255a9.587,9.587,0,0,1-2.1.733,13.531,13.531,0,0,1-1.981.253,16.561,16.561,0,0,1-1.913-.014c-.629-.028-1.26-.036-1.876-.046l-.394,2.246h.39c.385.01.757,0,1.1-.018s.683-.023,1-.052a10.065,10.065,0,0,0,1.714-.315,7.643,7.643,0,0,0,2.416-1.053,5.885,5.885,0,0,0,1.277-1.179A3.123,3.123,0,0,0,662.6,47.255Z" transform="translate(-652.881 -47.255)" fill="url(#linear-gradient)"/>
            <path id="Path_92838" data-name="Path 92838" d="M657.478,64.6a3.6,3.6,0,0,0,.063-.651,5.286,5.286,0,0,0-.227-1.6,5.373,5.373,0,0,0-1.18-2.054,7.171,7.171,0,0,0-1.172-.981,7.348,7.348,0,0,0-.765-.453c-.277-.129-.577-.257-.9-.375-.111-.041-.216-.079-.324-.121l-.4,2.246c.47.193.95.348,1.415.56a10.138,10.138,0,0,1,1.353.742,4.846,4.846,0,0,1,1.2,1.09,5.876,5.876,0,0,1,.937,1.6Z" transform="translate(-652.578 -49.179)" fill="url(#linear-gradient)"/>
          </g>
          <path id="Path_92839" data-name="Path 92839" d="M653.583,55.131l.182-1.04s.555.106,1.525.284c.963.229,2.345.5,3.969,1a51.577,51.577,0,0,1,5.451,1.919,52.161,52.161,0,0,1,15.838,10.385c.3.292.6.569.873.842s.518.546.757.794c.472.5.9.921,1.214,1.3.647.747,1.015,1.176,1.015,1.176l-.806.675-.995-1.151c-.308-.372-.726-.785-1.189-1.279-.232-.239-.479-.5-.738-.775s-.561-.537-.86-.824a50.432,50.432,0,0,0-9.7-7.288,49,49,0,0,0-11.155-4.765c-1.586-.485-2.945-.751-3.885-.976Z" transform="translate(-652.752 -48.44)" fill="url(#linear-gradient)"/>
        </g>
        <g id="Group_175660" data-name="Group 175660" transform="translate(94.407 22.787)">
          <g id="Group_175659" data-name="Group 175659">
            <path id="Path_92840" data-name="Path 92840" d="M704.394,107.784c.318.237.63.468.942.751a5.164,5.164,0,0,1,.464.474,4.992,4.992,0,0,1,.439.6,9.616,9.616,0,0,1,.871,1.789,21.363,21.363,0,0,1,.735,2.937h2.282a13.166,13.166,0,0,0-.666-2.481,6.881,6.881,0,0,0-1.467-2.2,6.365,6.365,0,0,0-1.669-1.228,6.2,6.2,0,0,0-1.931-.642Z" transform="translate(-688.724 -78)" fill="url(#linear-gradient)"/>
            <path id="Path_92841" data-name="Path 92841" d="M703.3,107.788a7.937,7.937,0,0,0-1.713,1.052,9.962,9.962,0,0,0-1.427,1.392,7.577,7.577,0,0,0-1.178,2.04,10,10,0,0,0-.551,2.068h2.281a23.626,23.626,0,0,1,.576-2.673,9.444,9.444,0,0,1,.6-1.758,6.261,6.261,0,0,1,.346-.644c.11-.192.225-.366.341-.536C702.8,108.4,703.05,108.1,703.3,107.788Z" transform="translate(-687.69 -78.001)" fill="url(#linear-gradient)"/>
            <path id="Path_92842" data-name="Path 92842" d="M706.784,96.611a7.789,7.789,0,0,0-.921-1.057A6.9,6.9,0,0,0,702.946,94a6.521,6.521,0,0,0-1.449-.2,4.179,4.179,0,0,0-.574.018,6.507,6.507,0,0,1,2.273,1.41,8.965,8.965,0,0,1,.639.694,9.124,9.124,0,0,1,.658.956c.226.367.464.78.713,1.252s.465,1.027.719,1.637a10.33,10.33,0,0,0,3.781,5.16,5.518,5.518,0,0,0,1.584.71,3.034,3.034,0,0,0,.661.113,9.07,9.07,0,0,1-1.9-2.237,14.463,14.463,0,0,1-1.162-2.355c-.293-.805-.618-1.594-.928-2.369a12.116,12.116,0,0,0-.52-1.128,10.274,10.274,0,0,0-.657-1.05Z" transform="translate(-688.123 -75.577)" fill="url(#linear-gradient)"/>
            <path id="Path_92843" data-name="Path 92843" d="M698.8,101.16c-.037-.581-.03-1.119-.055-1.6s-.026-.912-.016-1.306.041-.752.066-1.072a8.25,8.25,0,0,1,.107-.875,9.768,9.768,0,0,1,.906-2.466,5.086,5.086,0,0,0-.437.361,9.579,9.579,0,0,0-.99,1.058,8.5,8.5,0,0,0-1.066,1.687,8.141,8.141,0,0,0-.4,1.054,6.885,6.885,0,0,0-.279,1.2,7.411,7.411,0,0,0-.068,1.031c0,.338-.014.687,0,1.023a20.132,20.132,0,0,1,.023,2.06,6.847,6.847,0,0,1-.4,2.076,6.064,6.064,0,0,1-1.359,2.026,3.511,3.511,0,0,0,.623-.2,5.1,5.1,0,0,0,1.386-.842,5.327,5.327,0,0,0,1.421-1.893,7,7,0,0,0,.437-1.462,6.467,6.467,0,0,0,.117-.885C698.819,101.831,698.819,101.5,698.8,101.16Z" transform="translate(-687.066 -75.585)" fill="url(#linear-gradient)"/>
            <path id="Path_92844" data-name="Path 92844" d="M700.553,85.61c.229.3.446.6.663.881s.43.531.646.768a13.856,13.856,0,0,0,1.271,1.189,7.378,7.378,0,0,0,2.3,1.3,5.816,5.816,0,0,0,1.692.331,2.97,2.97,0,0,0,.665-.043,10.452,10.452,0,0,1-2.364-1.734,10.626,10.626,0,0,1-.881-1c-.284-.335-.543-.683-.793-1.031s-.484-.705-.717-1.055-.489-.692-.736-1.031a10.1,10.1,0,0,0-1.643-1.847,6.849,6.849,0,0,0-2.294-1.315,7.071,7.071,0,0,0-2.054-.335,6.252,6.252,0,0,0-2,.281,7.117,7.117,0,0,1,2.533.852,8.236,8.236,0,0,1,1.64,1.306,13.352,13.352,0,0,1,.985,1.058C699.806,84.6,700.163,85.074,700.553,85.61Z" transform="translate(-686.977 -73.306)" fill="url(#linear-gradient)"/>
            <path id="Path_92845" data-name="Path 92845" d="M694.568,88.436c-.175-.56-.317-1.071-.433-1.543s-.24-.879-.319-1.269a12.953,12.953,0,0,1-.277-1.935,8.515,8.515,0,0,1,.314-2.607A7.859,7.859,0,0,0,692.78,82.8a8.373,8.373,0,0,0-.637,1.879A7.658,7.658,0,0,0,692,87.034a13.818,13.818,0,0,0,.407,2.016c.089.331.2.654.279.987s.158.672.22,1.011a9.213,9.213,0,0,1,.137,1.035,5.973,5.973,0,0,1-.053,1.079,5.435,5.435,0,0,1-.852,2.285,3.62,3.62,0,0,0,.559-.338,5.094,5.094,0,0,0,1.171-1.147A5.517,5.517,0,0,0,694.8,91.8a5.68,5.68,0,0,0,.088-1.527,8.536,8.536,0,0,0-.1-.88c-.026-.155-.054-.315-.087-.475S694.616,88.6,694.568,88.436Z" transform="translate(-686.57 -73.373)" fill="url(#linear-gradient)"/>
            <path id="Path_92846" data-name="Path 92846" d="M701.554,76.112a10.129,10.129,0,0,1-2.064-.794,9.6,9.6,0,0,1-1.682-1.076c-.5-.4-1-.8-1.467-1.225s-.9-.87-1.389-1.259L693.2,73.224l.3.254a13.206,13.206,0,0,0,3.154,2.171,8.019,8.019,0,0,0,2.542.733,5.719,5.719,0,0,0,1.717-.069A2.864,2.864,0,0,0,701.554,76.112Z" transform="translate(-686.785 -71.758)" fill="url(#linear-gradient)"/>
            <path id="Path_92847" data-name="Path 92847" d="M686.616,85.971a3.488,3.488,0,0,0,.466-.462A5.149,5.149,0,0,0,688.36,81.8a7.323,7.323,0,0,0-1-3.228c-.06-.1-.118-.2-.176-.3l-1.749,1.472c.259.426.482.892.713,1.343a7.768,7.768,0,0,1,.574,1.434,6.216,6.216,0,0,1,.222,1.608,5.559,5.559,0,0,1-.328,1.842Z" transform="translate(-685.44 -72.888)" fill="url(#linear-gradient)"/>
          </g>
          <path id="Path_92848" data-name="Path 92848" d="M689.892,76.174l.806-.675s.094.1.265.3.408.513.71.9.692.847,1.088,1.411.856,1.187,1.328,1.887A53.07,53.07,0,0,1,699.7,91.05l.543,1.6c.087.263.183.527.265.794s.151.54.229.805q.227.8.448,1.592c.122.526.244,1.052.362,1.57.262,1.023.4,2.04.583,2.994.1.475.142.944.2,1.4s.112.89.167,1.31c.158,1.683.268,3.094.27,4.081.026.985.04,1.549.04,1.549h-1.05s-.017-.55-.041-1.518c0-.967-.11-2.35-.265-4q-.082-.62-.165-1.283c-.055-.443-.1-.9-.2-1.367-.177-.935-.313-1.928-.57-2.937-.117-.5-.234-1.017-.354-1.536-.146-.513-.294-1.034-.44-1.557-.076-.257-.15-.527-.227-.789s-.174-.518-.26-.78c-.176-.522-.352-1.044-.528-1.571a52.474,52.474,0,0,0-5.5-10.819c-.463-.685-.916-1.3-1.3-1.848s-.774-1-1.066-1.385-.534-.679-.694-.88S689.892,76.174,689.892,76.174Z" transform="translate(-686.211 -72.406)" fill="url(#linear-gradient)"/>
        </g>
      </g>
    </g>
    <g id="Group">
      <path id="Path_4273" data-name="Path 4273" d="M7.47-6.282V0H6.21V-4.086L4.527,0H3.573L1.881-4.086V0H.621V-6.282H2.052l2,4.671,2-4.671ZM10.926.081a2.626,2.626,0,0,1-1.3-.32,2.3,2.3,0,0,1-.9-.9A2.71,2.71,0,0,1,8.4-2.493a2.653,2.653,0,0,1,.338-1.35,2.345,2.345,0,0,1,.922-.9,2.677,2.677,0,0,1,1.305-.319,2.677,2.677,0,0,1,1.305.319,2.345,2.345,0,0,1,.922.9,2.653,2.653,0,0,1,.338,1.35,2.6,2.6,0,0,1-.347,1.35,2.4,2.4,0,0,1-.936.9A2.722,2.722,0,0,1,10.926.081Zm0-1.1a1.311,1.311,0,0,0,.644-.166,1.21,1.21,0,0,0,.481-.5,1.683,1.683,0,0,0,.18-.81,1.5,1.5,0,0,0-.373-1.094,1.228,1.228,0,0,0-.914-.382,1.2,1.2,0,0,0-.9.382,1.524,1.524,0,0,0-.365,1.094A1.548,1.548,0,0,0,10.03-1.4,1.171,1.171,0,0,0,10.926-1.017Zm5.436,1.1a2.629,2.629,0,0,1-1.1-.221,1.94,1.94,0,0,1-.769-.6,1.517,1.517,0,0,1-.311-.837h1.269a.691.691,0,0,0,.284.477.986.986,0,0,0,.616.189.957.957,0,0,0,.563-.144.436.436,0,0,0,.2-.369.389.389,0,0,0-.248-.365,4.657,4.657,0,0,0-.787-.265,6.674,6.674,0,0,1-.914-.279,1.586,1.586,0,0,1-.612-.441,1.184,1.184,0,0,1-.256-.8,1.292,1.292,0,0,1,.238-.756,1.6,1.6,0,0,1,.684-.54,2.564,2.564,0,0,1,1.049-.2,2.141,2.141,0,0,1,1.422.445,1.651,1.651,0,0,1,.585,1.2H17.073a.653.653,0,0,0-.248-.473.92.92,0,0,0-.589-.175.929.929,0,0,0-.527.126.4.4,0,0,0-.184.351.412.412,0,0,0,.252.382,3.913,3.913,0,0,0,.783.266,6.647,6.647,0,0,1,.891.279,1.574,1.574,0,0,1,.607.445,1.223,1.223,0,0,1,.266.8,1.321,1.321,0,0,1-.239.774,1.571,1.571,0,0,1-.684.536A2.591,2.591,0,0,1,16.362.081Zm4.464-4.032v2.412a.477.477,0,0,0,.122.365.6.6,0,0,0,.41.112h.585V0H21.15a1.388,1.388,0,0,1-1.593-1.548v-2.4h-.594V-4.986h.594V-6.219h1.269v1.233h1.116v1.035Z" transform="translate(617.632 84.547)" fill="#1d1d1d"/>
      <path id="Path_4272" data-name="Path 4272" d="M1.881-6.282V0H.621V-6.282Zm4,1.224a1.922,1.922,0,0,1,1.44.563,2.154,2.154,0,0,1,.549,1.571V0H6.615V-2.754a1.293,1.293,0,0,0-.3-.914,1.052,1.052,0,0,0-.81-.319,1.078,1.078,0,0,0-.824.319,1.281,1.281,0,0,0-.3.914V0H3.123V-4.986h1.26v.621a1.741,1.741,0,0,1,.643-.509A1.991,1.991,0,0,1,5.886-5.058Zm5.949,0a1.922,1.922,0,0,1,1.44.563,2.154,2.154,0,0,1,.549,1.571V0h-1.26V-2.754a1.293,1.293,0,0,0-.3-.914,1.052,1.052,0,0,0-.81-.319,1.078,1.078,0,0,0-.824.319,1.281,1.281,0,0,0-.3.914V0H9.072V-4.986h1.26v.621a1.741,1.741,0,0,1,.643-.509A1.991,1.991,0,0,1,11.835-5.058Zm5.4,5.139a2.626,2.626,0,0,1-1.3-.32,2.3,2.3,0,0,1-.9-.9,2.71,2.71,0,0,1-.329-1.35,2.653,2.653,0,0,1,.338-1.35,2.345,2.345,0,0,1,.922-.9,2.677,2.677,0,0,1,1.305-.319,2.677,2.677,0,0,1,1.305.319,2.345,2.345,0,0,1,.923.9,2.653,2.653,0,0,1,.337,1.35,2.6,2.6,0,0,1-.347,1.35,2.4,2.4,0,0,1-.936.9A2.722,2.722,0,0,1,17.235.081Zm0-1.1a1.311,1.311,0,0,0,.643-.166,1.21,1.21,0,0,0,.482-.5,1.683,1.683,0,0,0,.18-.81,1.5,1.5,0,0,0-.373-1.094,1.228,1.228,0,0,0-.913-.382,1.2,1.2,0,0,0-.9.382,1.524,1.524,0,0,0-.365,1.094A1.548,1.548,0,0,0,16.34-1.4,1.171,1.171,0,0,0,17.235-1.017Zm5.607-.144L24.1-4.986h1.341L23.6,0h-1.53L20.232-4.986h1.35Zm2.988-1.35a2.886,2.886,0,0,1,.3-1.341,2.21,2.21,0,0,1,.819-.9,2.18,2.18,0,0,1,1.156-.315,2.032,2.032,0,0,1,.977.225,1.981,1.981,0,0,1,.67.567v-.711h1.269V0H29.754V-.729a1.874,1.874,0,0,1-.67.58,2.051,2.051,0,0,1-.986.23A2.119,2.119,0,0,1,26.95-.243a2.268,2.268,0,0,1-.819-.913A2.934,2.934,0,0,1,25.83-2.511Zm3.924.018a1.616,1.616,0,0,0-.18-.788,1.269,1.269,0,0,0-.486-.5,1.3,1.3,0,0,0-.657-.176,1.276,1.276,0,0,0-.648.171,1.288,1.288,0,0,0-.482.5,1.565,1.565,0,0,0-.184.778,1.616,1.616,0,0,0,.184.788,1.328,1.328,0,0,0,.486.517,1.235,1.235,0,0,0,.644.18,1.3,1.3,0,0,0,.657-.176,1.269,1.269,0,0,0,.486-.5A1.616,1.616,0,0,0,29.754-2.493Zm3.969-1.458v2.412a.477.477,0,0,0,.122.365.6.6,0,0,0,.41.112h.585V0h-.792a1.388,1.388,0,0,1-1.593-1.548v-2.4H31.86V-4.986h.594V-6.219h1.269v1.233h1.116v1.035ZM36.387-5.58a.768.768,0,0,1-.553-.212.7.7,0,0,1-.221-.527.7.7,0,0,1,.221-.526.768.768,0,0,1,.553-.212.768.768,0,0,1,.554.212.7.7,0,0,1,.221.526.7.7,0,0,1-.221.527A.768.768,0,0,1,36.387-5.58Zm.621.594V0h-1.26V-4.986Zm3.321,3.825,1.26-3.825H42.93L41.085,0h-1.53L37.719-4.986h1.35ZM48.276-2.6a2.974,2.974,0,0,1-.036.486H44.595a1.24,1.24,0,0,0,.378.846,1.166,1.166,0,0,0,.819.306,1.029,1.029,0,0,0,1-.6H48.15a2.271,2.271,0,0,1-.828,1.184,2.417,2.417,0,0,1-1.5.464,2.6,2.6,0,0,1-1.292-.32,2.249,2.249,0,0,1-.891-.9,2.771,2.771,0,0,1-.319-1.35,2.823,2.823,0,0,1,.315-1.359,2.2,2.2,0,0,1,.882-.9,2.642,2.642,0,0,1,1.305-.315,2.621,2.621,0,0,1,1.273.306,2.154,2.154,0,0,1,.873.869A2.628,2.628,0,0,1,48.276-2.6Zm-1.305-.36a1,1,0,0,0-.351-.778,1.244,1.244,0,0,0-.837-.293A1.144,1.144,0,0,0,45-3.749a1.247,1.247,0,0,0-.391.788ZM53.244.081a2.629,2.629,0,0,1-1.1-.221,1.94,1.94,0,0,1-.77-.6,1.517,1.517,0,0,1-.31-.837h1.269a.691.691,0,0,0,.284.477.986.986,0,0,0,.617.189.957.957,0,0,0,.563-.144.436.436,0,0,0,.2-.369.389.389,0,0,0-.248-.365,4.657,4.657,0,0,0-.787-.265,6.674,6.674,0,0,1-.914-.279,1.586,1.586,0,0,1-.612-.441,1.184,1.184,0,0,1-.257-.8,1.292,1.292,0,0,1,.239-.756,1.6,1.6,0,0,1,.684-.54,2.564,2.564,0,0,1,1.049-.2,2.141,2.141,0,0,1,1.422.445,1.651,1.651,0,0,1,.585,1.2H53.955a.653.653,0,0,0-.248-.473.92.92,0,0,0-.59-.175.929.929,0,0,0-.527.126.4.4,0,0,0-.184.351.412.412,0,0,0,.252.382,3.913,3.913,0,0,0,.783.266,6.647,6.647,0,0,1,.891.279,1.574,1.574,0,0,1,.607.445,1.223,1.223,0,0,1,.266.8,1.321,1.321,0,0,1-.239.774,1.571,1.571,0,0,1-.684.536A2.592,2.592,0,0,1,53.244.081Zm2.673-2.574a2.8,2.8,0,0,1,.315-1.355,2.252,2.252,0,0,1,.873-.9,2.526,2.526,0,0,1,1.278-.319,2.457,2.457,0,0,1,1.535.464,2.255,2.255,0,0,1,.814,1.3H59.373a.994.994,0,0,0-.365-.509A1.058,1.058,0,0,0,58.374-4a1.039,1.039,0,0,0-.855.391A1.733,1.733,0,0,0,57.2-2.493a1.717,1.717,0,0,0,.315,1.1A1.039,1.039,0,0,0,58.374-1a.956.956,0,0,0,1-.684h1.359A2.3,2.3,0,0,1,59.913-.4a2.414,2.414,0,0,1-1.53.477A2.526,2.526,0,0,1,57.1-.239a2.252,2.252,0,0,1-.873-.9A2.8,2.8,0,0,1,55.917-2.493Zm8.55-2.565a2.024,2.024,0,0,1,1.008.248,1.705,1.705,0,0,1,.688.729,2.5,2.5,0,0,1,.247,1.156V0h-1.26V-2.754a1.293,1.293,0,0,0-.3-.914,1.052,1.052,0,0,0-.81-.319,1.078,1.078,0,0,0-.824.319,1.281,1.281,0,0,0-.3.914V0h-1.26V-6.66h1.26v2.295a1.643,1.643,0,0,1,.648-.509A2.146,2.146,0,0,1,64.467-5.058ZM69.822.081a2.626,2.626,0,0,1-1.3-.32,2.3,2.3,0,0,1-.9-.9,2.71,2.71,0,0,1-.328-1.35,2.653,2.653,0,0,1,.338-1.35,2.345,2.345,0,0,1,.923-.9,2.677,2.677,0,0,1,1.305-.319,2.677,2.677,0,0,1,1.305.319,2.345,2.345,0,0,1,.923.9,2.653,2.653,0,0,1,.337,1.35,2.6,2.6,0,0,1-.346,1.35,2.4,2.4,0,0,1-.936.9A2.722,2.722,0,0,1,69.822.081Zm0-1.1a1.311,1.311,0,0,0,.644-.166,1.21,1.21,0,0,0,.481-.5,1.683,1.683,0,0,0,.18-.81,1.5,1.5,0,0,0-.373-1.094,1.228,1.228,0,0,0-.914-.382,1.2,1.2,0,0,0-.9.382,1.524,1.524,0,0,0-.365,1.094A1.548,1.548,0,0,0,68.926-1.4,1.171,1.171,0,0,0,69.822-1.017Zm5.742,1.1a2.626,2.626,0,0,1-1.3-.32,2.3,2.3,0,0,1-.9-.9,2.71,2.71,0,0,1-.328-1.35,2.653,2.653,0,0,1,.338-1.35,2.345,2.345,0,0,1,.923-.9A2.677,2.677,0,0,1,75.6-5.067a2.677,2.677,0,0,1,1.305.319,2.345,2.345,0,0,1,.923.9,2.653,2.653,0,0,1,.337,1.35,2.6,2.6,0,0,1-.346,1.35,2.4,2.4,0,0,1-.936.9A2.722,2.722,0,0,1,75.564.081Zm0-1.1a1.311,1.311,0,0,0,.644-.166,1.21,1.21,0,0,0,.481-.5,1.683,1.683,0,0,0,.18-.81A1.5,1.5,0,0,0,76.5-3.587a1.228,1.228,0,0,0-.914-.382,1.2,1.2,0,0,0-.9.382,1.524,1.524,0,0,0-.365,1.094A1.548,1.548,0,0,0,74.668-1.4,1.171,1.171,0,0,0,75.564-1.017ZM80.352-6.66V0h-1.26V-6.66Z" transform="translate(588.261 98.547)" fill="#1d1d1d"/>
      <path id="Path_4271" data-name="Path 4271" d="M7.47-6.282V0H6.21V-4.086L4.527,0H3.573L1.881-4.086V0H.621V-6.282H2.052l2,4.671,2-4.671Zm.918,3.771a2.886,2.886,0,0,1,.3-1.341,2.21,2.21,0,0,1,.819-.9,2.18,2.18,0,0,1,1.156-.315,2.032,2.032,0,0,1,.976.225,1.981,1.981,0,0,1,.671.567v-.711h1.269V0H12.312V-.729a1.874,1.874,0,0,1-.671.58,2.051,2.051,0,0,1-.985.23A2.119,2.119,0,0,1,9.509-.243a2.268,2.268,0,0,1-.819-.913A2.934,2.934,0,0,1,8.388-2.511Zm3.924.018a1.616,1.616,0,0,0-.18-.788,1.269,1.269,0,0,0-.486-.5,1.3,1.3,0,0,0-.657-.176,1.276,1.276,0,0,0-.648.171,1.288,1.288,0,0,0-.481.5,1.565,1.565,0,0,0-.185.778,1.616,1.616,0,0,0,.185.788,1.328,1.328,0,0,0,.486.517,1.235,1.235,0,0,0,.644.18,1.3,1.3,0,0,0,.657-.176,1.269,1.269,0,0,0,.486-.5A1.616,1.616,0,0,0,12.312-2.493Zm5.265-2.565a1.922,1.922,0,0,1,1.44.563,2.154,2.154,0,0,1,.549,1.571V0h-1.26V-2.754a1.293,1.293,0,0,0-.3-.914,1.052,1.052,0,0,0-.81-.319,1.078,1.078,0,0,0-.823.319,1.281,1.281,0,0,0-.3.914V0h-1.26V-4.986h1.26v.621a1.741,1.741,0,0,1,.643-.509A1.991,1.991,0,0,1,17.577-5.058Zm2.862,2.547a2.886,2.886,0,0,1,.3-1.341,2.21,2.21,0,0,1,.819-.9,2.18,2.18,0,0,1,1.156-.315,2.032,2.032,0,0,1,.977.225,1.981,1.981,0,0,1,.67.567v-.711h1.269V0H24.363V-.729a1.874,1.874,0,0,1-.67.58,2.051,2.051,0,0,1-.986.23,2.119,2.119,0,0,1-1.148-.324,2.268,2.268,0,0,1-.819-.913A2.934,2.934,0,0,1,20.439-2.511Zm3.924.018a1.616,1.616,0,0,0-.18-.788,1.269,1.269,0,0,0-.486-.5,1.3,1.3,0,0,0-.657-.176,1.276,1.276,0,0,0-.648.171,1.288,1.288,0,0,0-.482.5,1.565,1.565,0,0,0-.184.778,1.616,1.616,0,0,0,.184.788,1.328,1.328,0,0,0,.486.517,1.235,1.235,0,0,0,.644.18A1.3,1.3,0,0,0,23.7-1.2a1.269,1.269,0,0,0,.486-.5A1.616,1.616,0,0,0,24.363-2.493Zm4.455-2.574a2.093,2.093,0,0,1,.981.221,1.806,1.806,0,0,1,.666.571v-.711h1.269V.036a2.675,2.675,0,0,1-.279,1.238,2.071,2.071,0,0,1-.837.864,2.676,2.676,0,0,1-1.35.319,2.884,2.884,0,0,1-1.742-.495,1.835,1.835,0,0,1-.769-1.35h1.251a.931.931,0,0,0,.427.544,1.489,1.489,0,0,0,.8.2,1.233,1.233,0,0,0,.891-.329,1.319,1.319,0,0,0,.342-.995V-.738a1.914,1.914,0,0,1-.67.585,2,2,0,0,1-.977.234,2.142,2.142,0,0,1-1.152-.324,2.256,2.256,0,0,1-.824-.913,2.934,2.934,0,0,1-.3-1.355,2.886,2.886,0,0,1,.3-1.341,2.21,2.21,0,0,1,.819-.9A2.18,2.18,0,0,1,28.818-5.067Zm1.647,2.574a1.616,1.616,0,0,0-.18-.788,1.269,1.269,0,0,0-.486-.5,1.3,1.3,0,0,0-.657-.176,1.276,1.276,0,0,0-.648.171,1.288,1.288,0,0,0-.482.5,1.565,1.565,0,0,0-.184.778,1.616,1.616,0,0,0,.184.788,1.328,1.328,0,0,0,.486.517,1.235,1.235,0,0,0,.644.18A1.3,1.3,0,0,0,29.8-1.2a1.269,1.269,0,0,0,.486-.5A1.616,1.616,0,0,0,30.465-2.493ZM37.6-2.6a2.974,2.974,0,0,1-.036.486H33.921a1.24,1.24,0,0,0,.378.846,1.166,1.166,0,0,0,.819.306,1.029,1.029,0,0,0,1-.6h1.359a2.271,2.271,0,0,1-.828,1.184,2.417,2.417,0,0,1-1.5.464,2.6,2.6,0,0,1-1.292-.32,2.249,2.249,0,0,1-.891-.9,2.771,2.771,0,0,1-.319-1.35,2.823,2.823,0,0,1,.315-1.359,2.2,2.2,0,0,1,.882-.9,2.642,2.642,0,0,1,1.305-.315,2.621,2.621,0,0,1,1.273.306,2.154,2.154,0,0,1,.873.869A2.628,2.628,0,0,1,37.6-2.6ZM36.3-2.961a1,1,0,0,0-.351-.778,1.244,1.244,0,0,0-.837-.293,1.144,1.144,0,0,0-.788.283,1.247,1.247,0,0,0-.391.788Zm8.415-2.1a2,2,0,0,1,1.48.563,2.123,2.123,0,0,1,.563,1.571V0h-1.26V-2.754a1.246,1.246,0,0,0-.3-.9,1.068,1.068,0,0,0-.81-.311,1.083,1.083,0,0,0-.815.311,1.234,1.234,0,0,0-.3.9V0h-1.26V-2.754a1.246,1.246,0,0,0-.3-.9,1.068,1.068,0,0,0-.81-.311,1.1,1.1,0,0,0-.824.311,1.234,1.234,0,0,0-.3.9V0H38.52V-4.986h1.26v.6a1.677,1.677,0,0,1,.625-.495,1.951,1.951,0,0,1,.841-.18,2.165,2.165,0,0,1,1.044.248A1.734,1.734,0,0,1,43-4.1a1.805,1.805,0,0,1,.707-.693A2.011,2.011,0,0,1,44.712-5.058ZM52.587-2.6a2.974,2.974,0,0,1-.036.486H48.906a1.24,1.24,0,0,0,.378.846,1.166,1.166,0,0,0,.819.306,1.029,1.029,0,0,0,1-.6h1.359a2.271,2.271,0,0,1-.828,1.184,2.417,2.417,0,0,1-1.5.464,2.6,2.6,0,0,1-1.292-.32,2.249,2.249,0,0,1-.891-.9,2.771,2.771,0,0,1-.319-1.35,2.823,2.823,0,0,1,.315-1.359,2.2,2.2,0,0,1,.882-.9,2.642,2.642,0,0,1,1.305-.315,2.621,2.621,0,0,1,1.273.306,2.154,2.154,0,0,1,.873.869A2.628,2.628,0,0,1,52.587-2.6Zm-1.305-.36a1,1,0,0,0-.351-.778,1.244,1.244,0,0,0-.837-.293,1.144,1.144,0,0,0-.788.283,1.247,1.247,0,0,0-.391.788Zm4.986-2.1a1.922,1.922,0,0,1,1.44.563,2.154,2.154,0,0,1,.549,1.571V0H57V-2.754a1.293,1.293,0,0,0-.3-.914,1.052,1.052,0,0,0-.81-.319,1.078,1.078,0,0,0-.824.319,1.281,1.281,0,0,0-.3.914V0H53.5V-4.986h1.26v.621a1.741,1.741,0,0,1,.644-.509A1.991,1.991,0,0,1,56.268-5.058Zm4.653,1.107v2.412a.477.477,0,0,0,.121.365.6.6,0,0,0,.41.112h.585V0h-.792a1.388,1.388,0,0,1-1.593-1.548v-2.4h-.594V-4.986h.594V-6.219h1.269v1.233h1.116v1.035Z" transform="translate(597.584 112.547)" fill="#1d1d1d"/>
      <path id="Path_4270" data-name="Path 4270" d="M1.881-5.265V-3.69H4v1H1.881v1.665H4.266V0H.621V-6.291H4.266v1.026ZM8.649,0,7.263-2.448H6.669V0H5.409V-6.282H7.767a2.753,2.753,0,0,1,1.242.256,1.792,1.792,0,0,1,.769.693,1.891,1.891,0,0,1,.257.977,1.87,1.87,0,0,1-.36,1.121A1.849,1.849,0,0,1,8.6-2.547L10.107,0ZM6.669-3.393H7.722a1.052,1.052,0,0,0,.765-.247.921.921,0,0,0,.252-.689A.879.879,0,0,0,8.487-5a1.077,1.077,0,0,0-.765-.238H6.669Zm9.09-.945a1.956,1.956,0,0,1-.238.945,1.752,1.752,0,0,1-.747.711,2.717,2.717,0,0,1-1.283.27H12.438V0h-1.26V-6.282h2.313a2.8,2.8,0,0,1,1.242.252,1.755,1.755,0,0,1,.769.693A1.95,1.95,0,0,1,15.759-4.338Zm-2.322.909a1.092,1.092,0,0,0,.774-.239.879.879,0,0,0,.252-.671q0-.918-1.026-.918h-1v1.827Z" transform="translate(621.804 126.547)" fill="#1d1d1d"/>
    </g>
  </g>
</svg>
