<svg xmlns="http://www.w3.org/2000/svg" width="95" height="95" viewBox="0 0 95 95">
  <g id="ic_barcode" transform="translate(-287 -2848)">
    <path id="Path_79353" data-name="Path 79353" d="M47.5,0A47.5,47.5,0,1,1,0,47.5,47.5,47.5,0,0,1,47.5,0Z" transform="translate(287 2848)" fill="#fff"/>
    <g id="Group_175157" data-name="Group 175157" transform="translate(-601.427 -297.628)">
      <g id="Group_175156" data-name="Group 175156" transform="translate(914.426 3171.628)">
        <path id="Path_88432" data-name="Path 88432" d="M318.824,274.3q3.291,0,6.583,0c.882,0,1.169.275,1.17,1.151q.009,6.615,0,13.23c0,.913-.281,1.182-1.208,1.183-3.98,0-7.96.012-11.94-.011-.514,0-.641.137-.632.639.032,1.7.016,3.4.01,5.1,0,.85-.319,1.178-1.165,1.182q-3.195.014-6.389,0c-.826,0-1.144-.314-1.148-1.129q-.016-3.227,0-6.454c0-.825.314-1.123,1.139-1.133.71-.009,1.421-.02,2.13.006.343.013.441-.1.429-.433-.024-.731-.022-1.463,0-2.194.009-.31-.085-.41-.4-.4-.559.023-1.119.017-1.678,0a.912.912,0,1,1,.027-1.805q1.387-.014,2.775,0c.771.008,1.07.319,1.075,1.112.007,1.076.038,2.153-.012,3.226-.03.654.391.47.713.474s.711.16.706-.48c-.028-4-.015-8-.013-12,0-1.011.247-1.264,1.241-1.265Q315.532,274.3,318.824,274.3Zm.005,1.81c-1.85,0-3.7.008-5.549-.007-.345,0-.482.059-.48.448q.022,5.517,0,11.033c0,.339.054.483.445.482q5.517-.023,11.033,0c.41,0,.5-.129.5-.514q-.02-5.452,0-10.9c0-.488-.181-.55-.6-.546C322.4,276.12,320.614,276.109,318.829,276.109ZM311,292.466c0-.731-.012-1.463.005-2.193.007-.3-.076-.418-.4-.415q-2.129.021-4.258,0c-.337,0-.448.1-.445.441q.021,2.1,0,4.193c0,.358.1.487.472.481q2.1-.03,4.193,0c.343,0,.446-.107.435-.442C310.985,293.843,311,293.154,311,292.466Z" transform="translate(-283.765 -274.298)" fill="#1f3965"/>
        <path id="Path_88433" data-name="Path 88433" d="M191.993,434.241q3.261,0,6.522,0c.87,0,1.176.295,1.176,1.145q0,6.651,0,13.3c0,.824-.3,1.146-1.121,1.147q-6.651.01-13.3,0c-.829,0-1.15-.309-1.151-1.125q-.011-6.683,0-13.366c0-.812.324-1.1,1.16-1.1Q188.635,434.238,191.993,434.241Zm-.068,1.81c-1.828,0-3.656.014-5.484-.01-.426-.006-.528.116-.526.532q.025,5.452,0,10.9c0,.469.156.564.589.562q5.419-.023,10.839,0c.4,0,.554-.071.551-.52q-.029-5.484,0-10.967c0-.46-.166-.509-.55-.506C195.538,436.06,193.732,436.051,191.925,436.051Z" transform="translate(-184.112 -407.028)" fill="#1f3965"/>
        <path id="Path_88434" data-name="Path 88434" d="M191.918,274.3q3.293,0,6.585,0c.921,0,1.187.267,1.187,1.19q0,6.585,0,13.171c0,.921-.272,1.2-1.178,1.2q-6.618.006-13.235,0c-.882,0-1.162-.277-1.163-1.162q-.008-6.617,0-13.235c0-.913.275-1.165,1.219-1.167Q188.625,274.3,191.918,274.3Zm5.962,7.848c0-1.85-.013-3.7.01-5.549.005-.4-.1-.5-.5-.5q-5.485.024-10.969,0c-.389,0-.51.089-.508.5q.025,5.484,0,10.969c0,.405.117.5.507.5q5.485-.022,10.969,0c.4,0,.5-.1.5-.5C197.867,285.761,197.88,283.954,197.88,282.148Z" transform="translate(-184.11 -274.299)" fill="#1f3965"/>
        <path id="Path_88435" data-name="Path 88435" d="M344.172,441.976q0-3.229,0-6.457c0-1,.263-1.274,1.239-1.275q6.554,0,13.108,0c.947,0,1.23.276,1.231,1.228q.006,6.554,0,13.108c0,.979-.289,1.259-1.282,1.26q-6.522,0-13.044,0c-.977,0-1.252-.287-1.252-1.278Q344.171,445.269,344.172,441.976Zm7.76,6.056c1.807,0,3.614-.02,5.42.013.5.009.6-.142.6-.614q-.029-5.42,0-10.84c0-.392-.059-.553-.516-.551q-5.484.033-10.969,0c-.4,0-.494.106-.493.5q.024,5.484,0,10.969c0,.434.126.536.541.531C348.319,448.019,350.125,448.032,351.932,448.032Z" transform="translate(-316.938 -407.03)" fill="#1f3965"/>
        <path id="Path_88436" data-name="Path 88436" d="M242.186,382.925c-1.463,0-2.926,0-4.389,0-.894,0-1.18-.272-1.183-1.141q-.013-3.2,0-6.39c0-.865.305-1.153,1.171-1.154q3.2,0,6.39,0c.813,0,1.137.318,1.14,1.127.007,1.743.016,3.486-.008,5.228-.006.422.107.551.531.53.73-.035,1.463-.019,2.194-.007.778.013,1.1.323,1.106,1.1q.02,2.066,0,4.131c-.006.712-.34,1.09-.91,1.086s-.887-.381-.9-1.1c-.012-.947-.024-1.894.006-2.84.014-.443-.108-.592-.57-.583C245.241,382.943,243.713,382.925,242.186,382.925Zm-3.763-4.361c0,.709.018,1.42-.007,2.128-.013.349.112.432.442.428q2.128-.023,4.257,0c.311,0,.4-.1.4-.4-.014-1.419-.019-2.838,0-4.257.005-.359-.125-.422-.445-.419q-2.128.022-4.257,0c-.312,0-.408.082-.4.4C238.438,377.145,238.423,377.855,238.423,378.565Z" transform="translate(-227.664 -357.216)" fill="#1f3965"/>
        <path id="Path_88437" data-name="Path 88437" d="M326.6,399.857q-3.326,0-6.651,0a1,1,0,0,1-.978-.5.841.841,0,0,1,.045-.917,1.072,1.072,0,0,1,1.026-.4c2.712.005,5.425-.013,8.137.016.536.006.709-.137.673-.674-.046-.686-.025-1.377-.006-2.066.02-.717.325-1.022,1.036-1.025q3.907-.012,7.814,0c.757,0,1.048.3,1.053,1.061q.013,2,0,4c0,.687-.3,1.043-.859,1.061-.57.019-.934-.372-.944-1.059-.013-.925-.027-1.852.007-2.776.015-.413-.12-.517-.507-.49a9.34,9.34,0,0,1-1.42,0c-.462-.038-.654.073-.613.584.051.642.017,1.291.011,1.936-.008.944-.3,1.24-1.237,1.241Q329.892,399.861,326.6,399.857Zm4.994-1.805c1.16-.017,1.012.145,1.02-.749.011-1.206,0-1.206-.754-1.206-1.216,0-1.216,0-1.216.811C330.643,398.052,330.643,398.052,331.593,398.052Z" transform="translate(-295.98 -373.81)" fill="#1f3965"/>
        <path id="Path_88438" data-name="Path 88438" d="M292.848,442.2c0,1.1,0,2.194,0,3.292,0,.828-.305,1.143-1.113,1.145q-3.227.01-6.454,0c-.806,0-1.106-.32-1.11-1.149-.005-.947,0-1.893,0-2.84,0-1,.266-1.271,1.25-1.273,1.7,0,3.4-.015,5.1.009.419.006.556-.1.532-.529-.037-.665-.02-1.333-.006-2s.353-1.026.9-1.029c.568,0,.894.35.9,1.017C292.856,439.967,292.848,441.085,292.848,442.2Zm-4.343,2.631h1.415c1.142,0,1.117,0,1.132-1.135.006-.444-.146-.531-.549-.523-1.115.024-2.23.008-3.345.008-1.222,0-1.2,0-1.2,1.217,0,.393.148.45.483.439C287.133,444.82,287.82,444.835,288.506,444.835Z" transform="translate(-267.101 -409.999)" fill="#1f3965"/>
        <path id="Path_88439" data-name="Path 88439" d="M289.105,286.646c0-1.462,0-2.924,0-4.386,0-.968.259-1.218,1.229-1.22,1.548,0,3.1-.006,4.644,0,.793,0,1.091.294,1.1,1.087q.021,1.515,0,3.031c-.011.826-.3,1.105-1.149,1.112-1.161.008-2.322.022-3.482-.008-.433-.011-.547.125-.54.546.024,1.483.017,2.967.005,4.45-.005.687-.313,1.047-.857,1.072-.581.026-.942-.345-.948-1.042C289.1,289.742,289.105,288.194,289.105,286.646Zm3.422-2.182h.645c1.125,0,1.108,0,1.11-1.11,0-.38-.079-.533-.493-.513a15.386,15.386,0,0,1-2.125,0c-.637-.057-.8.155-.761.771.057.853.014.856.851.856Z" transform="translate(-271.187 -279.876)" fill="#1f3965"/>
        <path id="Path_88444" data-name="Path 88444" d="M288.528,494.237c1.054,0,2.107,0,3.161,0,.831,0,1.138.3,1.143,1.111.007,1.032.009,2.064,0,3.1-.007.7-.318,1.045-1.017,1.05q-3.322.023-6.644,0c-.7-.005-1.007-.349-1.013-1.054q-.015-1.58,0-3.161c.007-.725.333-1.036,1.082-1.041C286.335,494.232,287.432,494.237,288.528,494.237Zm-.033,1.808h-1.415c-1.141,0-1.116,0-1.132,1.135-.006.444.146.531.549.522,1.114-.025,2.23-.008,3.345-.008,1.223,0,1.2,0,1.2-1.217,0-.394-.15-.449-.484-.439C289.868,496.06,289.182,496.045,288.5,496.045Z" transform="translate(-267.086 -456.691)" fill="#1f3965"/>
        <path id="Path_88445" data-name="Path 88445" d="M195.489,394.4c2.133,0,2.311.179,2.312,2.314s-.2,2.337-2.308,2.337c-2.151,0-2.34-.191-2.34-2.366C193.153,394.567,193.321,394.4,195.489,394.4Z" transform="translate(-191.596 -373.897)" fill="#1f3965"/>
        <path id="Path_88446" data-name="Path 88446" d="M378.033,374.241c1.4,0,2.795,0,4.192,0,.7,0,1.09.334,1.09.9s-.39.9-1.092.9q-4.256.006-8.513,0c-.69,0-1.072-.356-1.054-.935.018-.547.389-.865,1.055-.868C375.152,374.235,376.593,374.241,378.033,374.241Z" transform="translate(-340.517 -357.166)" fill="#1f3965"/>
        <path id="Path_88447" data-name="Path 88447" d="M187.706,377.1c-.816,0-1.632.011-2.448,0-.693-.012-1.083-.363-1.069-.926.014-.536.392-.874,1.053-.879q2.48-.018,4.96,0c.687,0,1.086.371,1.072.928-.014.532-.4.866-1.056.877C189.381,377.114,188.543,377.1,187.706,377.1Z" transform="translate(-184.175 -358.034)" fill="#1f3965"/>
        <path id="Path_88459" data-name="Path 88459" d="M211.138,457.482c.9,0,1.8-.006,2.707,0,.742.006,1.06.315,1.063,1.054q.012,2.739,0,5.478c0,.7-.317,1.042-1.016,1.049q-2.771.026-5.543,0a.9.9,0,0,1-1.005-1q-.026-2.8,0-5.607c.007-.663.348-.963,1.021-.97C209.29,457.474,210.214,457.482,211.138,457.482Zm.12,1.809c-.644,0-1.181.016-1.717-.006-.311-.013-.406.09-.4.4q.025,1.578,0,3.157c-.006.348.126.434.452.428,1.031-.017,2.062-.021,3.093,0,.356.008.436-.129.423-.449-.021-.536,0-1.074-.007-1.611-.007-.619.214-1.456-.1-1.8C212.635,459.014,211.787,459.346,211.257,459.291Z" transform="translate(-203.332 -426.605)" fill="#1f3965"/>
        <path id="Path_88460" data-name="Path 88460" d="M211.138,457.482c.9,0,1.8-.006,2.707,0,.742.006,1.06.315,1.063,1.054q.012,2.739,0,5.478c0,.7-.317,1.042-1.016,1.049q-2.771.026-5.543,0a.9.9,0,0,1-1.005-1q-.026-2.8,0-5.607c.007-.663.348-.963,1.021-.97C209.29,457.474,210.214,457.482,211.138,457.482Zm.12,1.809c-.644,0-1.181.016-1.717-.006-.311-.013-.406.09-.4.4q.025,1.578,0,3.157c-.006.348.126.434.452.428,1.031-.017,2.062-.021,3.093,0,.356.008.436-.129.423-.449-.021-.536,0-1.074-.007-1.611-.007-.619.214-1.456-.1-1.8C212.635,459.014,211.787,459.346,211.257,459.291Z" transform="translate(-203.332 -453.941)" fill="#1f3965"/>
        <path id="Path_88461" data-name="Path 88461" d="M211.138,457.482c.9,0,1.8-.006,2.707,0,.742.006,1.06.315,1.063,1.054q.012,2.739,0,5.478c0,.7-.317,1.042-1.016,1.049q-2.771.026-5.543,0a.9.9,0,0,1-1.005-1q-.026-2.8,0-5.607c.007-.663.348-.963,1.021-.97C209.29,457.474,210.214,457.482,211.138,457.482Zm.12,1.809c-.644,0-1.181.016-1.717-.006-.311-.013-.406.09-.4.4q.025,1.578,0,3.157c-.006.348.126.434.452.428,1.031-.017,2.062-.021,3.093,0,.356.008.436-.129.423-.449-.021-.536,0-1.074-.007-1.611-.007-.619.214-1.456-.1-1.8C212.635,459.014,211.787,459.346,211.257,459.291Z" transform="translate(-176.325 -426.605)" fill="#1f3965"/>
        <path id="Path_88462" data-name="Path 88462" d="M211.138,457.482c.9,0,1.8-.006,2.707,0,.742.006,1.06.315,1.063,1.054q.012,2.739,0,5.478c0,.7-.317,1.042-1.016,1.049q-2.771.026-5.543,0a.9.9,0,0,1-1.005-1q-.026-2.8,0-5.607c.007-.663.348-.963,1.021-.97C209.29,457.474,210.214,457.482,211.138,457.482Zm.12,1.809c-.644,0-1.181.016-1.717-.006-.311-.013-.406.09-.4.4q.025,1.578,0,3.157c-.006.348.126.434.452.428,1.031-.017,2.062-.021,3.093,0,.356.008.436-.129.423-.449-.021-.536,0-1.074-.007-1.611-.007-.619.214-1.456-.1-1.8C212.635,459.014,211.787,459.346,211.257,459.291Z" transform="translate(-176.325 -453.941)" fill="#1f3965"/>
      </g>
    </g>
  </g>
</svg>
