<svg xmlns="http://www.w3.org/2000/svg" width="95" height="95" viewBox="0 0 95 95">
  <g id="ic_tally" transform="translate(-287 -2848)">
    <path id="Path_79353" data-name="Path 79353" d="M47.5,0A47.5,47.5,0,1,1,0,47.5,47.5,47.5,0,0,1,47.5,0Z" transform="translate(287 2848)" fill="#fff"/>
    <g id="Group_175099" data-name="Group 175099" transform="translate(140 2655.816)">
      <path id="Path_88349" data-name="Path 88349" d="M177,240.17q0-10.636,0-21.272a3.556,3.556,0,0,1,2.878-3.645,4.269,4.269,0,0,1,.873-.066q14.152,0,28.3,0a3.552,3.552,0,0,1,3.75,3.714q0,21.272,0,42.544a3.56,3.56,0,0,1-3.777,3.74q-14.126,0-28.253,0A3.567,3.567,0,0,1,177,261.39Q177,250.78,177,240.17Zm1.441.014q0,10.557,0,21.114a2.171,2.171,0,0,0,2.481,2.455h27.99a2.164,2.164,0,0,0,2.455-2.43q0-21.14,0-42.28a2.163,2.163,0,0,0-2.456-2.428h-27.99a2.169,2.169,0,0,0-2.479,2.455Q178.441,229.627,178.442,240.184Z" transform="translate(0 0)" fill="#1f3965" stroke="#1f3965" stroke-width="0.5"/>
      <path id="Path_88351" data-name="Path 88351" d="M226.214,254.1q5.56,0,11.12,0c1.244,0,1.748.507,1.75,1.762q0,2.9,0,5.793c0,1.23-.535,1.755-1.773,1.755H215.071c-1.24,0-1.773-.525-1.775-1.754q-.006-2.9,0-5.793c0-1.254.507-1.764,1.748-1.764Q220.629,254.1,226.214,254.1Zm-.025,7.877c3.656,0,7.312-.007,10.969.01.416,0,.51-.116.506-.515-.021-1.828-.018-3.656,0-5.484,0-.35-.077-.47-.451-.469q-11.021.016-22.041,0c-.372,0-.455.117-.452.468.016,1.828.019,3.656,0,5.484,0,.4.086.518.5.516C218.877,261.969,222.533,261.976,226.189,261.976Z" transform="translate(-31.284 -33.545)" fill="#1f3965" stroke="#1f3965" stroke-width="0.5"/>
      <path id="Path_88352" data-name="Path 88352" d="M216.832,349.3c-.655,0-1.31.01-1.965,0a1.449,1.449,0,0,1-1.6-1.606q-.022-1.991,0-3.982a1.446,1.446,0,0,1,1.578-1.583c1.344-.017,2.689-.019,4.034,0a1.443,1.443,0,0,1,1.555,1.556c.019,1.362.021,2.724,0,4.085a1.436,1.436,0,0,1-1.528,1.526C218.211,349.314,217.521,349.3,216.832,349.3ZM219,345.758c0-.6-.01-1.207,0-1.81.007-.267-.032-.4-.355-.4-1.207.018-2.414.015-3.621,0-.28,0-.348.095-.346.358q.017,1.81,0,3.621c0,.28.1.348.36.346,1.207-.011,2.414-.013,3.621,0,.284,0,.349-.1.342-.361C218.989,346.931,219,346.345,219,345.758Z" transform="translate(-31.248 -109.457)" fill="#1f3965" stroke="#1f3965" stroke-width="0.5"/>
      <path id="Path_88353" data-name="Path 88353" d="M284.237,349.3c-.655,0-1.31.012-1.965,0a1.445,1.445,0,0,1-1.579-1.581c-.016-1.344-.019-2.689,0-4.034a1.44,1.44,0,0,1,1.555-1.554q2.016-.03,4.034,0a1.45,1.45,0,0,1,1.579,1.584c.017,1.344.02,2.689,0,4.034a1.437,1.437,0,0,1-1.555,1.551C285.616,349.312,284.926,349.3,284.237,349.3Zm.091-5.739c-.621,0-1.242.012-1.862-.006-.274-.008-.353.081-.351.352q.019,1.81,0,3.621c0,.272.081.355.352.352q1.811-.019,3.621,0c.275,0,.353-.086.35-.354q-.018-1.811,0-3.621c0-.274-.083-.358-.353-.35C285.5,343.57,284.915,343.558,284.328,343.558Z" transform="translate(-89.373 -109.457)" fill="#1f3965" stroke="#1f3965" stroke-width="0.5"/>
      <path id="Path_88354" data-name="Path 88354" d="M355.317,345.716c0,.655.01,1.31,0,1.965a1.451,1.451,0,0,1-1.607,1.6c-1.327.014-2.655.016-3.982,0a1.445,1.445,0,0,1-1.581-1.579c-.015-1.344-.017-2.689,0-4.034a1.443,1.443,0,0,1,1.556-1.555c1.361-.02,2.724-.022,4.085,0a1.448,1.448,0,0,1,1.529,1.53c0,.034,0,.069,0,.1Q355.317,344.734,355.317,345.716Zm-5.741-.018c0,.6.01,1.207,0,1.81-.007.258.056.365.341.362,1.207-.014,2.414-.012,3.621,0,.261,0,.364-.063.361-.345q-.02-1.81,0-3.621c0-.262-.063-.363-.345-.36-1.207.014-2.414.017-3.621,0-.321,0-.364.128-.357.4C349.587,344.525,349.576,345.111,349.576,345.7Z" transform="translate(-147.517 -109.449)" fill="#1f3965" stroke="#1f3965" stroke-width="0.5"/>
      <path id="Path_88355" data-name="Path 88355" d="M284.265,494.639c-.69,0-1.379.009-2.069,0a1.376,1.376,0,0,1-1.5-1.374q-.063-2.2,0-4.4a1.386,1.386,0,0,1,1.5-1.383q2.069-.019,4.138,0a1.4,1.4,0,0,1,1.506,1.434q.054,2.145,0,4.292a1.386,1.386,0,0,1-1.505,1.426C285.645,494.648,284.955,494.639,284.265,494.639Zm-.017-5.715c-.6,0-1.2.007-1.806,0-.223,0-.343.027-.339.3.014,1.221.012,2.443,0,3.664,0,.242.066.334.319.332,1.221-.01,2.443-.012,3.664,0,.285,0,.34-.111.338-.366q-.016-1.806,0-3.613c0-.248-.072-.327-.32-.322C285.488,488.934,284.868,488.924,284.249,488.924Z" transform="translate(-89.36 -234.827)" fill="#1f3965" stroke="#1f3965" stroke-width="0.5"/>
      <path id="Path_88356" data-name="Path 88356" d="M284.228,421.956c-.672,0-1.345.011-2.017,0a1.4,1.4,0,0,1-1.531-1.457q-.047-2.119,0-4.24a1.418,1.418,0,0,1,1.537-1.461q2.042-.022,4.085,0a1.434,1.434,0,0,1,1.535,1.519q.038,2.068,0,4.137a1.413,1.413,0,0,1-1.542,1.5C285.607,421.967,284.918,421.956,284.228,421.956Zm.009-1.426c.6,0,1.206-.013,1.808.006.3.009.379-.091.376-.383-.015-1.188-.017-2.377,0-3.565,0-.311-.11-.366-.388-.363q-1.782.02-3.565,0c-.293,0-.38.078-.376.374q.024,1.782,0,3.565c0,.307.106.379.387.371C283.066,420.519,283.652,420.53,284.237,420.53Z" transform="translate(-89.352 -172.127)" fill="#1f3965" stroke="#1f3965" stroke-width="0.5"/>
      <path id="Path_88357" data-name="Path 88357" d="M216.817,494.633c-.69,0-1.38.011-2.069,0a1.356,1.356,0,0,1-1.453-1.363q-.059-2.222.006-4.446a1.351,1.351,0,0,1,1.426-1.339q2.12-.029,4.241,0a1.392,1.392,0,0,1,1.465,1.422q.056,2.145,0,4.292a1.394,1.394,0,0,1-1.5,1.436C218.23,494.643,217.523,494.633,216.817,494.633Zm.087-1.425c.585,0,1.17-.01,1.755,0,.257.006.364-.056.36-.341q-.022-1.806,0-3.613c0-.272-.075-.35-.346-.347-1.2.014-2.408.011-3.613,0-.246,0-.369.034-.365.33.016,1.2.014,2.409,0,3.613,0,.267.077.364.35.357C215.665,493.2,216.284,493.208,216.9,493.208Z" transform="translate(-31.261 -234.821)" fill="#1f3965" stroke="#1f3965" stroke-width="0.5"/>
      <path id="Path_88358" data-name="Path 88358" d="M351.657,494.639c-.672,0-1.345.009-2.017,0a1.4,1.4,0,0,1-1.513-1.42q-.053-2.145,0-4.292a1.409,1.409,0,0,1,1.5-1.44q2.069-.021,4.138,0a1.4,1.4,0,0,1,1.507,1.429q.054,2.145,0,4.292a1.383,1.383,0,0,1-1.5,1.432C353.071,494.649,352.364,494.639,351.657,494.639Zm0-1.425c.6,0,1.2-.016,1.806.006.319.012.409-.094.4-.409-.017-1.17-.015-2.34,0-3.509,0-.28-.055-.39-.364-.385-1.2.017-2.408.015-3.613,0-.269,0-.351.072-.347.346.015,1.187.019,2.374,0,3.561-.006.332.107.407.413.4C350.52,493.2,351.088,493.214,351.656,493.214Z" transform="translate(-147.489 -234.827)" fill="#1f3965" stroke="#1f3965" stroke-width="0.5"/>
      <path id="Path_88359" data-name="Path 88359" d="M216.829,421.963c-.69,0-1.379.012-2.068,0a1.4,1.4,0,0,1-1.511-1.475q-.042-2.093,0-4.188A1.427,1.427,0,0,1,214.8,414.8q2.017-.019,4.033,0a1.447,1.447,0,0,1,1.571,1.539q.032,2.042,0,4.085a1.43,1.43,0,0,1-1.564,1.535C218.173,421.973,217.5,421.963,216.829,421.963Zm.035-1.426c.586,0,1.171-.008,1.756,0,.249.005.371-.043.367-.336-.015-1.222-.01-2.445,0-3.668,0-.215-.05-.305-.285-.3q-1.86.015-3.719,0c-.254,0-.319.087-.317.328.01,1.205.015,2.411,0,3.616,0,.316.124.371.4.364C215.658,420.528,216.261,420.538,216.864,420.537Z" transform="translate(-31.229 -172.135)" fill="#1f3965" stroke="#1f3965" stroke-width="0.5"/>
      <path id="Path_88360" data-name="Path 88360" d="M351.731,421.943c-.707,0-1.414.015-2.12,0a1.4,1.4,0,0,1-1.481-1.455q-.044-2.119,0-4.24a1.41,1.41,0,0,1,1.488-1.458q2.094-.031,4.189,0a1.384,1.384,0,0,1,1.469,1.414q.055,2.17,0,4.343a1.379,1.379,0,0,1-1.478,1.4h-2.068Zm-.016-1.424c.6,0,1.206-.011,1.808,0,.272.007.353-.088.35-.356-.012-1.205-.01-2.411,0-3.616,0-.231-.044-.339-.308-.336-1.24.012-2.48.01-3.72,0-.224,0-.3.068-.294.295.009,1.223.012,2.445,0,3.668,0,.282.1.351.359.345C350.509,420.509,351.112,420.519,351.715,420.519Z" transform="translate(-147.496 -172.116)" fill="#1f3965" stroke="#1f3965" stroke-width="0.5"/>
    </g>
  </g>
</svg>
