<svg width="136" height="136" viewBox="0 0 136 136" fill="none" xmlns="http://www.w3.org/2000/svg">
<path d="M68.47 108.998C55.7356 108.998 43.0011 108.998 30.2667 108.995C29.823 108.995 29.3704 108.991 28.9378 108.912C27.834 108.711 27.1227 107.905 27.0179 106.779C26.9912 106.501 27.0023 106.218 27.0023 105.938C27.0023 83.8489 27.0023 61.7576 27.0023 39.6686C27.0023 39.1639 26.9822 38.6614 27.1495 38.1701C27.4795 37.2055 28.4205 36.5483 29.3949 36.6156C30.4228 36.6851 31.288 37.4702 31.4307 38.5201C31.5087 39.1011 31.5333 39.6933 31.5333 40.2788C31.5377 61.1071 31.5377 81.9355 31.5377 102.764C31.5377 103.071 31.5511 103.381 31.54 103.688C31.5199 104.231 31.7852 104.451 32.3048 104.426C32.6103 104.413 32.918 104.426 33.2235 104.426C57.7179 104.426 82.21 104.426 106.704 104.426C107.262 104.426 107.819 104.404 108.363 104.57C109.298 104.854 109.984 105.743 110 106.685C110.016 107.652 109.302 108.583 108.334 108.863C107.846 109.004 107.344 108.995 106.84 108.995C94.0503 108.998 81.2601 108.998 68.47 108.998Z" fill="#1F3965"/>
<path d="M93.9045 77.4401C93.9045 71.1052 93.9045 64.7703 93.9045 58.4355C93.9045 57.2174 93.9022 57.2174 92.7293 57.2129C92.1719 57.2107 91.6122 57.2421 91.0592 57.1972C89.8529 57.0985 89.3222 55.9904 90.0625 55.0258C92.4818 51.8785 94.9101 48.7358 97.3941 45.6379C98.5001 44.2583 100.248 44.2987 101.354 45.6917C103.789 48.756 106.175 51.8606 108.583 54.9473C108.936 55.4004 109.092 55.8804 108.831 56.43C108.556 57.0065 108.066 57.2107 107.464 57.2107C106.795 57.2129 106.126 57.2241 105.457 57.2129C105.004 57.2062 104.784 57.4081 104.79 57.8657C104.795 58.1461 104.786 58.4265 104.786 58.7069C104.786 71.1523 104.786 83.5977 104.786 96.0409C104.786 98.311 104.65 98.4456 102.375 98.4456C100.175 98.4456 97.9738 98.4456 95.773 98.4456C94.1609 98.4456 93.9089 98.1877 93.9089 96.5277C93.9045 90.1659 93.9045 83.8019 93.9045 77.4401Z" fill="#1F3965"/>
<path d="M40.3613 67.6171C40.8162 67.0921 41.2822 67.0495 41.6836 66.8992C49.1289 64.1244 56.2911 60.7819 62.8177 56.1789C67.4378 52.9194 71.5808 49.1665 74.6156 44.3055C75.2444 43.296 75.2466 43.2983 74.1897 42.8429C73.7281 42.6432 73.271 42.4369 72.805 42.2507C72.3055 42.051 71.9131 41.7459 71.8618 41.1806C71.8105 40.5974 72.2052 40.2609 72.66 40.0052C74.6535 38.8836 76.6514 37.7665 78.6471 36.6493C80.034 35.8732 81.4232 35.097 82.8123 34.3231C83.8849 33.7264 84.5293 33.944 84.8348 35.1015C85.8449 38.9464 86.8304 42.798 87.7982 46.6541C88.0724 47.7511 87.3232 48.415 86.2485 48.0359C85.4346 47.7488 84.6408 47.3966 83.867 47.0175C83.2561 46.7169 82.8815 46.8493 82.4578 47.3877C79.1599 51.5556 75.396 55.2345 71.059 58.3122C64.7063 62.821 57.6445 65.5488 49.9985 66.8117C47.1645 67.2806 44.3059 67.478 41.4428 67.6148C41.1418 67.6305 40.8407 67.6171 40.3613 67.6171Z" fill="#1F3965"/>
<path d="M75.1397 81.6685C75.1397 76.6235 75.1374 71.5785 75.1397 66.5335C75.1397 65.2257 75.4652 64.8937 76.7674 64.8892C79.247 64.8802 81.7265 64.8802 84.206 64.8892C85.5573 64.8937 85.9319 65.2817 85.9319 66.6546C85.9341 76.6616 85.9341 86.6664 85.9319 96.6734C85.9319 98.1562 85.642 98.4456 84.1771 98.4456C81.6975 98.4478 79.218 98.4478 76.7384 98.4456C75.4095 98.4433 75.1397 98.1674 75.1397 96.8035C75.1397 91.7585 75.1397 86.7135 75.1397 81.6685Z" fill="#1F3965"/>
<path d="M67.0585 85.5964C67.0585 89.3494 67.0607 93.1045 67.0562 96.8574C67.054 98.1518 66.7664 98.4434 65.4865 98.4456C62.9244 98.4501 60.3624 98.4501 57.8026 98.4456C56.6141 98.4434 56.2662 98.0979 56.264 96.8844C56.2573 89.3763 56.2595 81.8705 56.264 74.3624C56.264 73.1824 56.652 72.7899 57.8137 72.7854C60.3757 72.7742 62.9378 72.7742 65.4976 72.7854C66.7195 72.7899 67.054 73.1488 67.054 74.4185C67.0607 78.1445 67.0585 81.8705 67.0585 85.5964Z" fill="#1F3965"/>
<path d="M48.2911 89.6432C48.2911 92.0255 48.2977 94.4056 48.2888 96.7879C48.2844 98.0979 47.941 98.4412 46.6611 98.4434C44.099 98.4479 41.537 98.4479 38.9727 98.4434C37.8377 98.4412 37.4274 98.089 37.423 96.9584C37.4029 92.0547 37.4029 87.151 37.4252 82.2473C37.4319 81.036 37.8533 80.686 39.0909 80.6838C41.5704 80.6793 44.0477 80.6793 46.5273 80.6838C47.9209 80.686 48.2844 81.0562 48.2888 82.4963C48.2955 84.8809 48.2911 87.2632 48.2911 89.6432Z" fill="#1F3965"/>
</svg>
