<svg width="136" height="136" viewBox="0 0 136 136" fill="none" xmlns="http://www.w3.org/2000/svg">
<path d="M70.1969 79.887C71.1247 80.0328 71.9909 80.1005 72.8325 80.3099C78.5943 81.7385 82.7406 86.9933 82.7673 92.9214C82.7755 94.662 82.7817 96.4027 82.7653 98.1433C82.7365 100.816 80.5895 102.981 77.9169 102.988C71.2868 103.004 64.6547 103.004 58.0246 102.988C55.348 102.981 53.1639 100.818 53.1783 98.1515C53.1906 95.7232 52.9751 93.2867 53.3323 90.8667C54.1697 85.2075 59.2726 80.4577 64.9852 79.9938C65.211 79.9753 65.4327 79.9281 65.8822 79.8624C63.3348 79.1152 61.4567 77.7974 60.1963 75.6811C58.9504 73.5895 58.546 71.3521 59.1084 68.9649C60.1122 64.7118 63.8008 61.8278 68.1545 61.8791C72.348 61.9284 76.0285 65.0073 76.8824 69.1783C77.8307 73.8132 75.5379 77.5203 70.1969 79.887Z" fill="#1F3965"/>
<path d="M46.4523 78.249C41.8153 76.849 40.362 72.7314 40.9881 69.597C41.7455 65.7996 44.8307 63.4473 48.8149 63.5602C52.1607 63.6546 55.2232 66.4544 55.6769 69.9275C56.1777 73.7557 53.9198 77.2062 49.8822 78.2921C52.0314 78.288 53.8603 78.8093 55.5743 79.7412C56.3296 80.1518 56.3296 80.2031 55.6892 80.7737C51.939 84.1113 50.0506 88.2885 50.0321 93.3093C50.028 94.5388 50.0321 95.7663 50.03 96.9958C50.028 98.0755 50.0259 98.0776 48.9093 98.0776C46.0417 98.0796 43.1762 98.0817 40.3087 98.0776C37.4965 98.0735 35.4439 96.417 35.1688 93.6336C34.904 90.9364 34.8219 88.192 35.9119 85.6118C37.8927 80.9277 41.5136 78.5671 46.4523 78.249Z" fill="#1F3965"/>
<path d="M89.2006 78.2963C95.4181 78.403 100.131 82.7444 100.757 88.773C100.934 90.4808 100.983 92.2009 100.741 93.9005C100.394 96.337 98.3596 98.0633 95.8923 98.0756C92.8728 98.09 89.8513 98.0572 86.8319 98.0962C86.0662 98.1064 85.8918 97.8211 85.8877 97.1129C85.8774 94.8899 86.0621 92.6566 85.6824 90.448C85.0153 86.5664 83.1741 83.3437 80.2141 80.7512C79.6086 80.2217 79.6148 80.1519 80.327 79.7619C82.0554 78.8197 83.8945 78.2819 85.9513 78.2983C81.261 76.8964 79.701 72.8916 80.3065 69.6731C81.0229 65.8613 84.1019 63.4761 88.0737 63.5623C91.4647 63.6362 94.554 66.4319 95.0097 69.9338C95.5105 73.7578 93.2546 77.2104 89.2006 78.2963Z" fill="#1F3965"/>
<path d="M60.5421 50.0354C61.0737 48.3255 60.2485 46.7655 58.9143 45.3492C58.4607 44.8668 58.0871 44.3064 57.6971 43.7686C56.7282 42.4282 57.2024 40.9093 58.7747 40.4002C60.0638 39.9835 61.3693 39.6161 62.6748 39.2528C63.1941 39.107 63.58 38.8505 63.8776 38.3866C64.5304 37.3767 65.2262 36.3955 65.9077 35.4041C67.205 33.5218 68.7363 33.532 70.0438 35.4348C70.7253 36.4263 71.4211 37.4074 72.0759 38.4174C72.3612 38.8566 72.7287 39.0988 73.2213 39.2364C74.5022 39.5956 75.781 39.9589 77.0475 40.3653C78.7737 40.9195 79.2458 42.3974 78.1703 43.863C77.3985 44.9161 76.5959 45.9444 75.783 46.9646C75.4607 47.369 75.3212 47.7898 75.3355 48.305C75.3725 49.6597 75.3869 51.0165 75.3889 52.3733C75.391 54.1674 74.1204 55.087 72.4146 54.5143C71.2261 54.116 70.0438 53.6973 68.8758 53.2437C68.2375 52.9974 67.6504 53.0158 67.0202 53.258C65.8995 53.6911 64.7603 54.0812 63.6251 54.4732C61.7901 55.1075 60.538 54.2043 60.54 52.2543C60.5421 51.62 60.5421 50.9816 60.5421 50.0354Z" fill="#1F3965"/>
<path d="M85.4401 54.1264C85.9533 52.6464 85.1404 51.3676 84.0525 50.1689C83.6933 49.7727 83.3772 49.3335 83.0693 48.8921C82.2523 47.7221 82.6567 46.4659 84.0053 46.0246C85.0501 45.6838 86.1093 45.378 87.1684 45.0845C87.6898 44.9387 88.0696 44.6657 88.3672 44.2059C88.9502 43.3028 89.5639 42.4201 90.1879 41.5436C91.0356 40.3511 92.3945 40.3326 93.2546 41.5108C93.8888 42.3791 94.5005 43.2638 95.0753 44.171C95.4016 44.6842 95.8245 44.9654 96.4013 45.1153C97.366 45.3657 98.3226 45.651 99.275 45.9466C100.856 46.4351 101.276 47.718 100.291 49.042C99.665 49.8836 99.0287 50.719 98.3698 51.536C98.0598 51.9178 97.9387 52.318 97.9551 52.8066C97.9921 53.9068 97.9941 55.007 98.0085 56.1072C98.029 57.6426 96.9042 58.4514 95.4447 57.9443C94.4061 57.5831 93.3654 57.2218 92.337 56.8339C91.9286 56.6799 91.5611 56.682 91.1526 56.8359C90.0996 57.2321 89.0384 57.6098 87.969 57.9608C86.5362 58.4308 85.4565 57.6426 85.4422 56.138C85.436 55.5468 85.4401 54.9577 85.4401 54.1264Z" fill="#1F3965"/>
<path d="M37.9296 54.2166C38.3361 52.7407 37.7182 51.4167 36.579 50.2467C36.2075 49.8649 35.9119 49.4051 35.5958 48.97C34.6823 47.7096 35.1011 46.439 36.5975 45.971C37.5971 45.657 38.605 45.3655 39.619 45.0946C40.1403 44.955 40.5262 44.6922 40.8239 44.2283C41.4048 43.3252 42.0185 42.4405 42.6446 41.566C43.5231 40.3365 44.884 40.3303 45.7605 41.5517C46.327 42.3419 46.9018 43.1302 47.4047 43.9615C47.8049 44.6224 48.3366 44.9899 49.0796 45.1726C50.0464 45.4107 51.0009 45.7083 51.9452 46.0265C53.2937 46.4822 53.6981 47.7363 52.8627 48.9002C52.1771 49.8567 51.4443 50.7804 50.7197 51.7062C50.4857 52.0038 50.4016 52.3035 50.4221 52.6935C50.4796 53.8697 50.5021 55.0479 50.4939 56.224C50.4857 57.626 49.3834 58.4101 48.0369 57.975C46.9654 57.6301 45.9021 57.2586 44.8532 56.8542C44.3873 56.6756 43.9788 56.6879 43.5231 56.8604C42.5194 57.2422 41.5033 57.5932 40.4872 57.9442C39.0278 58.4491 37.9132 57.6363 37.9337 56.0927C37.9358 55.5323 37.9296 54.9678 37.9296 54.2166Z" fill="#1F3965"/>
</svg>
