<svg width="136" height="136" viewBox="0 0 136 136" fill="none" xmlns="http://www.w3.org/2000/svg">
<path d="M49.697 60.7572C49.5835 69.5366 55.9822 77.5957 65.215 79.0263C75.1523 80.5649 84.4986 73.7502 86.0987 63.8284C86.4829 61.4475 86.447 59.0525 85.8619 56.6956C85.7206 56.1294 85.8121 55.7252 86.2062 55.2811C87.7427 53.5484 89.2493 51.7917 90.736 50.015C91.15 49.5208 91.4227 49.4528 91.9043 49.947C92.9472 51.0154 94.0717 51.9998 95.1285 53.0542C97.0889 55.011 97.5387 57.722 96.3386 60.221C95.8848 61.1653 95.4609 62.1297 94.9215 63.0221C93.6179 65.1749 93.4985 67.4658 93.8647 69.8847C94.0797 71.3013 94.422 72.7218 94.1473 74.1904C93.7612 76.2492 92.6765 77.7758 90.8057 78.6822C89.3767 79.3764 87.9059 79.9847 86.451 80.6229C85.1593 81.1891 84.1582 82.0915 83.39 83.2679C82.6954 84.3324 81.9988 85.3948 81.3102 86.4632C79.5468 89.1942 76.9436 90.1666 73.8487 89.2403C72.7083 88.8981 71.5639 88.562 70.4295 88.1999C68.7915 87.6757 67.1655 87.6877 65.5275 88.2159C64.2756 88.618 63.0158 89.0022 61.748 89.3463C58.9895 90.0926 56.4041 89.0782 54.8358 86.6673C54.1432 85.6029 53.4367 84.5464 52.758 83.472C51.9062 82.1255 50.7797 81.1191 49.3089 80.5009C48.3257 80.0867 47.3724 79.5865 46.3693 79.2284C43.2525 78.1139 41.1349 75.619 41.937 71.1672C42.1659 69.8967 42.2435 68.5942 42.3549 67.3057C42.4485 66.2353 42.1838 65.2309 41.6942 64.2766C41.0473 63.0121 40.4144 61.7396 39.7835 60.4671C38.3983 57.666 38.8561 55.009 41.107 52.8301C42.0007 51.9638 42.9042 51.1094 43.8178 50.2651C45.0637 49.1127 45.8638 47.7181 46.218 46.0515C46.4827 44.809 46.7892 43.5745 47.0937 42.34C47.8261 39.3609 50.099 37.5462 53.156 37.4341C54.593 37.3821 56.026 37.248 57.461 37.16C58.7467 37.082 59.8592 36.5618 60.8782 35.8135C62.0206 34.9752 63.1491 34.1148 64.2895 33.2745C66.5962 31.5778 69.3965 31.5758 71.7052 33.2645C72.6486 33.9548 73.6019 34.635 74.5155 35.3613C76.1395 36.6558 78.0024 37.198 80.0424 37.2861C81.3798 37.3441 82.7153 37.4501 84.0468 37.5862C84.7673 37.6602 85.434 37.9543 86.0609 38.3245C86.4212 38.5365 86.4829 38.7486 86.1883 39.0888C84.1563 41.4137 82.1242 43.7366 80.122 46.0875C79.6782 46.6097 79.3836 46.3436 79.0095 46.0595C75.1105 43.1103 70.6802 41.9099 65.8937 42.5121C59.1268 43.3624 54.2387 47.0218 51.2952 53.2163C50.1587 55.6012 49.6393 58.1622 49.697 60.7572Z" fill="#1F3965"/>
<path d="M68.7954 70.1583C67.9376 70.1523 67.1893 69.8622 66.5803 69.252C63.7163 66.3788 60.8423 63.5157 58.0023 60.6186C56.7802 59.3721 56.826 57.4614 58.0241 56.2309C59.2382 54.9824 61.1707 54.9284 62.4425 56.1729C64.381 58.0716 66.2917 59.9964 68.1804 61.9451C68.6581 62.4393 68.8989 62.3873 69.3308 61.8871C76.1016 54.02 82.8944 46.169 89.6791 38.3139C90.1031 37.8237 90.521 37.3295 90.945 36.8414C92.1212 35.4868 93.992 35.3028 95.3474 36.4072C96.6908 37.5016 96.9316 39.4304 95.7892 40.8209C94.6687 42.1854 93.4168 43.4399 92.2645 44.7784C87.3406 50.4927 82.4406 56.2269 77.5107 61.9351C75.4767 64.29 73.3969 66.6029 71.325 68.9258C70.6563 69.6781 69.8502 70.1823 68.7954 70.1583Z" fill="#1F3965"/>
<path d="M92.8619 97.9551C91.409 97.701 89.9681 97.4489 88.5251 97.1988C87.4743 97.0147 86.4155 96.8706 85.3766 96.6325C84.8233 96.5045 84.5645 96.7026 84.3118 97.1467C83.2171 99.0755 82.0986 100.99 80.99 102.911C80.8905 103.083 80.797 103.259 80.6915 103.429C80.5203 103.705 80.3571 104.003 79.969 103.993C79.5471 103.983 79.3919 103.659 79.2426 103.337C78.2176 101.12 77.1906 98.9034 76.1657 96.6866C75.4969 95.238 74.8282 93.7894 74.1635 92.3409C74.0819 92.1628 73.9246 91.9547 74.0421 91.7807C74.1913 91.5606 74.4461 91.7026 74.661 91.7266C78.0942 92.1288 80.8607 90.9744 82.8589 88.1152C83.8281 86.7287 84.6063 85.2101 85.691 83.9016C86.7359 82.6411 86.8533 82.6571 87.536 84.1337C89.367 88.0932 91.206 92.0488 93.039 96.0063C93.2062 96.3685 93.3993 96.7266 93.5008 97.1067C93.6441 97.6269 93.3714 97.901 92.8619 97.9551Z" fill="#1F3965"/>
<path d="M50.9423 96.5945C48.6694 96.9907 46.3985 97.3868 44.1257 97.783C43.9306 97.817 43.7336 97.843 43.5385 97.885C43.1883 97.961 42.838 98.0271 42.5872 97.6829C42.3384 97.3428 42.5096 97.0107 42.6549 96.6945C43.7814 94.2496 44.9138 91.8066 46.0463 89.3637C46.9578 87.3949 47.8833 85.4342 48.7729 83.4574C49.0177 82.9112 49.2645 82.8452 49.6964 83.2413C50.385 83.8696 50.9144 84.6218 51.418 85.3941C52.031 86.3325 52.5763 87.3189 53.2311 88.2252C55.2154 90.9763 57.9281 92.0968 61.2677 91.7426C61.5066 91.7166 61.8031 91.5405 61.9623 91.7726C62.1076 91.9867 61.9026 92.2468 61.8011 92.4689C60.1273 96.0883 58.4495 99.7077 56.7717 103.325C56.6225 103.647 56.4732 103.975 56.0513 103.989C55.6234 104.003 55.4701 103.663 55.295 103.363C54.0948 101.292 52.9007 99.2215 51.6966 97.1527C51.5294 96.8646 51.4199 96.4685 50.9423 96.5945Z" fill="#1F3965"/>
</svg>
