<svg width="136" height="136" viewBox="0 0 136 136" fill="none" xmlns="http://www.w3.org/2000/svg">
<path d="M83.7889 32.0005C89.879 32.0005 95.9692 31.9984 102.061 32.0026C105.012 32.0048 106.995 33.9694 106.997 36.9047C107.001 46.1125 107.001 55.3182 106.997 64.5259C106.995 67.4465 104.993 69.4492 102.053 69.4576C96.7312 69.4703 91.4074 69.4766 86.0857 69.4449C85.2939 69.4407 85.0031 69.6374 85.0498 70.46C85.1177 71.6697 85.0859 72.8857 85.0583 74.0996C85.0477 74.5881 85.192 74.9222 85.5805 75.2479C86.7204 76.208 86.9942 77.5551 86.3808 78.8155C85.8267 79.9512 84.5573 80.6533 83.3919 80.4735C81.9294 80.2451 80.9317 79.2702 80.764 77.811C80.6473 76.8023 81.0145 75.9267 81.8041 75.2881C82.2011 74.9666 82.3327 74.6113 82.3263 74.1292C82.3094 72.9153 82.2796 71.6993 82.3348 70.4896C82.3709 69.7008 82.1204 69.4428 81.3053 69.447C76.1152 69.4809 70.9251 69.4661 65.735 69.464C62.3386 69.4618 60.3794 67.4993 60.373 64.0945C60.3709 62.4598 60.3921 60.8229 60.3645 59.1882C60.3539 58.5305 60.6129 58.3063 61.256 58.3148C63.0561 58.3381 64.8583 58.3127 66.6584 58.3212C67.7898 58.3254 68.7854 57.9638 69.6706 57.2743C71.9228 55.5191 74.1835 53.7744 76.4315 52.0127C78.1297 50.6804 78.8068 48.9548 78.3207 46.8358C78.2082 46.3409 78.3589 46.0617 78.7389 45.7699C80.9848 44.0506 83.2158 42.308 85.4489 40.5739C85.6357 40.4279 85.8352 40.2905 86.0008 40.1234C86.4657 39.6518 86.5718 39.1147 86.1749 38.5542C85.814 38.0446 85.1199 37.9325 84.5446 38.328C83.8908 38.7763 83.2794 39.2839 82.6511 39.7703C80.8956 41.1301 79.1316 42.4814 77.391 43.8602C76.9728 44.1923 76.6777 44.188 76.2044 43.911C74.347 42.8177 72.4535 42.8155 70.6895 44.0971C68.9361 45.3702 67.2485 46.7342 65.5461 48.0771C65.1088 48.4218 64.6567 48.5953 64.092 48.5762C63.1134 48.5445 62.1327 48.553 61.152 48.572C60.6277 48.5826 60.3645 48.4007 60.3666 47.8466C60.3772 44.1267 60.2987 40.4047 60.4006 36.689C60.4791 33.8235 62.5318 32.0132 65.4336 32.0132C71.5556 32.0005 77.6712 32.0005 83.7889 32.0005ZM83.653 63.8471C89.2634 63.8471 94.8717 63.8471 100.482 63.8471C100.798 63.8471 101.123 63.8682 101.433 63.8175C102.066 63.716 102.433 63.3226 102.429 62.684C102.422 62.0453 102.047 61.6625 101.416 61.561C101.157 61.5208 100.888 61.5356 100.624 61.5356C89.3526 61.5356 78.0787 61.5335 66.807 61.5356C66.5162 61.5356 66.2148 61.5124 65.9388 61.58C65.3232 61.7281 64.9836 62.1299 65.0345 62.7833C65.0812 63.3924 65.4336 63.7456 66.0343 63.8238C66.3209 63.8619 66.616 63.845 66.9068 63.845C72.4853 63.8471 78.0681 63.8471 83.653 63.8471ZM87.4952 57.8432C91.7577 57.8432 96.0222 57.8432 100.285 57.8432C100.656 57.8432 101.028 57.858 101.395 57.8221C102.049 57.7586 102.399 57.3483 102.424 56.7224C102.45 56.0795 102.072 55.6882 101.454 55.5614C101.2 55.5085 100.928 55.5296 100.663 55.5296C91.8978 55.5275 83.133 55.5275 74.3682 55.5296C74.1028 55.5296 73.829 55.5064 73.5764 55.5677C72.9226 55.7221 72.583 56.1408 72.6424 56.8302C72.7018 57.5366 73.1115 57.8411 74.071 57.8411C78.5457 57.8453 83.0205 57.8432 87.4952 57.8432ZM91.0041 51.8499C94.3368 51.8499 97.6695 51.8563 101.002 51.8457C101.913 51.8436 102.416 51.4248 102.435 50.7206C102.456 49.991 101.919 49.549 100.979 49.5215C100.794 49.5173 100.609 49.5194 100.423 49.5194C94.1797 49.5194 87.9389 49.5194 81.6959 49.5194C81.3796 49.5194 81.0591 49.5004 80.7449 49.5342C79.9998 49.6146 79.5434 50.1961 79.6623 50.9088C79.796 51.7188 80.4031 51.8478 81.0845 51.8478C84.3918 51.852 87.699 51.8499 91.0041 51.8499ZM92.715 43.5113C90.0977 43.5113 87.4803 43.5113 84.8609 43.5113C84.5446 43.5113 84.2283 43.4986 83.9205 43.6107C83.4195 43.7926 83.1372 44.1225 83.1224 44.6681C83.1075 45.2391 83.3559 45.6197 83.895 45.8207C84.2283 45.9454 84.5701 45.9327 84.914 45.9327C90.1232 45.9327 95.3323 45.9327 100.542 45.9327C100.701 45.9327 100.86 45.937 101.017 45.9264C101.898 45.8693 102.422 45.4252 102.431 44.7315C102.439 44.0379 101.911 43.5726 101.043 43.5177C100.832 43.505 100.62 43.5113 100.408 43.5113C97.8457 43.5092 95.2793 43.5092 92.715 43.5113ZM72.7018 37.5878C72.7018 37.5899 72.7018 37.5899 72.7018 37.592C70.5876 37.592 68.4733 37.5793 66.3591 37.5984C65.4527 37.6068 65.0345 37.9854 65.0303 38.7107C65.026 39.4255 65.4845 39.9056 66.3124 39.9077C70.5664 39.9246 74.8225 39.9183 79.0764 39.9077C79.3036 39.9077 79.5477 39.8252 79.7536 39.7195C80.1951 39.4911 80.4116 39.1041 80.3373 38.6092C80.2609 38.0975 79.9743 37.7295 79.4394 37.6364C79.155 37.5878 78.8599 37.5899 78.5712 37.5899C76.6119 37.5878 74.6569 37.5878 72.7018 37.5878ZM96.0456 37.5899C96.0456 37.5941 96.0456 37.5984 96.0456 37.6026C94.2986 37.6026 92.5537 37.5899 90.8067 37.6089C90.1274 37.6153 89.7092 37.9854 89.6753 38.679C89.6392 39.3727 90.0467 39.7428 90.6878 39.8887C90.8406 39.9225 91.0041 39.9183 91.1612 39.9183C94.4153 39.9204 97.6695 39.9246 100.926 39.9162C101.87 39.9141 102.427 39.47 102.435 38.7615C102.444 38.034 101.917 37.5984 100.966 37.592C99.3252 37.5814 97.6865 37.5899 96.0456 37.5899Z" fill="#1F3965"/>
<path d="M37.1444 80.814C37.1444 73.5328 37.1444 66.2515 37.1422 58.9682C37.1422 58.651 37.1677 58.3274 37.1083 58.0208C36.9852 57.3716 36.5649 56.9613 35.8962 57.0036C35.2785 57.0438 34.8815 57.4308 34.8369 58.0842C34.8157 58.3993 34.8178 58.7166 34.8178 59.0338C34.8178 65.0229 34.8178 71.0119 34.8157 77.001C34.8157 78.2508 34.6926 78.3418 33.4911 77.9294C30.8568 77.0243 28.9379 74.698 29.0015 71.8007C29.1077 67.0277 29.061 62.2504 29.044 57.4752C29.0355 55.0664 30.1584 53.3556 32.1835 52.1713C33.7501 51.2535 35.4653 50.8707 37.276 50.8707C46.4398 50.8728 55.6016 50.8644 64.7654 50.8834C65.4681 50.8855 66.0221 50.7121 66.574 50.268C68.3019 48.8743 70.0659 47.5209 71.8257 46.1674C73.1566 45.146 74.6998 45.2919 75.6211 46.5016C76.5084 47.6647 76.2303 49.1662 74.9291 50.1813C72.7618 51.8731 70.5817 53.5501 68.4229 55.2547C67.767 55.7728 67.0537 56.0096 66.2237 56.0054C63.6552 55.9927 61.0867 56.016 58.5182 55.9885C57.926 55.9821 57.5269 56.1767 57.1681 56.6335C56.4358 57.5682 55.6865 58.4945 54.8926 59.3785C54.4001 59.9262 54.2218 60.5014 54.2218 61.2353C54.2345 71.3926 54.2218 81.5499 54.2133 91.7072C54.2112 95.4546 54.1899 99.1999 54.2133 102.947C54.2175 103.715 54.0095 104.026 53.1816 103.998C51.4092 103.941 49.6324 103.943 47.8599 103.998C47.0512 104.024 46.8219 103.762 46.824 102.964C46.8516 96.1567 46.8389 89.3514 46.8389 82.5439C46.8389 82.2541 46.8665 81.956 46.8113 81.6747C46.6861 81.0233 46.2955 80.6448 45.595 80.6807C44.9348 80.7146 44.5782 81.0741 44.5294 81.7276C44.506 82.0427 44.5103 82.3599 44.5103 82.6771C44.5103 89.3789 44.5103 96.0806 44.5081 102.78C44.5081 103.979 44.5039 103.979 43.3428 103.981C41.6488 103.984 39.9527 103.984 38.2588 103.981C37.1529 103.979 37.1486 103.977 37.1486 102.897C37.1422 95.535 37.1444 88.1734 37.1444 80.814Z" fill="#1F3965"/>
<path d="M71.0531 102.546C67.7713 102.546 64.4874 102.55 61.2057 102.543C59.6009 102.541 59.0914 101.873 59.5117 100.344C61.7746 92.126 72.2609 88.9242 78.8095 94.4459C80.7242 96.0595 82.051 98.0432 82.7345 100.45C83.1229 101.816 82.5774 102.539 81.1382 102.541C77.7758 102.55 74.4155 102.546 71.0531 102.546Z" fill="#1F3965"/>
<path d="M94.9294 102.546C91.6731 102.546 88.4147 102.548 85.1584 102.546C83.4326 102.543 82.9253 101.846 83.4432 100.188C85.0501 95.0317 89.7754 91.6354 95.2648 91.6946C100.491 91.7496 105.157 95.3468 106.638 100.465C107.012 101.755 106.452 102.535 105.097 102.539C101.707 102.554 98.3194 102.543 94.9294 102.546Z" fill="#1F3965"/>
<path d="M52.3432 42.6676C52.3135 44.1987 51.5175 46.747 49.2886 48.6313C46.805 50.7334 43.4659 50.4711 41.3644 47.9799C38.9785 45.1503 38.3459 41.8703 39.437 38.3449C40.2542 35.7015 42.7697 34.2063 45.8646 34.3374C50.1037 34.5193 52.3836 36.9894 52.3432 42.6676Z" fill="#1F3965"/>
<path d="M77.2675 84.1702C77.2569 87.5221 74.4103 90.3327 71.0755 90.2883C67.6748 90.2417 64.9386 87.4798 64.9492 84.1046C64.9599 80.7485 67.7958 77.9443 71.1392 77.9866C74.5355 78.031 77.2802 80.7992 77.2675 84.1702Z" fill="#1F3965"/>
<path d="M101.12 84.1301C101.122 87.5476 98.3818 90.3095 95.0045 90.2947C91.6506 90.282 88.821 87.4714 88.8125 84.147C88.804 80.8246 91.674 77.9612 94.9876 77.9887C98.42 78.0183 101.118 80.7189 101.12 84.1301Z" fill="#1F3965"/>
</svg>
