<svg xmlns="http://www.w3.org/2000/svg" width="100" height="125" viewBox="0 0 100 125"><g transform="translate(-17239 -70)"><rect width="100" height="125" rx="15" transform="translate(17239 70)" fill="#fff" opacity="0"/><g transform="translate(17673.445 76.946)"><path d="M-344.627,259.787h-19.024c-.809,0-.811,0-.812-.82q0-9.121,0-18.241a2.823,2.823,0,0,1,2.985-3.032q16.844,0,33.689,0a2.82,2.82,0,0,1,2.99,3.028c0,6.1-.006,12.2.014,18.3,0,.6-.162.78-.761.778C-331.905,259.779-338.266,259.787-344.627,259.787Zm.015-10.519a3.8,3.8,0,0,0-3.737,3.773,3.808,3.808,0,0,0,3.672,3.78,3.806,3.806,0,0,0,3.766-3.744A3.806,3.806,0,0,0-344.612,249.268Zm-10.316-5.817a1.231,1.231,0,0,0,.427.822q1.356,1.369,2.705,2.745c.867.88.851.862,1.708.013.331-.328.281-.518-.022-.812-.793-.771-1.549-1.581-2.34-2.355-.3-.292-.287-.5.007-.783.625-.6,1.225-1.234,1.835-1.854.946-.96.937-.951-.031-1.86-.254-.238-.4-.208-.627.021-1.1,1.134-2.214,2.257-3.324,3.383A1.156,1.156,0,0,0-354.928,243.451Zm20.6.029a1.309,1.309,0,0,0-.453-.831q-1.335-1.348-2.663-2.7c-.887-.9-.877-.89-1.748,0-.267.274-.29.448-.007.723.764.744,1.476,1.545,2.26,2.266.462.425.411.7-.022,1.087-.6.543-1.144,1.147-1.713,1.724-.9.918-.9.91.045,1.814.235.226.387.258.625.012,1.114-1.15,2.242-2.286,3.364-3.427A1.073,1.073,0,0,0-334.331,243.48Zm-12.42,4.207c.2-.022.274-.233.387-.384,1.5-2.021,3-4.038,4.484-6.072.816-1.12.961-.814-.313-1.807-.27-.211-.422-.168-.616.1q-2.5,3.4-5.008,6.793c-.092.124-.214.242-.159.426A5.135,5.135,0,0,0-346.752,247.687Z" transform="translate(-40.313 -176.745)" fill="#1f3965"/><path d="M-313.731,41.023a.549.549,0,0,1-.242-.456,10.058,10.058,0,0,0-1.551-3.853q-1-1.522-2.022-3.035c-.591-.881-1-.937-1.847-.26-.637.512-1.27,1.029-1.913,1.533a8.036,8.036,0,0,1-4.954,1.817,10.078,10.078,0,0,0-5.676,1.775c-1.956,1.342-3.95,2.628-5.91,3.962-.4.274-.592.242-.8-.206-.4-.869-.85-1.714-1.275-2.571a2.632,2.632,0,0,1-.165-2.139,4.3,4.3,0,0,0-2.456-5.668c-.121-.044-.311-.069-.3-.245.016-.211.233-.254.385-.33a31.084,31.084,0,0,1,8.3-2.8,30.222,30.222,0,0,1,5.765-.49c2.711.025,5.422,0,8.133.011a8.032,8.032,0,0,1,7.8,7.379A12.563,12.563,0,0,1-313.731,41.023Z" transform="translate(-58.753 0)" fill="#1f3965"/><path d="M-293.966,160.312c-2.132,0-4.265-.013-6.4.01a.941.941,0,0,1-.942-.558,25.149,25.149,0,0,1-3.121-9.9c-.052-.536-.108-1.069-.107-1.608,0-.323.129-.472.46-.47,1.884.012,1.486-.193,1.53,1.369.016.577-.033,1.161.036,1.731a2.731,2.731,0,0,0,2.531,2.592,8.578,8.578,0,0,0,2.443,0,2.817,2.817,0,0,0,2.562-2.95c.027-.826.027-.826.877-.828h.12c1.095,0,.98-.038,1.015.94a2.776,2.776,0,0,0,2.544,2.837,8.537,8.537,0,0,0,2.443,0,2.809,2.809,0,0,0,2.569-2.942c.017-.657.036-1.317-.005-1.972-.037-.581.125-.813.756-.794,1.321.038,1.326,0,1.221,1.315a25.959,25.959,0,0,1-3.108,10.52,1.175,1.175,0,0,1-1.208.721C-289.82,160.288-291.894,160.312-293.966,160.312Z" transform="translate(-90.971 -100.856)" fill="#1f3965"/><path d="M-288.206,84.033c-1.276,0-2.551-.007-3.826,0-.889.006-1.259.342-1.239,1.228.013.576-.215.747-.735.685a3.313,3.313,0,0,0-.358,0c-.876-.007-.933.075-.934-.843,0-.736-.407-1.065-1.22-1.068-2.511-.008-5.022,0-7.533-.011-.268,0-.708.159-.756-.241-.058-.478-.291-1.073.251-1.435,2.121-1.415,4.2-2.9,6.39-4.206a8.668,8.668,0,0,1,4.206-.966,9.811,9.811,0,0,0,5.973-2.437c1.149-.952,1.145-.932,1.994.3a11.038,11.038,0,0,1,2.2,4.784,33.786,33.786,0,0,1,.075,3.82c.006.384-.269.381-.537.381h-3.946Z" transform="translate(-90.657 -38.659)" fill="#1f3965"/><path d="M-101.018,299.878q0-3.018,0-6.037c0-.636.053-.678.567-.361a10.359,10.359,0,0,1,5.249,8.846c.048,1.194,0,2.391.016,3.586.008.436-.143.6-.586.593-1.534-.018-3.069-.022-4.6,0-.493.008-.657-.157-.652-.651C-101.005,303.863-101.018,301.871-101.018,299.878Z" transform="translate(-262.261 -223.456)" fill="#1f3965"/><path d="M-406.606,299.944c0,1.972-.016,3.945.01,5.917.007.542-.157.729-.71.717-1.493-.032-2.988-.027-4.482,0-.492.008-.673-.154-.65-.65.083-1.865-.187-3.748.258-5.6a10.532,10.532,0,0,1,4.9-6.718c.177-.109.375-.331.585-.206.176.1.087.369.088.562Q-406.6,296.955-406.606,299.944Z" transform="translate(0 -223.525)" fill="#1f3965"/><path d="M-278.673,147.874c.5,0,.994.007,1.491,0,.324-.006.47.127.467.458-.009.835.014,1.671-.012,2.505a.919.919,0,0,1-.957.938c-.655.023-1.313.023-1.968,0a.917.917,0,0,1-.962-.933c-.027-.834,0-1.67-.012-2.505,0-.326.133-.47.461-.463C-279.668,147.881-279.17,147.874-278.673,147.874Z" transform="translate(-111.001 -100.894)" fill="#1f3965"/><path d="M-218.783,147.874c.5,0,.995.008,1.491,0,.329-.007.464.139.461.464-.009.835.015,1.671-.012,2.505a.919.919,0,0,1-.963.933c-.655.023-1.313.023-1.968,0a.918.918,0,0,1-.956-.939c-.026-.834,0-1.67-.011-2.505,0-.331.144-.464.468-.457C-219.777,147.881-219.28,147.873-218.783,147.874Z" transform="translate(-161.428 -100.894)" fill="#1f3965"/><path d="M-326.237,151.641c-.007.167.119.329-.037.419s-.257-.065-.36-.148c-.51-.414-1.041-.807-1.515-1.26a1.554,1.554,0,0,1-.36-1.714,1.571,1.571,0,0,1,1.25-1.078c.438-.092.745,0,.739.549A20.861,20.861,0,0,0-326.237,151.641Z" transform="translate(-70.584 -100.861)" fill="#1f3965"/><path d="M-161.025,149.56a1.483,1.483,0,0,1-.5,1.172c-.5.432-1.012.839-1.523,1.253-.09.073-.2.179-.317.1s-.046-.217-.031-.331a23.545,23.545,0,0,0,.29-3.329c-.007-.5.255-.611.689-.549A1.648,1.648,0,0,1-161.025,149.56Z" transform="translate(-209.674 -100.887)" fill="#1f3965"/><path d="M-246.759,323.515a1.9,1.9,0,0,1-1.984,1.937,1.9,1.9,0,0,1-1.923-2,1.9,1.9,0,0,1,1.953-1.908A1.909,1.909,0,0,1-246.759,323.515Z" transform="translate(-136.23 -247.199)" fill="#1f3965"/></g></g></svg>