<svg xmlns="http://www.w3.org/2000/svg" width="570.001" height="396.767" viewBox="0 0 570.001 396.767">
  <g id="_4" data-name="4" transform="translate(16583.002 1767)">
    <g id="Group_169700" data-name="Group 169700">
      <g id="Group_169352" data-name="Group 169352" transform="translate(-6240.001 -3342.441)">
        <path id="Path_80300" data-name="Path 80300" d="M678.293,317.954c-4.821,39.255-32.637,32.723-37.029,78.366-1.567,16.291,10.289,26.532,16.18,40.637,6.524,15.59,4.213,29.6-4.6,40.283H169.362c-10.688-4.906-20.887-10.126-29.764-16.394-12.221-8.612-21.893-19.228-26.825-33.782-4.452-13.151-7.882-25.838,3.813-35.813,6.349-5.423,12.958-9.608,18.7-14.635a45.448,45.448,0,0,0,11.033-13.655c21.076-41.21-5.96-77.527-15.889-118.763-.958-4.007-1.835-8.054-2.534-12.115-1.821-10.343-2.668-20.836-1.588-31.057a68.448,68.448,0,0,1,8.478-27.132c7.373-12.919,26.472-32,46.995-28.359,15.421,2.739,25.125,17.811,39.049,23.262,17.547,6.868,37.014,1.376,50.159-8.721,25.566-19.637,41.949-56.963,85.645-53.542,14.816,1.158,24.818,13.082,37.809,18.547,17.859,7.522,35.476,7.467,52.544.149,19.628-8.421,33.095-24.065,52.368-33.019a130.4,130.4,0,0,1,20.349-7.454c15.5-4.279,32.458-5.792,48.448-2.494a94.223,94.223,0,0,1,9.65,2.494c53.458,16.775,55.974,71.721,53.458,111.813-1.154,18.369-15.58,50.049-4.923,69.029S682.955,279.995,678.293,317.954Z" transform="translate(-10451.623 1494.97)" fill="rgba(252,79,25,0.99)" opacity="0.1"/>
      </g>
      <g id="Group_169567" data-name="Group 169567" transform="translate(-16630.205 -1754.764)">
        <g id="Group_169566" data-name="Group 169566" transform="translate(108.459 120.323)">
          <g id="Group_169356" data-name="Group 169356" transform="translate(316.657 15.064)">
            <g id="Group_169354" data-name="Group 169354" transform="translate(0 2.813)" opacity="0.5">
              <path id="Path_85137" data-name="Path 85137" d="M1607.995,281.03s-5.444-43.122,9.781-73.462a4.826,4.826,0,0,1,9.008,1.12c.017.073.033.148.049.223C1628.418,216.45,1612.251,253.95,1607.995,281.03Z" transform="translate(-1607.048 -204.927)" fill="#a8d29f"/>
            </g>
            <g id="Group_169355" data-name="Group 169355" transform="translate(1.328)" opacity="0.5">
              <path id="Path_85138" data-name="Path 85138" d="M1613.334,283.169s8.329-57.672,39.077-89.928a5.12,5.12,0,0,1,7.054-.407c1.325,1.173,2.314,3.275,2.083,7C1660.934,209.765,1627.93,250.911,1613.334,283.169Z" transform="translate(-1613.334 -191.615)" fill="#a8d29f"/>
            </g>
          </g>
          <g id="Group_169439" data-name="Group 169439" transform="translate(30.232 -32.097)" opacity="0.4">
            <g id="Group_169395" data-name="Group 169395" transform="translate(69.902 11.44)">
              <g id="Group_169383" data-name="Group 169383">
                <rect id="Rectangle_5618" data-name="Rectangle 5618" width="24.056" height="82.592" rx="2" transform="translate(24.056 82.592) rotate(180)" fill="#8c9df4"/>
              </g>
              <g id="Group_169384" data-name="Group 169384" transform="translate(6.39 59.14)">
                <path id="Path_85155" data-name="Path 85155" d="M623.867,592.034a5.638,5.638,0,1,0-5.638,5.638A5.638,5.638,0,0,0,623.867,592.034Z" transform="translate(-612.59 -586.396)" fill="#505aba"/>
              </g>
              <g id="Group_169385" data-name="Group 169385" transform="translate(5.793 58.576)">
                <path id="Path_85156" data-name="Path 85156" d="M616,596.2a6.235,6.235,0,1,1,6.235-6.236A6.243,6.243,0,0,1,616,596.2Zm0-11.277a5.041,5.041,0,1,0,5.042,5.041A5.047,5.047,0,0,0,616,584.919Z" transform="translate(-609.764 -583.725)" fill="#fff"/>
              </g>
              <g id="Group_169386" data-name="Group 169386" transform="translate(4.981 3.78)">
                <rect id="Rectangle_5619" data-name="Rectangle 5619" width="14.088" height="46.425" rx="1" transform="translate(14.088 46.425) rotate(180)" fill="#aec3ff"/>
              </g>
              <g id="Group_169387" data-name="Group 169387" transform="translate(6.632 5.46)">
                <path id="Rectangle_5620" data-name="Rectangle 5620" d="M.931,0H9.569A.931.931,0,0,1,10.5.931v0a.931.931,0,0,1-.931.931H.931A.931.931,0,0,1,0,.931v0A.931.931,0,0,1,.931,0Z" transform="translate(10.5 1.862) rotate(180)" fill="#f99746"/>
              </g>
              <g id="Group_169394" data-name="Group 169394" transform="translate(8.486 15.412)">
                <g id="Group_169388" data-name="Group 169388" transform="translate(5.338 19.252)">
                  <path id="Path_85157" data-name="Path 85157" d="M647.775,471.025v9.569a.466.466,0,0,0,.465.466h0a.466.466,0,0,0,.466-.466v-9.569a.466.466,0,0,0-.466-.466h0A.466.466,0,0,0,647.775,471.025Z" transform="translate(-647.775 -470.559)" fill="#505aba"/>
                </g>
                <g id="Group_169389" data-name="Group 169389" transform="translate(5.338 6.087)">
                  <path id="Path_85158" data-name="Path 85158" d="M647.775,408.721v9.569a.466.466,0,0,0,.465.466h0a.466.466,0,0,0,.466-.466v-9.569a.466.466,0,0,0-.466-.466h0A.466.466,0,0,0,647.775,408.721Z" transform="translate(-647.775 -408.255)" fill="#505aba"/>
                </g>
                <g id="Group_169390" data-name="Group 169390" transform="translate(0 19.252)">
                  <path id="Path_85159" data-name="Path 85159" d="M622.511,471.025v9.569a.466.466,0,0,0,.465.466h0a.466.466,0,0,0,.466-.466v-9.569a.466.466,0,0,0-.466-.466h0A.466.466,0,0,0,622.511,471.025Z" transform="translate(-622.511 -470.559)" fill="#505aba"/>
                </g>
                <g id="Group_169391" data-name="Group 169391" transform="translate(0 6.087)">
                  <path id="Path_85160" data-name="Path 85160" d="M622.511,408.721v9.569a.466.466,0,0,0,.465.466h0a.466.466,0,0,0,.466-.466v-9.569a.466.466,0,0,0-.466-.466h0A.466.466,0,0,0,622.511,408.721Z" transform="translate(-622.511 -408.255)" fill="#505aba"/>
                </g>
                <g id="Group_169392" data-name="Group 169392" transform="translate(2.778 16.551)">
                  <path id="Path_85161" data-name="Path 85161" d="M635.657,458.244v12.27a.465.465,0,0,0,.465.465h0a.465.465,0,0,0,.466-.465v-12.27a.465.465,0,0,0-.466-.465h0A.465.465,0,0,0,635.657,458.244Z" transform="translate(-635.657 -457.779)" fill="#505aba"/>
                </g>
                <g id="Group_169393" data-name="Group 169393" transform="translate(2.778)">
                  <path id="Path_85162" data-name="Path 85162" d="M635.657,379.915v12.27a.465.465,0,0,0,.465.465h0a.465.465,0,0,0,.466-.465v-12.27a.465.465,0,0,0-.466-.465h0A.465.465,0,0,0,635.657,379.915Z" transform="translate(-635.657 -379.45)" fill="#505aba"/>
                </g>
              </g>
            </g>
            <g id="Group_169695" data-name="Group 169695" transform="translate(39.902 11.44)">
              <g id="Group_169383-2" data-name="Group 169383">
                <rect id="Rectangle_5618-2" data-name="Rectangle 5618" width="24.056" height="82.592" rx="2" transform="translate(24.056 82.592) rotate(180)" fill="#8c9df4"/>
              </g>
              <g id="Group_169384-2" data-name="Group 169384" transform="translate(6.39 59.14)">
                <path id="Path_85155-2" data-name="Path 85155" d="M623.867,592.034a5.638,5.638,0,1,0-5.638,5.638A5.638,5.638,0,0,0,623.867,592.034Z" transform="translate(-612.59 -586.396)" fill="#505aba"/>
              </g>
              <g id="Group_169385-2" data-name="Group 169385" transform="translate(5.793 58.576)">
                <path id="Path_85156-2" data-name="Path 85156" d="M616,596.2a6.235,6.235,0,1,1,6.235-6.236A6.243,6.243,0,0,1,616,596.2Zm0-11.277a5.041,5.041,0,1,0,5.042,5.041A5.047,5.047,0,0,0,616,584.919Z" transform="translate(-609.764 -583.725)" fill="#fff"/>
              </g>
              <g id="Group_169386-2" data-name="Group 169386" transform="translate(4.981 3.78)">
                <rect id="Rectangle_5619-2" data-name="Rectangle 5619" width="14.088" height="46.425" rx="1" transform="translate(14.088 46.425) rotate(180)" fill="#aec3ff"/>
              </g>
              <g id="Group_169387-2" data-name="Group 169387" transform="translate(6.632 5.46)">
                <path id="Rectangle_5620-2" data-name="Rectangle 5620" d="M.931,0H9.569A.931.931,0,0,1,10.5.931v0a.931.931,0,0,1-.931.931H.931A.931.931,0,0,1,0,.931v0A.931.931,0,0,1,.931,0Z" transform="translate(10.5 1.862) rotate(180)" fill="#f99746"/>
              </g>
              <g id="Group_169394-2" data-name="Group 169394" transform="translate(8.486 15.412)">
                <g id="Group_169388-2" data-name="Group 169388" transform="translate(5.338 19.252)">
                  <path id="Path_85157-2" data-name="Path 85157" d="M647.775,471.025v9.569a.466.466,0,0,0,.465.466h0a.466.466,0,0,0,.466-.466v-9.569a.466.466,0,0,0-.466-.466h0A.466.466,0,0,0,647.775,471.025Z" transform="translate(-647.775 -470.559)" fill="#505aba"/>
                </g>
                <g id="Group_169389-2" data-name="Group 169389" transform="translate(5.338 6.087)">
                  <path id="Path_85158-2" data-name="Path 85158" d="M647.775,408.721v9.569a.466.466,0,0,0,.465.466h0a.466.466,0,0,0,.466-.466v-9.569a.466.466,0,0,0-.466-.466h0A.466.466,0,0,0,647.775,408.721Z" transform="translate(-647.775 -408.255)" fill="#505aba"/>
                </g>
                <g id="Group_169390-2" data-name="Group 169390" transform="translate(0 19.252)">
                  <path id="Path_85159-2" data-name="Path 85159" d="M622.511,471.025v9.569a.466.466,0,0,0,.465.466h0a.466.466,0,0,0,.466-.466v-9.569a.466.466,0,0,0-.466-.466h0A.466.466,0,0,0,622.511,471.025Z" transform="translate(-622.511 -470.559)" fill="#505aba"/>
                </g>
                <g id="Group_169391-2" data-name="Group 169391" transform="translate(0 6.087)">
                  <path id="Path_85160-2" data-name="Path 85160" d="M622.511,408.721v9.569a.466.466,0,0,0,.465.466h0a.466.466,0,0,0,.466-.466v-9.569a.466.466,0,0,0-.466-.466h0A.466.466,0,0,0,622.511,408.721Z" transform="translate(-622.511 -408.255)" fill="#505aba"/>
                </g>
                <g id="Group_169392-2" data-name="Group 169392" transform="translate(2.778 16.551)">
                  <path id="Path_85161-2" data-name="Path 85161" d="M635.657,458.244v12.27a.465.465,0,0,0,.465.465h0a.465.465,0,0,0,.466-.465v-12.27a.465.465,0,0,0-.466-.465h0A.465.465,0,0,0,635.657,458.244Z" transform="translate(-635.657 -457.779)" fill="#505aba"/>
                </g>
                <g id="Group_169393-2" data-name="Group 169393" transform="translate(2.778)">
                  <path id="Path_85162-2" data-name="Path 85162" d="M635.657,379.915v12.27a.465.465,0,0,0,.465.465h0a.465.465,0,0,0,.466-.465v-12.27a.465.465,0,0,0-.466-.465h0A.465.465,0,0,0,635.657,379.915Z" transform="translate(-635.657 -379.45)" fill="#505aba"/>
                </g>
              </g>
            </g>
            <g id="Group_169699" data-name="Group 169699" transform="translate(39.902 106.44)">
              <g id="Group_169383-3" data-name="Group 169383">
                <rect id="Rectangle_5618-3" data-name="Rectangle 5618" width="24.056" height="82.592" rx="2" transform="translate(24.056 82.592) rotate(180)" fill="#8c9df4"/>
              </g>
              <g id="Group_169384-3" data-name="Group 169384" transform="translate(6.39 59.14)">
                <path id="Path_85155-3" data-name="Path 85155" d="M623.867,592.034a5.638,5.638,0,1,0-5.638,5.638A5.638,5.638,0,0,0,623.867,592.034Z" transform="translate(-612.59 -586.396)" fill="#505aba"/>
              </g>
              <g id="Group_169385-3" data-name="Group 169385" transform="translate(5.793 58.576)">
                <path id="Path_85156-3" data-name="Path 85156" d="M616,596.2a6.235,6.235,0,1,1,6.235-6.236A6.243,6.243,0,0,1,616,596.2Zm0-11.277a5.041,5.041,0,1,0,5.042,5.041A5.047,5.047,0,0,0,616,584.919Z" transform="translate(-609.764 -583.725)" fill="#fff"/>
              </g>
              <g id="Group_169386-3" data-name="Group 169386" transform="translate(4.981 3.78)">
                <rect id="Rectangle_5619-3" data-name="Rectangle 5619" width="14.088" height="46.425" rx="1" transform="translate(14.088 46.425) rotate(180)" fill="#aec3ff"/>
              </g>
              <g id="Group_169387-3" data-name="Group 169387" transform="translate(6.632 5.46)">
                <path id="Rectangle_5620-3" data-name="Rectangle 5620" d="M.931,0H9.569A.931.931,0,0,1,10.5.931v0a.931.931,0,0,1-.931.931H.931A.931.931,0,0,1,0,.931v0A.931.931,0,0,1,.931,0Z" transform="translate(10.5 1.862) rotate(180)" fill="#f99746"/>
              </g>
              <g id="Group_169394-3" data-name="Group 169394" transform="translate(8.486 15.412)">
                <g id="Group_169388-3" data-name="Group 169388" transform="translate(5.338 19.252)">
                  <path id="Path_85157-3" data-name="Path 85157" d="M647.775,471.025v9.569a.466.466,0,0,0,.465.466h0a.466.466,0,0,0,.466-.466v-9.569a.466.466,0,0,0-.466-.466h0A.466.466,0,0,0,647.775,471.025Z" transform="translate(-647.775 -470.559)" fill="#505aba"/>
                </g>
                <g id="Group_169389-3" data-name="Group 169389" transform="translate(5.338 6.087)">
                  <path id="Path_85158-3" data-name="Path 85158" d="M647.775,408.721v9.569a.466.466,0,0,0,.465.466h0a.466.466,0,0,0,.466-.466v-9.569a.466.466,0,0,0-.466-.466h0A.466.466,0,0,0,647.775,408.721Z" transform="translate(-647.775 -408.255)" fill="#505aba"/>
                </g>
                <g id="Group_169390-3" data-name="Group 169390" transform="translate(0 19.252)">
                  <path id="Path_85159-3" data-name="Path 85159" d="M622.511,471.025v9.569a.466.466,0,0,0,.465.466h0a.466.466,0,0,0,.466-.466v-9.569a.466.466,0,0,0-.466-.466h0A.466.466,0,0,0,622.511,471.025Z" transform="translate(-622.511 -470.559)" fill="#505aba"/>
                </g>
                <g id="Group_169391-3" data-name="Group 169391" transform="translate(0 6.087)">
                  <path id="Path_85160-3" data-name="Path 85160" d="M622.511,408.721v9.569a.466.466,0,0,0,.465.466h0a.466.466,0,0,0,.466-.466v-9.569a.466.466,0,0,0-.466-.466h0A.466.466,0,0,0,622.511,408.721Z" transform="translate(-622.511 -408.255)" fill="#505aba"/>
                </g>
                <g id="Group_169392-3" data-name="Group 169392" transform="translate(2.778 16.551)">
                  <path id="Path_85161-3" data-name="Path 85161" d="M635.657,458.244v12.27a.465.465,0,0,0,.465.465h0a.465.465,0,0,0,.466-.465v-12.27a.465.465,0,0,0-.466-.465h0A.465.465,0,0,0,635.657,458.244Z" transform="translate(-635.657 -457.779)" fill="#505aba"/>
                </g>
                <g id="Group_169393-3" data-name="Group 169393" transform="translate(2.778)">
                  <path id="Path_85162-3" data-name="Path 85162" d="M635.657,379.915v12.27a.465.465,0,0,0,.465.465h0a.465.465,0,0,0,.466-.465v-12.27a.465.465,0,0,0-.466-.465h0A.465.465,0,0,0,635.657,379.915Z" transform="translate(-635.657 -379.45)" fill="#505aba"/>
                </g>
              </g>
            </g>
            <g id="Group_169696" data-name="Group 169696" transform="translate(9.902 11.44)">
              <g id="Group_169383-4" data-name="Group 169383">
                <rect id="Rectangle_5618-4" data-name="Rectangle 5618" width="24.056" height="82.592" rx="2" transform="translate(24.056 82.592) rotate(180)" fill="#8c9df4"/>
              </g>
              <g id="Group_169384-4" data-name="Group 169384" transform="translate(6.39 59.14)">
                <path id="Path_85155-4" data-name="Path 85155" d="M623.867,592.034a5.638,5.638,0,1,0-5.638,5.638A5.638,5.638,0,0,0,623.867,592.034Z" transform="translate(-612.59 -586.396)" fill="#505aba"/>
              </g>
              <g id="Group_169385-4" data-name="Group 169385" transform="translate(5.793 58.576)">
                <path id="Path_85156-4" data-name="Path 85156" d="M616,596.2a6.235,6.235,0,1,1,6.235-6.236A6.243,6.243,0,0,1,616,596.2Zm0-11.277a5.041,5.041,0,1,0,5.042,5.041A5.047,5.047,0,0,0,616,584.919Z" transform="translate(-609.764 -583.725)" fill="#fff"/>
              </g>
              <g id="Group_169386-4" data-name="Group 169386" transform="translate(4.981 3.78)">
                <rect id="Rectangle_5619-4" data-name="Rectangle 5619" width="14.088" height="46.425" rx="1" transform="translate(14.088 46.425) rotate(180)" fill="#aec3ff"/>
              </g>
              <g id="Group_169387-4" data-name="Group 169387" transform="translate(6.632 5.46)">
                <path id="Rectangle_5620-4" data-name="Rectangle 5620" d="M.931,0H9.569A.931.931,0,0,1,10.5.931v0a.931.931,0,0,1-.931.931H.931A.931.931,0,0,1,0,.931v0A.931.931,0,0,1,.931,0Z" transform="translate(10.5 1.862) rotate(180)" fill="#f99746"/>
              </g>
              <g id="Group_169394-4" data-name="Group 169394" transform="translate(8.486 15.412)">
                <g id="Group_169388-4" data-name="Group 169388" transform="translate(5.338 19.252)">
                  <path id="Path_85157-4" data-name="Path 85157" d="M647.775,471.025v9.569a.466.466,0,0,0,.465.466h0a.466.466,0,0,0,.466-.466v-9.569a.466.466,0,0,0-.466-.466h0A.466.466,0,0,0,647.775,471.025Z" transform="translate(-647.775 -470.559)" fill="#505aba"/>
                </g>
                <g id="Group_169389-4" data-name="Group 169389" transform="translate(5.338 6.087)">
                  <path id="Path_85158-4" data-name="Path 85158" d="M647.775,408.721v9.569a.466.466,0,0,0,.465.466h0a.466.466,0,0,0,.466-.466v-9.569a.466.466,0,0,0-.466-.466h0A.466.466,0,0,0,647.775,408.721Z" transform="translate(-647.775 -408.255)" fill="#505aba"/>
                </g>
                <g id="Group_169390-4" data-name="Group 169390" transform="translate(0 19.252)">
                  <path id="Path_85159-4" data-name="Path 85159" d="M622.511,471.025v9.569a.466.466,0,0,0,.465.466h0a.466.466,0,0,0,.466-.466v-9.569a.466.466,0,0,0-.466-.466h0A.466.466,0,0,0,622.511,471.025Z" transform="translate(-622.511 -470.559)" fill="#505aba"/>
                </g>
                <g id="Group_169391-4" data-name="Group 169391" transform="translate(0 6.087)">
                  <path id="Path_85160-4" data-name="Path 85160" d="M622.511,408.721v9.569a.466.466,0,0,0,.465.466h0a.466.466,0,0,0,.466-.466v-9.569a.466.466,0,0,0-.466-.466h0A.466.466,0,0,0,622.511,408.721Z" transform="translate(-622.511 -408.255)" fill="#505aba"/>
                </g>
                <g id="Group_169392-4" data-name="Group 169392" transform="translate(2.778 16.551)">
                  <path id="Path_85161-4" data-name="Path 85161" d="M635.657,458.244v12.27a.465.465,0,0,0,.465.465h0a.465.465,0,0,0,.466-.465v-12.27a.465.465,0,0,0-.466-.465h0A.465.465,0,0,0,635.657,458.244Z" transform="translate(-635.657 -457.779)" fill="#505aba"/>
                </g>
                <g id="Group_169393-4" data-name="Group 169393" transform="translate(2.778)">
                  <path id="Path_85162-4" data-name="Path 85162" d="M635.657,379.915v12.27a.465.465,0,0,0,.465.465h0a.465.465,0,0,0,.466-.465v-12.27a.465.465,0,0,0-.466-.465h0A.465.465,0,0,0,635.657,379.915Z" transform="translate(-635.657 -379.45)" fill="#505aba"/>
                </g>
              </g>
            </g>
            <g id="Group_169698" data-name="Group 169698" transform="translate(9.902 106.44)">
              <g id="Group_169383-5" data-name="Group 169383">
                <rect id="Rectangle_5618-5" data-name="Rectangle 5618" width="24.056" height="82.592" rx="2" transform="translate(24.056 82.592) rotate(180)" fill="#8c9df4"/>
              </g>
              <g id="Group_169384-5" data-name="Group 169384" transform="translate(6.39 59.14)">
                <path id="Path_85155-5" data-name="Path 85155" d="M623.867,592.034a5.638,5.638,0,1,0-5.638,5.638A5.638,5.638,0,0,0,623.867,592.034Z" transform="translate(-612.59 -586.396)" fill="#505aba"/>
              </g>
              <g id="Group_169385-5" data-name="Group 169385" transform="translate(5.793 58.576)">
                <path id="Path_85156-5" data-name="Path 85156" d="M616,596.2a6.235,6.235,0,1,1,6.235-6.236A6.243,6.243,0,0,1,616,596.2Zm0-11.277a5.041,5.041,0,1,0,5.042,5.041A5.047,5.047,0,0,0,616,584.919Z" transform="translate(-609.764 -583.725)" fill="#fff"/>
              </g>
              <g id="Group_169386-5" data-name="Group 169386" transform="translate(4.981 3.78)">
                <rect id="Rectangle_5619-5" data-name="Rectangle 5619" width="14.088" height="46.425" rx="1" transform="translate(14.088 46.425) rotate(180)" fill="#aec3ff"/>
              </g>
              <g id="Group_169387-5" data-name="Group 169387" transform="translate(6.632 5.46)">
                <path id="Rectangle_5620-5" data-name="Rectangle 5620" d="M.931,0H9.569A.931.931,0,0,1,10.5.931v0a.931.931,0,0,1-.931.931H.931A.931.931,0,0,1,0,.931v0A.931.931,0,0,1,.931,0Z" transform="translate(10.5 1.862) rotate(180)" fill="#f99746"/>
              </g>
              <g id="Group_169394-5" data-name="Group 169394" transform="translate(8.486 15.412)">
                <g id="Group_169388-5" data-name="Group 169388" transform="translate(5.338 19.252)">
                  <path id="Path_85157-5" data-name="Path 85157" d="M647.775,471.025v9.569a.466.466,0,0,0,.465.466h0a.466.466,0,0,0,.466-.466v-9.569a.466.466,0,0,0-.466-.466h0A.466.466,0,0,0,647.775,471.025Z" transform="translate(-647.775 -470.559)" fill="#505aba"/>
                </g>
                <g id="Group_169389-5" data-name="Group 169389" transform="translate(5.338 6.087)">
                  <path id="Path_85158-5" data-name="Path 85158" d="M647.775,408.721v9.569a.466.466,0,0,0,.465.466h0a.466.466,0,0,0,.466-.466v-9.569a.466.466,0,0,0-.466-.466h0A.466.466,0,0,0,647.775,408.721Z" transform="translate(-647.775 -408.255)" fill="#505aba"/>
                </g>
                <g id="Group_169390-5" data-name="Group 169390" transform="translate(0 19.252)">
                  <path id="Path_85159-5" data-name="Path 85159" d="M622.511,471.025v9.569a.466.466,0,0,0,.465.466h0a.466.466,0,0,0,.466-.466v-9.569a.466.466,0,0,0-.466-.466h0A.466.466,0,0,0,622.511,471.025Z" transform="translate(-622.511 -470.559)" fill="#505aba"/>
                </g>
                <g id="Group_169391-5" data-name="Group 169391" transform="translate(0 6.087)">
                  <path id="Path_85160-5" data-name="Path 85160" d="M622.511,408.721v9.569a.466.466,0,0,0,.465.466h0a.466.466,0,0,0,.466-.466v-9.569a.466.466,0,0,0-.466-.466h0A.466.466,0,0,0,622.511,408.721Z" transform="translate(-622.511 -408.255)" fill="#505aba"/>
                </g>
                <g id="Group_169392-5" data-name="Group 169392" transform="translate(2.778 16.551)">
                  <path id="Path_85161-5" data-name="Path 85161" d="M635.657,458.244v12.27a.465.465,0,0,0,.465.465h0a.465.465,0,0,0,.466-.465v-12.27a.465.465,0,0,0-.466-.465h0A.465.465,0,0,0,635.657,458.244Z" transform="translate(-635.657 -457.779)" fill="#505aba"/>
                </g>
                <g id="Group_169393-5" data-name="Group 169393" transform="translate(2.778)">
                  <path id="Path_85162-5" data-name="Path 85162" d="M635.657,379.915v12.27a.465.465,0,0,0,.465.465h0a.465.465,0,0,0,.466-.465v-12.27a.465.465,0,0,0-.466-.465h0A.465.465,0,0,0,635.657,379.915Z" transform="translate(-635.657 -379.45)" fill="#505aba"/>
                </g>
              </g>
            </g>
            <g id="Group_169399" data-name="Group 169399" transform="translate(101.388 11.44)">
              <g id="Group_169396" data-name="Group 169396" transform="translate(0)">
                <rect id="Rectangle_5621" data-name="Rectangle 5621" width="24.056" height="82.592" rx="2" transform="translate(24.056 82.592) rotate(180)" fill="#8c9df4"/>
              </g>
              <g id="Group_169397" data-name="Group 169397" transform="translate(4.981 3.78)">
                <rect id="Rectangle_5622" data-name="Rectangle 5622" width="14.088" height="46.425" rx="1" transform="translate(14.088 46.425) rotate(180)" fill="#aec3ff"/>
              </g>
              <g id="Group_169398" data-name="Group 169398" transform="translate(6.632 5.46)">
                <path id="Rectangle_5623" data-name="Rectangle 5623" d="M.931,0H9.569A.931.931,0,0,1,10.5.931v0a.931.931,0,0,1-.931.931H.931A.931.931,0,0,1,0,.931v0A.931.931,0,0,1,.931,0Z" transform="translate(10.5 1.862) rotate(180)" fill="#f99746"/>
              </g>
            </g>
            <g id="Group_169697" data-name="Group 169697" transform="translate(131.388 11.44)">
              <g id="Group_169396-2" data-name="Group 169396" transform="translate(0)">
                <rect id="Rectangle_5621-2" data-name="Rectangle 5621" width="24.056" height="82.592" rx="2" transform="translate(24.056 82.592) rotate(180)" fill="#8c9df4"/>
              </g>
              <g id="Group_169397-2" data-name="Group 169397" transform="translate(4.981 3.78)">
                <rect id="Rectangle_5622-2" data-name="Rectangle 5622" width="14.088" height="46.425" rx="1" transform="translate(14.088 46.425) rotate(180)" fill="#aec3ff"/>
              </g>
              <g id="Group_169398-2" data-name="Group 169398" transform="translate(6.632 5.46)">
                <path id="Rectangle_5623-2" data-name="Rectangle 5623" d="M.931,0H9.569A.931.931,0,0,1,10.5.931v0a.931.931,0,0,1-.931.931H.931A.931.931,0,0,1,0,.931v0A.931.931,0,0,1,.931,0Z" transform="translate(10.5 1.862) rotate(180)" fill="#f99746"/>
              </g>
            </g>
            <g id="Group_169431" data-name="Group 169431" transform="translate(69.902 106.859)">
              <g id="Group_169430" data-name="Group 169430">
                <rect id="Rectangle_5633" data-name="Rectangle 5633" width="24.056" height="82.592" rx="1" transform="translate(24.056 82.592) rotate(180)" fill="#8c9df4"/>
              </g>
            </g>
            <g id="Group_169433" data-name="Group 169433" transform="translate(101.388 104.859)">
              <g id="Group_169432" data-name="Group 169432" transform="translate(0)">
                <rect id="Rectangle_5634" data-name="Rectangle 5634" width="24.056" height="82.592" rx="1" transform="translate(24.056 82.592) rotate(180)" fill="#8c9df4"/>
              </g>
            </g>
            <g id="Group_169435" data-name="Group 169435" transform="translate(131.774 104.859)">
              <g id="Group_169434" data-name="Group 169434" transform="translate(0)">
                <path id="Rectangle_5635" data-name="Rectangle 5635" d="M12.028,0h0A12.029,12.029,0,0,1,24.056,12.029V70.565A12.027,12.027,0,0,1,12.029,82.592h0A12.028,12.028,0,0,1,0,70.564V12.028A12.028,12.028,0,0,1,12.028,0Z" transform="translate(24.056 82.592) rotate(180)" fill="#8c9df4"/>
              </g>
            </g>
            <g id="Group_169436" data-name="Group 169436">
              <path id="Path_85178" data-name="Path 85178" d="M254.426,488.207h0a2.892,2.892,0,0,1-2.892-2.892V255.266a2.892,2.892,0,0,1,2.892-2.892h0a2.892,2.892,0,0,1,2.892,2.892V485.315A2.892,2.892,0,0,1,254.426,488.207Z" transform="translate(-251.534 -252.374)" fill="#bdd1f9"/>
            </g>
            <g id="Group_169437" data-name="Group 169437" transform="translate(0 94.042)">
              <rect id="Rectangle_5636" data-name="Rectangle 5636" width="167.107" height="2.323" transform="translate(167.107 2.323) rotate(180)" fill="#bdd1f9"/>
            </g>
            <g id="Group_169438" data-name="Group 169438" transform="translate(0 187.414)">
              <rect id="Rectangle_5637" data-name="Rectangle 5637" width="177.483" height="2.323" transform="translate(177.483 2.323) rotate(180)" fill="#bdd1f9"/>
            </g>
          </g>
          <g id="Group_169440" data-name="Group 169440" transform="translate(326.382 106.234)">
            <path id="Path_85179" data-name="Path 85179" d="M1712.059,624.431s-15.887,13.792-13.138,16.589,16.6-16.644,16.6-16.644,20.8,4.684,26.26,9.938c0,0-21.877,8.427-18.525,10.462s26.526-5.676,26.526-5.676,17.711,9.372,12.941,20.488-12.4,12.521-15.14,11.281-17.273-13.059-18.4-10.85,6.37,13.113,13.259,15.776c0,0-18.032,10.231-25.437,3.126s-5.957-14.027-10.612-18.334-9.336-5.842-7.914-2.544,10.522,9.045,11.83,15.621,2.889,11.241-5.756,6.876-21.237-15.889-19.376-23.723c.081-.342.158-.668.233-.98a3.85,3.85,0,0,0-.233.98c-2.006-.286-7.085,1.9-10.832,3.7-.6.337-1.466.772-2.686,1.329h0c-.529.27-.958.493-1.257.65-7.816,4.483-15.4,16.909-15.4,16.909l-1.927-.831c5.52-14.2,19.122-18.69,19.122-18.69a38.8,38.8,0,0,0,14.838-10.9s-7.958-19.335,7.323-24.918C1694.355,624.062,1704.979,621.617,1712.059,624.431Z" transform="translate(-1653.071 -623.077)" fill="#a8d29f"/>
          </g>
          <g id="Group_169446" data-name="Group 169446" transform="translate(409.965 177.175)">
            <g id="Group_169441" data-name="Group 169441" transform="translate(32.953)">
              <rect id="Rectangle_5638" data-name="Rectangle 5638" width="13.664" height="44.082" transform="translate(13.664 44.082) rotate(180)" fill="#f9b277"/>
            </g>
            <g id="Group_169442" data-name="Group 169442">
              <rect id="Rectangle_5639" data-name="Rectangle 5639" width="32.953" height="44.082" transform="translate(32.953 44.082) rotate(180)" fill="#ffc9b0"/>
            </g>
            <g id="Group_169443" data-name="Group 169443" transform="translate(37.504 3.225)">
              <path id="Path_85180" data-name="Path 85180" d="M2230.684,976.351a2.281,2.281,0,1,0-2.281,2.281A2.281,2.281,0,0,0,2230.684,976.351Z" transform="translate(-2226.122 -974.07)" fill="#dde7fe"/>
            </g>
            <g id="Group_169444" data-name="Group 169444" transform="translate(38.172 3.893)">
              <path id="Path_85181" data-name="Path 85181" d="M2232.509,978.845a1.613,1.613,0,1,0-1.613,1.612A1.612,1.612,0,0,0,2232.509,978.845Z" transform="translate(-2229.284 -977.232)" fill="#ff9843"/>
            </g>
            <g id="Group_169445" data-name="Group 169445" transform="translate(36.521 11)">
              <rect id="Rectangle_5640" data-name="Rectangle 5640" width="6.427" height="11.611" transform="translate(6.427 11.611) rotate(180)" fill="#ff9843"/>
            </g>
          </g>
          <g id="Group_169452" data-name="Group 169452" transform="translate(384.474 177.175)">
            <g id="Group_169447" data-name="Group 169447" transform="translate(32.953)">
              <rect id="Rectangle_5641" data-name="Rectangle 5641" width="13.664" height="44.082" transform="translate(13.664 44.082) rotate(180)" fill="#f9b277"/>
            </g>
            <g id="Group_169448" data-name="Group 169448" transform="translate(0)">
              <rect id="Rectangle_5642" data-name="Rectangle 5642" width="32.953" height="44.082" transform="translate(32.953 44.082) rotate(180)" fill="#ffc9b0"/>
            </g>
            <g id="Group_169449" data-name="Group 169449" transform="translate(37.504 3.225)">
              <path id="Path_85182" data-name="Path 85182" d="M2110.045,976.351a2.281,2.281,0,1,0-2.281,2.281A2.281,2.281,0,0,0,2110.045,976.351Z" transform="translate(-2105.483 -974.07)" fill="#dde7fe"/>
            </g>
            <g id="Group_169450" data-name="Group 169450" transform="translate(38.172 3.893)">
              <path id="Path_85183" data-name="Path 85183" d="M2111.871,978.845a1.613,1.613,0,1,0-1.613,1.612A1.613,1.613,0,0,0,2111.871,978.845Z" transform="translate(-2108.645 -977.232)" fill="#ff9843"/>
            </g>
            <g id="Group_169451" data-name="Group 169451" transform="translate(36.521 11)">
              <rect id="Rectangle_5643" data-name="Rectangle 5643" width="6.427" height="11.611" transform="translate(6.427 11.611) rotate(180)" fill="#ff9843"/>
            </g>
          </g>
          <g id="Group_169458" data-name="Group 169458" transform="translate(361.166 177.175)">
            <g id="Group_169453" data-name="Group 169453" transform="translate(32.953)">
              <rect id="Rectangle_5644" data-name="Rectangle 5644" width="13.664" height="44.082" transform="translate(13.664 44.082) rotate(180)" fill="#f9b277"/>
            </g>
            <g id="Group_169454" data-name="Group 169454">
              <rect id="Rectangle_5645" data-name="Rectangle 5645" width="32.953" height="44.082" transform="translate(32.953 44.082) rotate(180)" fill="#ffc9b0"/>
            </g>
            <g id="Group_169455" data-name="Group 169455" transform="translate(37.504 3.225)">
              <path id="Path_85184" data-name="Path 85184" d="M1999.736,976.351a2.281,2.281,0,1,0-2.281,2.281A2.28,2.28,0,0,0,1999.736,976.351Z" transform="translate(-1995.175 -974.07)" fill="#dde7fe"/>
            </g>
            <g id="Group_169456" data-name="Group 169456" transform="translate(38.172 3.893)">
              <path id="Path_85185" data-name="Path 85185" d="M2001.563,978.845a1.613,1.613,0,1,0-1.613,1.612A1.613,1.613,0,0,0,2001.563,978.845Z" transform="translate(-1998.337 -977.232)" fill="#ff9843"/>
            </g>
            <g id="Group_169457" data-name="Group 169457" transform="translate(36.521 11)">
              <rect id="Rectangle_5646" data-name="Rectangle 5646" width="6.427" height="11.611" transform="translate(6.427 11.611) rotate(180)" fill="#ff9843"/>
            </g>
          </g>
          <g id="Group_169462" data-name="Group 169462" transform="translate(359.113 205.882)">
            <g id="Group_169459" data-name="Group 169459" transform="translate(0 0)">
              <rect id="Rectangle_5647" data-name="Rectangle 5647" width="77.203" height="57.041" transform="translate(77.203 57.041) rotate(180)" fill="#ff9843"/>
            </g>
            <g id="Group_169460" data-name="Group 169460" transform="translate(41.372 0)">
              <rect id="Rectangle_5648" data-name="Rectangle 5648" width="61.212" height="57.041" transform="translate(61.212 57.041) rotate(180)" fill="#f9b277"/>
            </g>
            <g id="Group_169461" data-name="Group 169461" transform="translate(65.755 5.511)">
              <path id="Rectangle_5649" data-name="Rectangle 5649" d="M1.9,0H17.525a1.9,1.9,0,0,1,1.9,1.9v0a1.9,1.9,0,0,1-1.9,1.9H1.9A1.9,1.9,0,0,1,0,1.9v0A1.9,1.9,0,0,1,1.9,0Z" transform="translate(19.426 3.801) rotate(-180)" fill="#ff9843"/>
            </g>
          </g>
          <g id="Group_169473" data-name="Group 169473" transform="translate(129.449 63.726)">
            <g id="Group_169463" data-name="Group 169463" transform="translate(102.844 66.432)">
              <path id="Path_85186" data-name="Path 85186" d="M1218.319,737.471l-10.441,124.14s-1.094,7.525,4.5,7.538c9.2.022,45.808,0,45.808,0s-6.927-1.566-6.843-5.091c.1-4.154,12.2-127.762,12.2-127.762Z" transform="translate(-1207.792 -736.296)" fill="#ff9843"/>
            </g>
            <g id="Group_169464" data-name="Group 169464" transform="translate(105.852 64.125)">
              <path id="Path_85187" data-name="Path 85187" d="M1272.866,858.283c-1.81.006-37.248.065-46.21-.05-3.906-.049-4.591-3.473-4.623-5.689a11.093,11.093,0,0,1,.118-1.848l.272-3.227.692-8.224.611-7.266.785-9.336.661-7.88,7.418-88.21,45.231-1.174s-5.1,51.729-8.7,89.384c-.4,4.2-.785,8.218-1.139,11.973q-.172,1.8-.333,3.512c-.335,3.563-.64,6.834-.906,9.723-.14,1.523-.269,2.937-.386,4.233-.46,5.078-.729,8.321-.733,8.938a5.233,5.233,0,0,0,.088,1C1266.452,858.1,1272.187,858.283,1272.866,858.283Z" transform="translate(-1222.032 -725.38)" fill="#ffc9b0"/>
            </g>
            <g id="Group_169465" data-name="Group 169465" transform="translate(3.525 0)">
              <path id="Path_85188" data-name="Path 85188" d="M737.764,421.907l25.431,102.152,3.482,13.99,11.844,47.579H998.575L954.918,421.907Z" transform="translate(-737.764 -421.907)" fill="#f9b277"/>
            </g>
            <g id="Group_169466" data-name="Group 169466">
              <path id="Path_85189" data-name="Path 85189" d="M724.607,421.906l-3.524,1.175,39.6,166.1,4.686-3.553Z" transform="translate(-721.082 -421.906)" fill="#f9b277"/>
            </g>
            <g id="Group_169467" data-name="Group 169467" transform="translate(39.597 163.722)">
              <path id="Path_85190" data-name="Path 85190" d="M908.477,1200.278h218.7l6.039-3.553H913.162Z" transform="translate(-908.477 -1196.724)" fill="#ff9843"/>
            </g>
            <g id="Group_169468" data-name="Group 169468" transform="translate(116.398 197.028)">
              <rect id="Rectangle_5650" data-name="Rectangle 5650" width="47.352" height="2.25" transform="translate(47.352 2.25) rotate(180)" fill="#ff9843"/>
            </g>
            <g id="Group_169469" data-name="Group 169469" transform="translate(106.936 167.274)">
              <path id="Path_85191" data-name="Path 85191" d="M1271.936,1213.537l-.245,1.72-44.532,9,.611-7.266.291-3.451Z" transform="translate(-1227.159 -1213.537)" fill="#f9b277"/>
            </g>
            <g id="Group_169470" data-name="Group 169470" transform="translate(105.854 182.951)" opacity="0.5">
              <path id="Path_85192" data-name="Path 85192" d="M1272.872,1301.8c-1.81.005-37.248.065-46.21-.05-3.906-.049-4.591-3.473-4.623-5.689l44.322-8.339c-.46,5.078-.73,8.321-.733,8.938a5.235,5.235,0,0,0,.088,1.005C1266.457,1301.623,1272.192,1301.8,1272.872,1301.8Z" transform="translate(-1222.038 -1287.724)" fill="#f9b277"/>
            </g>
            <g id="Group_169471" data-name="Group 169471" transform="translate(3.524)">
              <path id="Path_85193" data-name="Path 85193" d="M737.762,421.906H954.916L990.15,553.486H770.518Z" transform="translate(-737.762 -421.906)" fill="#ff9843"/>
            </g>
            <g id="Group_169472" data-name="Group 169472" transform="translate(12.518 7.049)">
              <path id="Path_85194" data-name="Path 85194" d="M1013.478,574.1H810.155l-7.266-28.944-2.811-11.2-1.146-4.567-7.468-29.746-.386-1.549-3.948-15.723-1.766-7.035-1.506-6-1.23-4.894-2.3-9.172H980.718l2.529,9.172,1.348,4.894,1.654,6,1.939,7.035,12.778,46.347v0l1.081,3.927.5,1.822,8.82,32Z" transform="translate(-780.325 -455.266)" fill="#fee8de"/>
            </g>
          </g>
          <g id="Group_169495" data-name="Group 169495" transform="translate(44.198 128.633)">
            <g id="Group_169494" data-name="Group 169494">
              <g id="Group_169474" data-name="Group 169474" transform="translate(55.956)">
                <path id="Path_85195" data-name="Path 85195" d="M603.137,734.863s.53-5.779-5.927-5.779a7.579,7.579,0,0,1,2.969,1.592s-4.119-2.418-8.6,1.3-1.7,13.033-3.061,14.8-6.671,2.123-6.022,7.844,16.845,12.886,15.805,17.619c0,0,6.347-9.33,1.808-13.589a8.412,8.412,0,0,1,2.438,4.561s.6-4.836-2.477-6.383c-2.723-1.369-4.954-6.375-4.718-7.27S603.137,734.863,603.137,734.863Z" transform="translate(-582.441 -729.084)" fill="#2c3a64"/>
              </g>
              <g id="Group_169475" data-name="Group 169475" transform="translate(63.453 33.528)">
                <path id="Path_85196" data-name="Path 85196" d="M624.764,887.758s4.824,19.958,9.56,23.948c2.847,2.4,11.31,7.9,11.31,7.9l-3.52,1.278s-11.739-3.964-14.367-7.054-9.824-18.574-9.824-18.574Z" transform="translate(-617.922 -887.758)" fill="#ffb27d"/>
              </g>
              <g id="Group_169476" data-name="Group 169476" transform="translate(68.718 64.884)">
                <path id="Path_85197" data-name="Path 85197" d="M672.268,1043.938l-1.134-2.807a7.964,7.964,0,0,0-7.384-4.981H642.837v69.926h86.514V1049.42H680.394A8.764,8.764,0,0,1,672.268,1043.938Z" transform="translate(-642.837 -1036.149)" fill="#f99746"/>
              </g>
              <g id="Group_169477" data-name="Group 169477" transform="translate(21.947 49.725)">
                <path id="Path_85198" data-name="Path 85198" d="M424.5,983.277c.042.076.088.155.133.234,1.056,1.835,3.478,6.331,6.145,11.251,1.262,2.334,2.583,4.765,3.836,7.051,2.159,3.946,4.124,7.46,5.27,9.317,1.166,1.889,2.024,3.215,2.371,3.746l0,0a.878.878,0,0,1,.113.547,28.642,28.642,0,0,0,.076,4.948,37.96,37.96,0,0,0,12.4,24.585l3.21.474s-4.542-16.826-5.88-26.338a18.3,18.3,0,0,1-.246-3.771,39.377,39.377,0,0,0-1.036-10.294,230.667,230.667,0,0,0-6.562-23.829c-.15-.466-4.663-16.792-4.663-16.792-3.788,3.311-17.6,4.677-17.6,4.677S419.723,974.783,424.5,983.277Z" transform="translate(-421.491 -964.41)" fill="#2f539b"/>
              </g>
              <g id="Group_169478" data-name="Group 169478" transform="translate(51.78 127.356)">
                <path id="Path_85199" data-name="Path 85199" d="M576.147,1339.255H562.752a7.354,7.354,0,0,1,.379-3.59c.67-1.486,1.626-1.533.122-3.863.851.876,3.587,1.239,5.524.978.237.385,1.53,2.965,2.322,3.535C571.974,1336.944,575.877,1336.72,576.147,1339.255Z" transform="translate(-562.679 -1331.802)" fill="#233862"/>
              </g>
              <g id="Group_169479" data-name="Group 169479" transform="translate(24.954 60.694)">
                <path id="Path_85200" data-name="Path 85200" d="M435.724,1024.216c.042.076.088.155.133.234,1.056,1.835,6.765,12.38,9.433,17.3a71.327,71.327,0,0,1-.941-25.432Z" transform="translate(-435.724 -1016.318)" fill="#233862"/>
              </g>
              <g id="Group_169480" data-name="Group 169480" transform="translate(64.38 4.873)">
                <path id="Path_85201" data-name="Path 85201" d="M632.753,752.238c.088-.352-7.65,3.5-8.042,3.933-3.629,4.025-2.594,9.278-.518,9.328,1.332.033,1.073,2.247,1.073,2.247l14.836-6.276S638.316,751.053,632.753,752.238Z" transform="translate(-622.308 -752.144)" fill="#2c3a64"/>
              </g>
              <g id="Group_169481" data-name="Group 169481" transform="translate(62.033 30.531)">
                <path id="Path_85202" data-name="Path 85202" d="M619.006,873.575s2.258,4.51,1.976,8.17c0,0-2.722,4.3-9.783,5.385C611.2,887.13,617.27,873.572,619.006,873.575Z" transform="translate(-611.199 -873.575)" fill="#f8c25a"/>
              </g>
              <g id="Group_169482" data-name="Group 169482" transform="translate(1.776 46.93)">
                <path id="Path_85203" data-name="Path 85203" d="M359.652,959.651l.045-2.505c-4.991.629-17.21-5.965-17.21-5.965s-5.222,3.473-5.936,13.392c-.349,4.841-2.556,25.314-2.8,31.428-.089,2.216-.119,3.8-.129,4.429a.01.01,0,0,1,0,.006.871.871,0,0,1-.212.516,28.6,28.6,0,0,0-2.7,4.146c-7.616,14.171-3.633,33.425-3.633,33.425l1.769-.449s6.44-19.961,10.649-28.595a18.055,18.055,0,0,1,1.906-3.263,39.389,39.389,0,0,0,4.9-9.115C349.4,989.673,359.652,959.651,359.652,959.651Z" transform="translate(-326.031 -951.181)" fill="#2f539b"/>
              </g>
              <g id="Group_169483" data-name="Group 169483" transform="translate(0 127.26)">
                <path id="Path_85204" data-name="Path 85204" d="M331.1,1338.894H317.7a7.353,7.353,0,0,1,.378-3.59c.67-1.487,1.72-2.162,1.469-3.96a4.824,4.824,0,0,0,4.175,1.6,14.716,14.716,0,0,0,2.324,3.013C326.923,1336.583,330.826,1336.359,331.1,1338.894Z" transform="translate(-317.628 -1331.344)" fill="#233862"/>
              </g>
              <g id="Group_169484" data-name="Group 169484" transform="translate(17.699 22.94)">
                <path id="Path_85205" data-name="Path 85205" d="M444.819,861.671c-1.8.307.294,1.737-2.181,2.006-3.522.384-7.159.647-9.063,1.407a2.046,2.046,0,0,0-1.3,1.057c-.826,2.483-6.055,6.749-6.055,6.749-23.323-1.062-24.826-11.457-24.826-11.457,15.137-14.7,28.015-22.715,38.658-23.707a18.937,18.937,0,0,1,7.72.812c3.722,1.657,5.762,6.7,5.762,6.7S451.655,860.505,444.819,861.671Z" transform="translate(-401.39 -837.648)" fill="#f8c25a"/>
              </g>
              <g id="Group_169485" data-name="Group 169485" transform="translate(49.809 29.995)">
                <path id="Path_85206" data-name="Path 85206" d="M562.488,890.009c-3.522.384-7.159.647-9.063,1.407a37.142,37.142,0,0,1,4.711-20.382S561.717,885.607,562.488,890.009Z" transform="translate(-553.349 -871.034)" fill="#f8c25a"/>
              </g>
              <g id="Group_169486" data-name="Group 169486" transform="translate(51.226 28.015)">
                <path id="Path_85207" data-name="Path 85207" d="M570.818,861.675s-8.857-.484-10.431,5.077,2.953,27.756,3.928,30.047c1.776,4.171,10.731,16.593,10.731,16.593l2.87-1.487s-5.765-18.185-7.052-19.984C568.844,889.1,573.469,864.095,570.818,861.675Z" transform="translate(-560.058 -861.665)" fill="#ffb27d"/>
              </g>
              <g id="Group_169487" data-name="Group 169487" transform="translate(65.829 77.869)">
                <path id="Path_85208" data-name="Path 85208" d="M632.419,1097.987a13.055,13.055,0,0,1,1.336,1.372c.6.728.072.991,1.783,4.287,0,0-.088.458-.459.374s-1.663-1.362-2.325-1.27c0,0-.473.39-.525,1.682a31.211,31.211,0,0,1-.262,4.384c-.211.5-1.748-2.105-2.5-3.99-.663-1.652-.017-7.226-.017-7.226Z" transform="translate(-629.163 -1097.6)" fill="#ffb27d"/>
              </g>
              <g id="Group_169488" data-name="Group 169488" transform="translate(49.809 26.372)">
                <path id="Path_85209" data-name="Path 85209" d="M553.35,868.058c.023.13,8.382,1.538,13.609-1.116,0,0,4.367-13.682-1.874-13.028s-9.937,2.62-10.094,5.608A57.531,57.531,0,0,1,553.35,868.058Z" transform="translate(-553.35 -853.892)" fill="#f8c25a"/>
              </g>
              <g id="Group_169489" data-name="Group 169489" transform="translate(63.868 19.45)">
                <path id="Path_85210" data-name="Path 85210" d="M619.9,826.47a5.562,5.562,0,0,0,1.681,3.9c1.11,1.144,2.714,2.036,3.841.909a12.236,12.236,0,0,0,1.743-2.106c.974-1.674,2.134-3.384,2.134-3.384l-5.013-4.392-.3-.263a12.77,12.77,0,0,1-3.734,4.238A1.163,1.163,0,0,0,619.9,826.47Z" transform="translate(-619.886 -821.13)" fill="#ffb27d"/>
              </g>
              <g id="Group_169490" data-name="Group 169490" transform="translate(68.172 19.712)">
                <path id="Path_85211" data-name="Path 85211" d="M645.36,826.767s-1.159,1.707-2.133,3.383c-3.116-1.921-3.119-5.778-2.879-7.776Z" transform="translate(-640.256 -822.373)" fill="#ed985f"/>
              </g>
              <g id="Group_169491" data-name="Group 169491" transform="translate(67.965 10.754)">
                <path id="Path_85212" data-name="Path 85212" d="M644.724,795.531s-7.566-4.21-4.871-8.881,3.532-8.36,8.476-5.87,4.846,4.809,4.326,6.587S646.761,796.506,644.724,795.531Z" transform="translate(-639.272 -779.979)" fill="#ffb27d"/>
              </g>
              <g id="Group_169492" data-name="Group 169492" transform="translate(67.17 10.121)">
                <path id="Path_85213" data-name="Path 85213" d="M650.966,782.281c-.346-2.074-1.4-2.272-2.135-2.133a6.05,6.05,0,0,0-7.359-2.817,10.3,10.3,0,0,1-5.963,3.582s.878,1.634,4.495,2.645a6.185,6.185,0,0,0,3.568-.285,20.186,20.186,0,0,1-5.134,1.935c4.767.436,9.3-3.922,9.773-4.388a6.787,6.787,0,0,1,.375,3.123c-.314,1.4-1.561,3.949-.8,4.278C647.787,788.22,651.486,785.391,650.966,782.281Z" transform="translate(-635.51 -776.984)" fill="#2c3a64"/>
              </g>
              <g id="Group_169493" data-name="Group 169493" transform="translate(91.436 65.244)">
                <path id="Path_85214" data-name="Path 85214" d="M751.463,1038s-2.111,1.583-.52,2.618,4.432,1.315,4.443.636C755.425,1038.972,754.288,1037.35,751.463,1038Z" transform="translate(-750.349 -1037.854)" fill="#ffb27d"/>
              </g>
            </g>
          </g>
          <g id="Group_169497" data-name="Group 169497" transform="translate(156.173 98.075)">
            <path id="Path_85215" data-name="Path 85215" d="M878.68,592.146l-1.875-2.769a10.948,10.948,0,0,0-8.626-4.913H847.552l3.579,13.088,14.2,51.935a5.355,5.355,0,0,0,5.165,3.942h74.223a5.354,5.354,0,0,0,5.165-6.767l-13.43-49.11H888.172A12.048,12.048,0,0,1,878.68,592.146Z" transform="translate(-847.552 -584.464)" fill="#f99746"/>
          </g>
          <g id="Group_169523" data-name="Group 169523" transform="translate(265.629 88.588)" opacity="0.5">
            <path id="Path_85239" data-name="Path 85239" d="M1410.031,553l-6.116-7.813-.289-.368-.345-.064-28.226-5.193-9.5,51.628,36.592,6.732,8.125-44.165.067-.361Z" transform="translate(-1365.558 -539.567)" fill="#8c9df4"/>
          </g>
          <g id="Group_169525" data-name="Group 169525" transform="translate(254.285 79.108)">
            <g id="Group_169524" data-name="Group 169524">
              <path id="Path_85240" data-name="Path 85240" d="M1349.329,501.6l.014.367,1.741,44.872-37.179,1.442-2.035-52.455,28.679-1.112.35-.014.363.3,7.678,6.284Z" transform="translate(-1311.871 -494.704)" fill="#8c9df4"/>
            </g>
          </g>
          <g id="Group_169540" data-name="Group 169540" transform="translate(205.028 95.311)">
            <g id="Group_169526" data-name="Group 169526" transform="translate(0 3.546)">
              <path id="Path_85241" data-name="Path 85241" d="M1141.02,588.164l-62.044,3.458a.227.227,0,0,0-.214.24l4.528,81.246a.227.227,0,0,0,.24.214l61.956-3.453a.227.227,0,0,0,.214-.24l-4.533-81.335A.139.139,0,0,0,1141.02,588.164Z" transform="translate(-1078.761 -588.164)" fill="#233862"/>
            </g>
            <g id="Group_169527" data-name="Group 169527" transform="translate(2.07 5.56)">
              <path id="Path_85242" data-name="Path 85242" d="M1148.633,674.823l-52.554,3.3a2.86,2.86,0,0,1-3.034-2.675l-4.481-71.41A2.86,2.86,0,0,1,1091.24,601l52.554-3.3a2.86,2.86,0,0,1,3.033,2.676l4.481,71.41A2.86,2.86,0,0,1,1148.633,674.823Z" transform="translate(-1088.559 -597.698)" fill="#ebf3fa"/>
            </g>
            <g id="Group_169538" data-name="Group 169538" transform="translate(8.26 16.457)">
              <g id="Group_169528" data-name="Group 169528">
                <path id="Path_85243" data-name="Path 85243" d="M1150.994,650.157l-33.06,2.075a.03.03,0,0,1-.032-.029l-.052-.826a.031.031,0,0,1,.029-.033l33.06-2.075a.031.031,0,0,1,.032.029l.052.826A.03.03,0,0,1,1150.994,650.157Z" transform="translate(-1117.85 -649.27)" fill="#bdd1f9"/>
              </g>
              <g id="Group_169529" data-name="Group 169529" transform="translate(0.445 7.098)">
                <path id="Path_85244" data-name="Path 85244" d="M1153.1,683.749l-33.06,2.075a.031.031,0,0,1-.032-.029l-.052-.826a.031.031,0,0,1,.029-.033l33.06-2.075a.031.031,0,0,1,.032.029l.052.826A.03.03,0,0,1,1153.1,683.749Z" transform="translate(-1119.958 -682.862)" fill="#bdd1f9"/>
              </g>
              <g id="Group_169530" data-name="Group 169530" transform="translate(0.223 2.757)">
                <path id="Path_85245" data-name="Path 85245" d="M1164.679,663.2l-45.691,2.867a.031.031,0,0,1-.033-.029l-.052-.826a.031.031,0,0,1,.029-.033l45.691-2.867a.031.031,0,0,1,.033.029l.052.826A.031.031,0,0,1,1164.679,663.2Z" transform="translate(-1118.904 -662.316)" fill="#bdd1f9"/>
              </g>
              <g id="Group_169531" data-name="Group 169531" transform="translate(3.028 29.663)">
                <path id="Path_85246" data-name="Path 85246" d="M1154.752,790.538l-22.493,1.412a.026.026,0,0,1-.027-.024l-.053-.837a.025.025,0,0,1,.024-.027l22.493-1.412a.026.026,0,0,1,.027.024l.052.837A.025.025,0,0,1,1154.752,790.538Z" transform="translate(-1132.179 -789.651)" fill="#bdd1f9"/>
              </g>
              <g id="Group_169532" data-name="Group 169532" transform="translate(2.805 25.575)">
                <path id="Path_85247" data-name="Path 85247" d="M1162.295,771.19l-31.09,1.951a.026.026,0,0,1-.027-.023l-.052-.837a.026.026,0,0,1,.024-.027l31.09-1.951a.026.026,0,0,1,.027.024l.052.837A.025.025,0,0,1,1162.295,771.19Z" transform="translate(-1131.125 -770.303)" fill="#bdd1f9"/>
              </g>
              <g id="Group_169533" data-name="Group 169533" transform="translate(3.122 32.96)">
                <path id="Path_85248" data-name="Path 85248" d="M1165.769,806.141l-33.06,2.074a.031.031,0,0,1-.032-.029l-.052-.826a.031.031,0,0,1,.029-.032l33.06-2.075a.031.031,0,0,1,.032.029l.052.826A.031.031,0,0,1,1165.769,806.141Z" transform="translate(-1132.625 -805.254)" fill="#bdd1f9"/>
              </g>
              <g id="Group_169534" data-name="Group 169534" transform="translate(3.344 36.277)">
                <path id="Path_85249" data-name="Path 85249" d="M1170.52,821.838l-36.761,2.307a.027.027,0,0,1-.029-.026l-.052-.833a.027.027,0,0,1,.025-.029l36.761-2.307a.028.028,0,0,1,.029.026l.052.832A.028.028,0,0,1,1170.52,821.838Z" transform="translate(-1133.678 -820.951)" fill="#bdd1f9"/>
              </g>
              <g id="Group_169535" data-name="Group 169535" transform="translate(3.937 43.318)">
                <path id="Path_85250" data-name="Path 85250" d="M1160.223,855.162l-23.659,1.485a.027.027,0,0,1-.028-.024l-.052-.835a.027.027,0,0,1,.025-.028l23.659-1.485a.026.026,0,0,1,.027.024l.052.835A.026.026,0,0,1,1160.223,855.162Z" transform="translate(-1136.483 -854.275)" fill="#bdd1f9"/>
              </g>
              <g id="Group_169536" data-name="Group 169536" transform="translate(4.383 50.416)">
                <path id="Path_85251" data-name="Path 85251" d="M1162.332,888.754l-23.659,1.485a.026.026,0,0,1-.028-.024l-.052-.836a.026.026,0,0,1,.024-.028l23.66-1.485a.026.026,0,0,1,.027.024l.052.836A.026.026,0,0,1,1162.332,888.754Z" transform="translate(-1138.593 -887.867)" fill="#bdd1f9"/>
              </g>
              <g id="Group_169537" data-name="Group 169537" transform="translate(4.16 46.3)">
                <path id="Path_85252" data-name="Path 85252" d="M1170.32,869.273l-32.7,2.052a.026.026,0,0,1-.028-.024l-.052-.835a.026.026,0,0,1,.024-.027l32.7-2.052a.026.026,0,0,1,.027.024l.052.836A.026.026,0,0,1,1170.32,869.273Z" transform="translate(-1137.538 -868.386)" fill="#bdd1f9"/>
              </g>
            </g>
            <g id="Group_169539" data-name="Group 169539" transform="translate(13.142 0)">
              <path id="Path_85253" data-name="Path 85253" d="M1173.169,571.39,1144.235,573a3.343,3.343,0,0,0-3.275,3.4l.244,4.373a.773.773,0,0,0,.839.7l34.245-1.909a.773.773,0,0,0,.757-.786l-.244-4.372A3.343,3.343,0,0,0,1173.169,571.39Z" transform="translate(-1140.955 -571.384)" fill="#ff8c64"/>
            </g>
          </g>
          <g id="Group_169565" data-name="Group 169565" transform="translate(231.884 89.517)">
            <g id="Group_169541" data-name="Group 169541" transform="translate(66.461 36.77)">
              <path id="Path_85254" data-name="Path 85254" d="M1524.7,722.127s-.6-1.352-.991-1.993-2.053-2.517-2.337-2.092-1.416,3.284-.814,4.085-.039,2.194,2.954,3.037Z" transform="translate(-1520.381 -717.98)" fill="#ffb27d"/>
            </g>
            <g id="Group_169542" data-name="Group 169542" transform="translate(69.188 32.377)">
              <path id="Path_85255" data-name="Path 85255" d="M1568.141,697.19s-15.323,12.79-21.3,11.606c-4.672-.926-12.058-3.269-12.058-3.269s-1.949,1.854-1.4,4.077c0,0,9.41,8.854,16.114,8.911,10.479.09,15.422-5.193,15.422-5.193Z" transform="translate(-1533.29 -697.19)" fill="#ed7d2b"/>
            </g>
            <g id="Group_169543" data-name="Group 169543" transform="translate(113.286 164.979)">
              <path id="Path_85256" data-name="Path 85256" d="M1759.609,1327.043s-.445,7.175-1.833,7.278c-.185.014-7.041.014-7.041.014l-8.752-.051a2.84,2.84,0,0,1,2.616-2.555c2.558-.446,6.841-2.244,8.391-5.625C1754.619,1322.547,1759.609,1327.043,1759.609,1327.043Z" transform="translate(-1741.983 -1324.735)" fill="#113c68"/>
            </g>
            <g id="Group_169544" data-name="Group 169544" transform="translate(101.724 79.2)">
              <path id="Path_85257" data-name="Path 85257" d="M1716.957,1007.369a18.245,18.245,0,0,1-4.738.89,17.389,17.389,0,0,1-4.423-.631,121.2,121.2,0,0,0-3.258-15.518c-1.446-5.594-3.509-12.787-6.445-21.726-8.118-24.7-10.587-39.154-10.812-40.522-.012-.072-.017-.108-.017-.108l.026-.012,24.959-10.959s-3.085,34.046.851,47.114a55.068,55.068,0,0,1,1.428,6.261C1717.015,986.352,1716.957,1007.369,1716.957,1007.369Z" transform="translate(-1687.264 -918.783)" fill="#2a4e96"/>
            </g>
            <g id="Group_169545" data-name="Group 169545" transform="translate(101.74 79.2)">
              <path id="Path_85258" data-name="Path 85258" d="M1704.6,992.11c-1.445-5.594-3.509-12.787-6.445-21.726-8.119-24.7-10.587-39.154-10.812-40.522,0-.041,0-.079.01-.12l24.959-10.959s-3.085,34.046.851,47.114C1713.715,967.724,1704.6,992.11,1704.6,992.11Z" transform="translate(-1687.344 -918.783)" fill="#233862"/>
            </g>
            <g id="Group_169546" data-name="Group 169546" transform="translate(93.791 164.979)">
              <path id="Path_85259" data-name="Path 85259" d="M1667.351,1327.043s-.445,7.175-1.833,7.278c-.184.014-7.041.014-7.041.014l-8.752-.051a2.84,2.84,0,0,1,2.615-2.555c2.558-.446,6.84-2.244,8.39-5.625C1662.361,1322.547,1667.351,1327.043,1667.351,1327.043Z" transform="translate(-1649.725 -1324.735)" fill="#15447c"/>
            </g>
            <g id="Group_169547" data-name="Group 169547" transform="translate(97.26 80.003)">
              <path id="Path_85260" data-name="Path 85260" d="M1666.148,922.58a355.306,355.306,0,0,0,3.493,49.151c3.817,27.088,2.523,38.587,2.523,38.587a26,26,0,0,0,3.681.936,16.708,16.708,0,0,0,5.461-.632s5.464-27.1,3.9-40.657,7.482-46.525,7.482-46.525Z" transform="translate(-1666.141 -922.58)" fill="#2a4e96"/>
            </g>
            <g id="Group_169548" data-name="Group 169548" transform="translate(104.617 17.468)">
              <path id="Path_85261" data-name="Path 85261" d="M1711.3,637.54l-4.872,3.195-4.438-1.255c-.811-1.157-1.026-3.388-1.038-5.32a33.106,33.106,0,0,1,.174-3.543l6.573-2.9,2.453-1.081c-.007.038-.191,2.014-.217,2.3A16.779,16.779,0,0,0,1711.3,637.54Z" transform="translate(-1700.955 -626.634)" fill="#ffb27d"/>
            </g>
            <g id="Group_169549" data-name="Group 169549" transform="translate(97.054 26.524)">
              <path id="Path_85262" data-name="Path 85262" d="M1665.267,729.1c6.065,5.855,29.015,4.87,30.429-1.581s-1.543-54.915-11.9-57.96c-2.149-.632-13.641,3.083-13.641,3.083a72.853,72.853,0,0,0-2.986,10.723c-.229,1.169-.9,13.554-1.4,25.141-.234,5.419-.432,10.665-.533,14.5A41.84,41.84,0,0,0,1665.267,729.1Z" transform="translate(-1665.166 -669.489)" fill="#f99746"/>
            </g>
            <g id="Group_169550" data-name="Group 169550" transform="translate(104.617 18.549)">
              <path id="Path_85263" data-name="Path 85263" d="M1709.447,633.059c-1.333,2.254-6.012,4.228-8.491,5.132a33.106,33.106,0,0,1,.174-3.543l6.573-2.9C1709.156,631.728,1710.041,632.052,1709.447,633.059Z" transform="translate(-1700.955 -631.746)" fill="#fca56b"/>
            </g>
            <g id="Group_169551" data-name="Group 169551" transform="translate(100.988 3.619)">
              <path id="Path_85264" data-name="Path 85264" d="M1685.107,578.521s10.591,3.3,12.547-3.324,4.64-10.664-2.039-13.054-8.745-.25-9.936,1.8S1682.4,577.491,1685.107,578.521Z" transform="translate(-1683.783 -561.09)" fill="#ffb27d"/>
            </g>
            <g id="Group_169552" data-name="Group 169552" transform="translate(102.303 0)">
              <path id="Path_85265" data-name="Path 85265" d="M1691,549.8s.675,7.712,2.27,7.378,3.351-1.051,3.117,1.274,1.551,6.31,3.85,6.3c4.933-.02,10.292-12.677,8.941-15.076C1705.287,542.752,1685.373,541.354,1691,549.8Z" transform="translate(-1690.008 -543.965)" fill="#333"/>
            </g>
            <g id="Group_169553" data-name="Group 169553" transform="translate(102.041 23.511)">
              <path id="Path_85266" data-name="Path 85266" d="M1691.581,658.483c.137-.057,7.884-3.533,8.79-3.234s2.036,3.067,2.036,3.067l-13.642,3.084A6.778,6.778,0,0,1,1691.581,658.483Z" transform="translate(-1688.764 -655.231)" fill="#ed7d2b"/>
            </g>
            <g id="Group_169559" data-name="Group 169559" transform="translate(0 4.884)">
              <g id="Group_169554" data-name="Group 169554" transform="translate(55.701 55.259)">
                <path id="Path_85267" data-name="Path 85267" d="M1470.383,832.748l43.431,40.89c.851.8,1.925,1.057,2.386.568l1.466-1.557c.46-.489.141-1.546-.71-2.347l-43.431-40.89c-.851-.8-1.925-1.057-2.385-.568l-1.466,1.557C1469.213,830.891,1469.532,831.947,1470.383,832.748Z" transform="translate(-1469.463 -828.595)" fill="#1f4d84"/>
              </g>
              <g id="Group_169555" data-name="Group 169555" transform="translate(80.995 79.023)">
                <path id="Path_85268" data-name="Path 85268" d="M1589.165,944.392l19.058,17.944c.851.8,1.925,1.057,2.386.568l1.466-1.557c.46-.49.141-1.546-.71-2.347l-19.058-17.944Z" transform="translate(-1589.165 -941.055)" fill="#739af0"/>
              </g>
              <g id="Group_169556" data-name="Group 169556">
                <path id="Path_85269" data-name="Path 85269" d="M1264.686,577.793a34.036,34.036,0,0,0-48.114-1.465c-.181.169-.36.341-.534.515a34.042,34.042,0,1,0,48.649.95Zm-3.307,46.163a31.356,31.356,0,1,1,1.35-44.321A31.318,31.318,0,0,1,1261.379,623.955Z" transform="translate(-1205.855 -567.079)" fill="#1f4d84"/>
              </g>
              <g id="Group_169558" data-name="Group 169558" transform="translate(2.688 2.688)" opacity="0.5">
                <g id="Group_169557" data-name="Group 169557">
                  <path id="Path_85270" data-name="Path 85270" d="M1227.092,632.634a31.355,31.355,0,1,0,1.351-44.319A31.223,31.223,0,0,0,1227.092,632.634Z" transform="translate(-1218.575 -579.798)" fill="#b3cff9"/>
                </g>
              </g>
            </g>
            <g id="Group_169560" data-name="Group 169560" transform="translate(97.121 40.24)">
              <path id="Path_85271" data-name="Path 85271" d="M1665.483,774.208c23.931-17.053,21.941-39.807,21.941-39.807-8.746,4.933-17.426,15.841-21.408,25.3C1665.782,765.122,1665.585,770.367,1665.483,774.208Z" transform="translate(-1665.483 -734.4)" fill="#ed7d2b"/>
            </g>
            <g id="Group_169563" data-name="Group 169563" transform="translate(66.628 29.68)">
              <g id="Group_169561" data-name="Group 169561" transform="translate(0 40.713)">
                <path id="Path_85272" data-name="Path 85272" d="M1528.047,878.991a6.534,6.534,0,0,1-3.057-1.888s-.719.049.118,1.584c.07.129.226.458.343.692a.149.149,0,0,1-.125.214,15.946,15.946,0,0,0-3.829.08c-.259.054-.334.674-.324.938a2.393,2.393,0,0,0,.5,1.634c.3.4,1.146.828,3.024,1.584.716.288,2.762.071,4.679-.588l1.532-.71-.475-2.847-.385.081C1529.442,879.894,1528.685,879.148,1528.047,878.991Z" transform="translate(-1521.173 -877.103)" fill="#ffb27d"/>
              </g>
              <g id="Group_169562" data-name="Group 169562" transform="translate(8.629)">
                <path id="Path_85273" data-name="Path 85273" d="M1598.387,684.426s21.5,4.094-6.326,35.232c-4.45,4.98-28.5,11.464-28.5,11.464s-2.439-2.075-1.209-3.755c0,0,16.556-12.023,20.2-13.934,1.639-.86,6.36-19.189,9.032-23.6A12.043,12.043,0,0,1,1598.387,684.426Z" transform="translate(-1562.009 -684.426)" fill="#f99746"/>
              </g>
            </g>
            <g id="Group_169564" data-name="Group 169564" transform="translate(67.277 36.054)">
              <path id="Path_85274" data-name="Path 85274" d="M1527.162,719.831a10.96,10.96,0,0,1-.841-2.053,11.363,11.363,0,0,0-1.387-3.141c-.146-.146-.628.043-.685.669a3.64,3.64,0,0,0,.345,1.36,15.316,15.316,0,0,1,.455,2.7C1525.382,720.453,1527.162,719.831,1527.162,719.831Z" transform="translate(-1524.246 -714.591)" fill="#ffb27d"/>
            </g>
          </g>
        </g>
      </g>
    </g>
  </g>
</svg>
