<svg xmlns="http://www.w3.org/2000/svg" width="100" height="125" viewBox="0 0 100 125"><g transform="translate(-17072 -62)"><rect width="100" height="125" rx="15" transform="translate(17072 62)" fill="#fff" opacity="0"/><g transform="translate(16403.787 163.983)"><path d="M736.269-47.047c0-1.868-.01-3.737.005-5.605,0-.511-.12-.677-.637-.442q-2.817,1.281-5.655,2.516a.756.756,0,0,0-.472.818c-.035,1.78.064,3.559-.083,5.34a11.2,11.2,0,0,1-9.58,10.046,11.182,11.182,0,0,1-12.629-9.395,32.555,32.555,0,0,1-.137-5.6,1.274,1.274,0,0,0-.889-1.413c-3.332-1.432-6.638-2.923-9.945-4.413a1.442,1.442,0,0,1-.528-2.468,3.016,3.016,0,0,1,.734-.413q5.652-2.523,11.308-5.036c2.222-.989,4.458-1.95,6.664-2.972a8.686,8.686,0,0,1,7.551-.078q8.444,3.778,16.9,7.523c.536.238,1.08.461,1.6.729a1.4,1.4,0,0,1,.451,2.324,1.322,1.322,0,0,0-.314,1.009q0,6.55,0,13.1a2.174,2.174,0,0,1-2.818,2.238,2.274,2.274,0,0,1-1.524-2.338C736.26-43.4,736.27-45.222,736.269-47.047Z" transform="translate(0 0)" fill="#1f3965"/><path d="M721.79,157.191q-8.179,0-16.358,0a5.732,5.732,0,0,1-5.569-3.653,7.294,7.294,0,0,1-.041-4.546,13.749,13.749,0,0,1,5.813-7.681,24.545,24.545,0,0,1,6.852-3.27,2.849,2.849,0,0,1,3.139.817c1.35,1.384,2.717,2.751,4.084,4.118a2.72,2.72,0,0,0,4.189.016c1.368-1.366,2.737-2.732,4.084-4.119a2.881,2.881,0,0,1,3.2-.819,21.913,21.913,0,0,1,9.648,5.708A12,12,0,0,1,744.1,150.5a5.767,5.767,0,0,1-5.887,6.687C732.739,157.2,727.264,157.191,721.79,157.191Z" transform="translate(-3.522 -169.17)" fill="#1f3965"/></g></g></svg>