<svg width="136" height="136" viewBox="0 0 136 136" fill="none" xmlns="http://www.w3.org/2000/svg">
<g clip-path="url(#clip0_149_287)">
<path d="M91.9145 79.0213C91.9145 71.5404 91.9145 64.07 91.9145 56.589C91.9145 55.2935 92.0921 55.1263 93.4086 55.1158C94.2444 55.1158 95.0699 55.0949 95.9057 55.1263C96.449 55.1472 96.6266 54.9382 96.6266 54.4054C96.6057 52.159 96.5953 49.9126 96.6371 47.6663C96.6475 46.9558 96.3863 46.8095 95.7385 46.8095C91.0473 46.8304 86.356 46.82 81.6648 46.82C81.4245 46.82 81.1737 46.82 80.9334 46.8095C80.505 46.7886 80.0976 46.705 79.8782 46.2766C79.6483 45.8274 79.8782 45.4721 80.1185 45.1273C81.0692 43.79 81.9887 42.4422 82.9708 41.1361C83.3679 40.6033 83.4096 40.2271 82.9917 39.6629C82.0096 38.3882 81.111 37.0404 80.1812 35.724C79.9304 35.3687 79.6378 35.003 79.8782 34.5224C80.108 34.0209 80.5677 34 81.0484 34C86.3456 34 91.6533 34 96.9505 34C98.0267 34 98.2984 34.2717 98.2984 35.3374C98.2984 41.5959 98.2984 47.8439 98.2984 54.1024C98.2984 55.1054 98.2984 55.1054 99.3014 55.1054C100.158 55.1054 101.015 55.0949 101.872 55.1158C102.666 55.1367 102.958 55.4397 102.99 56.2442C103 56.4114 102.99 56.589 102.99 56.7562C102.99 71.6136 102.99 86.4709 102.99 101.328C102.99 102.833 102.833 103 101.307 103C98.6222 103 95.9266 103 93.2414 103C92.1339 103 91.904 102.77 91.904 101.673C91.9145 94.119 91.9145 86.565 91.9145 79.0213Z" fill="#1F3965"/>
<path d="M62.3882 55.8577C62.3882 56.7562 62.3882 57.5503 62.3882 58.3444C62.3882 58.7101 62.6807 58.825 62.9419 58.9608C64.2898 59.7131 65.6167 60.4863 66.9854 61.1967C68.7511 62.1162 69.6079 63.5162 69.5661 65.5118C69.5243 67.5597 69.5661 69.618 69.5557 71.6658C69.5452 73.5047 68.3646 74.8108 66.7137 74.8421C64.9689 74.8734 63.7256 73.6614 63.6629 71.7912C63.6106 70.2031 63.6211 68.615 63.6629 67.0268C63.6838 66.3373 63.4957 65.8984 62.8375 65.585C61.7822 65.073 60.7583 64.4879 59.7552 63.8819C59.2119 63.558 59.0343 63.6625 58.8776 64.2581C57.8955 68.1448 56.9029 72.0211 55.8998 75.8974C55.5446 77.2661 54.667 78.0706 53.3923 78.2378C52.2012 78.3945 51.0832 77.8407 50.4877 76.8064C50.0697 76.0645 50.0175 75.2809 50.2265 74.466C51.3444 70.0882 52.4519 65.7104 53.6012 61.343C53.9251 60.131 54.1236 58.919 54.0819 57.6652C54.0401 56.3488 54.0505 55.0218 54.0819 53.7054C54.0923 53.0785 53.9356 53.1098 53.4236 53.3292C52.431 53.7681 51.9609 54.4576 51.7937 55.5338C51.5429 57.1219 51.1459 58.6892 50.7593 60.2564C50.4877 61.3639 49.7354 62.0953 48.6174 62.3565C47.4995 62.6177 46.5278 62.2729 45.7651 61.4266C45.1486 60.737 44.8561 59.922 45.0651 58.9922C45.6188 56.5682 46.1726 54.1337 46.7159 51.7098C46.9457 50.6858 47.5413 49.9649 48.4398 49.4529C50.4354 48.3245 52.431 47.1857 54.4266 46.0468C54.5729 45.9632 54.7401 45.8901 54.8655 45.7752C56.3596 44.4065 58.1567 44.6154 59.9329 44.8766C60.7269 44.9916 61.3434 45.5244 61.8658 46.1304C63.1614 47.6245 64.4778 49.1081 65.7421 50.6231C66.0764 51.0202 66.4316 51.1664 66.9332 51.1664C68.6676 51.156 70.402 51.1351 72.1364 51.1978C74.5917 51.2814 75.9291 53.5486 74.8111 55.6278C74.2783 56.61 73.4006 57.0906 72.3453 57.0697C69.681 57.0279 67.0272 56.9025 64.3629 56.7876C63.6629 56.7562 63.0987 56.2547 62.3882 55.8577Z" fill="#1F3965"/>
<path d="M88.4983 83.3365C88.4983 89.4174 88.4983 95.5087 88.4983 101.59C88.4983 102.791 88.2998 103 87.0878 103C84.3295 103 81.5712 103 78.8024 103C77.674 103 77.4023 102.739 77.4023 101.631C77.4023 89.4383 77.4023 77.2452 77.4023 65.0521C77.4023 63.9864 77.6427 63.7461 78.6875 63.7461C81.5503 63.7461 84.4026 63.7461 87.2655 63.7461C88.2894 63.7461 88.4879 63.9551 88.4879 65.0103C88.4983 71.1225 88.4983 77.2347 88.4983 83.3365Z" fill="#1F3965"/>
<path d="M74.0891 89.8038C74.0891 93.6906 74.0891 97.5669 74.0891 101.454C74.0891 102.749 73.8383 103 72.5532 103C69.7948 103 67.0365 103 64.2782 103C63.2229 103 62.9199 102.697 62.9199 101.642C62.9199 93.7324 62.9199 85.8126 62.9199 77.9033C62.9199 76.8481 63.2229 76.5451 64.2677 76.5451C67.0783 76.5346 69.8889 76.5346 72.689 76.5451C73.7861 76.5451 74.0786 76.8376 74.0786 77.9451C74.0891 81.8946 74.0891 85.8544 74.0891 89.8038Z" fill="#1F3965"/>
<path d="M48.502 91.392C48.502 87.9964 48.502 84.6007 48.502 81.205C48.502 80.1498 48.7423 79.9094 49.7975 79.9094C52.629 79.899 55.4605 79.899 58.2919 79.9094C59.3054 79.9094 59.5875 80.202 59.5875 81.2259C59.5875 88.0382 59.5875 94.8504 59.5875 101.663C59.5875 102.728 59.3159 103 58.2397 103C55.4814 103 52.723 103 49.9647 103C48.7005 103 48.5124 102.812 48.5124 101.569C48.502 98.1729 48.502 94.7877 48.502 91.392Z" fill="#1F3965"/>
<path d="M45.0856 94.6205C45.0856 96.9922 45.0856 99.3535 45.0856 101.725C45.0856 102.739 44.8348 103 43.8422 103C40.9899 103.01 38.127 103.01 35.2747 103C34.2926 103 34 102.707 34 101.725C34 96.9609 34 92.1965 34 87.4426C34 86.4395 34.2612 86.1992 35.2642 86.1992C38.1479 86.1992 41.0316 86.1992 43.9049 86.1992C44.8452 86.1992 45.0751 86.4291 45.0751 87.3694C45.096 89.783 45.0856 92.1965 45.0856 94.6205Z" fill="#1F3965"/>
<path d="M64.8751 39.0778C64.8751 41.7421 62.5974 43.999 59.8913 44.0199C57.2061 44.0407 54.8552 41.6795 54.897 39.0047C54.9388 36.1837 57.133 34.0105 59.8913 34.0209C62.7436 34.0418 64.8855 36.2046 64.8751 39.0778Z" fill="#1F3965"/>
</g>
<defs>
<clipPath id="clip0_149_287">
<rect width="69" height="69" fill="white" transform="translate(34 34)"/>
</clipPath>
</defs>
</svg>
