<svg width="136" height="136" viewBox="0 0 136 136" fill="none" xmlns="http://www.w3.org/2000/svg">
<path d="M67.0047 38.1758C52.7507 38.0271 40.712 48.4016 38.514 62.0798C36.0128 77.6453 46.5569 92.2976 62.1263 94.816C63.4207 95.0257 64.7246 95.0924 66.0267 95.1763C66.6367 95.2144 66.793 95.4584 66.7816 96.0093C66.7587 97.1741 66.7511 98.3408 66.7835 99.5037C66.8026 100.14 66.5433 100.318 65.9371 100.304C58.9807 100.144 52.6516 98.0587 47.0335 93.9791C39.4347 88.4582 34.7832 81.0081 33.4106 71.726C31.9027 61.5288 34.5506 52.3821 41.3144 44.5545C46.7533 38.2616 53.6715 34.4698 61.9032 33.3527C72.3768 31.9305 81.6341 34.8129 89.4731 41.939C95.0817 47.0385 98.4636 53.4077 99.8343 60.854C100.088 62.2342 100.219 63.6296 100.301 65.0289C100.33 65.5265 100.519 65.698 100.999 65.6733C101.569 65.6466 102.141 65.6523 102.711 65.6733C103.55 65.7038 103.901 66.3138 103.407 66.9639C101.771 69.1257 100.111 71.2666 98.4331 73.396C98.0003 73.945 97.4951 73.9221 97.0624 73.3693C95.4229 71.2723 93.7987 69.16 92.1745 67.0516C91.9686 66.7847 91.7856 66.5006 91.9552 66.1365C92.1325 65.7571 92.4585 65.6656 92.8398 65.6675C93.3869 65.6695 93.934 65.6447 94.4793 65.6714C94.9825 65.6981 95.1522 65.4903 95.1274 65.0003C95.015 62.7336 94.6642 60.5013 93.9417 58.3547C90.2719 47.4484 82.7627 40.8542 71.5018 38.5437C69.9176 38.2196 68.2972 38.1319 67.0047 38.1758Z" fill="#1F3965"/>
<path d="M70.8336 73.4093C74.0801 71.4896 75.8111 68.6434 75.6777 64.844C75.5919 62.4172 74.5567 60.3602 72.7705 58.6845C69.2856 55.4189 63.6809 55.5485 60.2666 58.999C58.1257 61.1647 57.3136 63.7783 57.7769 66.7656C58.2401 69.7529 59.933 71.9185 62.6534 73.4798C61.3132 73.9659 60.1331 74.3796 59.0351 74.9954C56.6845 76.3165 54.7686 78.0951 53.3445 80.3771C52.9728 80.9719 52.7459 80.9433 52.3075 80.4705C49.2115 77.142 47.3662 73.2549 46.8667 68.7158C45.782 58.8637 52.3609 49.4576 62.3712 47.1986C73.2204 44.7489 84.203 51.9741 86.2313 62.9319C86.8547 66.3023 86.6317 69.5946 85.608 72.8526C85.4421 73.3807 85.1752 73.5847 84.6014 73.6266C81.9458 73.8134 79.4752 74.6141 77.2466 76.0858C76.7567 76.4099 76.4173 76.4271 75.9312 76.0572C74.5586 75.0144 73.0278 74.2519 71.3769 73.7391C71.1996 73.6876 71.0013 73.6647 70.8336 73.4093Z" fill="#1F3965"/>
<path d="M72.1328 89.3162C72.1366 81.7899 78.2237 75.6494 85.7329 75.6914C93.2592 75.7352 99.3901 81.6126 99.4092 89.4211C99.4263 96.9417 93.2401 103.002 85.7367 103C78.1855 102.998 72.129 96.9055 72.1328 89.3162ZM93.4136 85.6731C93.4212 84.6628 92.8646 83.8888 91.9457 83.5799C90.9811 83.2559 90.2243 83.6352 89.5666 84.2986C87.8928 85.9877 86.2285 87.6844 84.5566 89.3772C83.8627 90.0807 83.8627 90.0749 83.1783 89.4115C82.6998 88.9483 82.2213 88.4869 81.7295 88.037C80.7992 87.1849 79.4514 87.1963 78.6545 88.0504C77.8329 88.9311 77.8748 90.2236 78.7822 91.1253C79.9299 92.2635 81.0908 93.3901 82.2556 94.5111C83.266 95.4833 84.4956 95.5043 85.4869 94.513C87.9252 92.0747 90.3386 89.6117 92.7597 87.1582C93.1791 86.7369 93.4365 86.2412 93.4136 85.6731Z" fill="#1F3965"/>
<path d="M66.5806 86.5882C62.4552 86.5138 58.6863 85.3338 55.2682 83.0042C54.6943 82.6134 54.5933 82.2931 54.9841 81.6945C57.7731 77.43 61.7136 75.2071 66.7922 75.1347C69.4649 75.0966 71.9413 75.9201 74.1813 77.4033C74.879 77.8665 74.8809 77.9046 74.3052 78.5071C72.3702 80.5297 71.0929 82.9146 70.4257 85.6216C70.3094 86.0906 70.1092 86.2946 69.6327 86.3537C68.6185 86.4814 67.6062 86.6072 66.5806 86.5882Z" fill="#1F3965"/>
<path d="M73.5482 65.0117C73.8418 68.4698 70.9365 71.9032 67.484 72.1796C63.3586 72.5075 60.0454 69.7948 59.7747 65.7304C59.5383 62.1617 62.1328 58.7226 66.2697 58.4481C70.1472 58.1907 73.4224 61.2371 73.5482 65.0117Z" fill="#1F3965"/>
</svg>
