<svg xmlns="http://www.w3.org/2000/svg" width="95" height="95" viewBox="0 0 95 95">
  <g id="ic_biometric" transform="translate(-287 -2848)">
    <path id="Path_79353" data-name="Path 79353" d="M47.5,0A47.5,47.5,0,1,1,0,47.5,47.5,47.5,0,0,1,47.5,0Z" transform="translate(287 2848)" fill="#fff"/>
    <g id="Group_175098" data-name="Group 175098" transform="translate(184.593 2667.294)">
      <path id="Path_88334" data-name="Path 88334" d="M177.694,204.75a17.676,17.676,0,0,0,2.028.35,18.592,18.592,0,0,1,14.7,15.091,19.824,19.824,0,0,1,.266,3.237q0,5.137,0,10.275a18.489,18.489,0,0,1-11.628,17.331,17.686,17.686,0,0,1-5.14,1.251c-.084.008-.193-.039-.23.091h-3.363a7.16,7.16,0,0,0-1.7-.324A18.592,18.592,0,0,1,157.519,233.7q0-5.137,0-10.274a18.613,18.613,0,0,1,16.675-18.581c.083-.009.194.034.23-.095Zm15.6,24.279c0-2.145,0-3.865,0-5.586a18.362,18.362,0,0,0-.453-4.054,17.185,17.185,0,0,0-33.912,3.832c-.024,3.565-.005,7.131,0,10.7a16.765,16.765,0,0,0,.3,3.141A17.186,17.186,0,0,0,184.974,248.5,16.545,16.545,0,0,0,193.21,235.3C193.423,233.073,193.236,230.836,193.291,229.029Z" transform="translate(-26.111 -0.044)" fill="#1f3965" stroke="#1f3965" stroke-width="0.5"/>
      <path id="Path_88336" data-name="Path 88336" d="M239.293,280.917c-.042,1.556.087,3.458-.07,5.354a13.347,13.347,0,0,1-2.016,5.993.707.707,0,0,1-.992.3.681.681,0,0,1-.209-1.01,13.294,13.294,0,0,0,1.9-7.479c-.051-2.848,0-5.7-.014-8.548a9.769,9.769,0,0,0-19.409-1.693,33.718,33.718,0,0,0-.156,4.521,3.739,3.739,0,0,1-.023.559.62.62,0,0,1-.563.538.666.666,0,0,1-.735-.376.5.5,0,0,1-.066-.223c-.017-2.67-.194-5.346.954-7.892a11.144,11.144,0,0,1,21.159,2.247,13.129,13.129,0,0,1,.245,2.737C239.288,277.492,239.293,279.033,239.293,280.917Z" transform="translate(-78.111 -52.215)" fill="#1f3965" stroke="#1f3965" stroke-width="0.5"/>
      <path id="Path_88337" data-name="Path 88337" d="M234.4,333.894c0,1.666.015,3.332-.005,5a2.457,2.457,0,0,0,1.393,2.382,6.231,6.231,0,0,1-1.646,11.6,6.012,6.012,0,0,1-4.121-.547,14.314,14.314,0,0,1-2.977-1.992c-.428-.372-.506-.741-.231-1.088s.706-.347,1.142.025a13.213,13.213,0,0,0,2.709,1.805,4.83,4.83,0,0,0,4.5-8.549,3.864,3.864,0,0,1-2.169-3.717c.026-3.362,0-6.725.01-10.088a3.711,3.711,0,0,1,2.9-3.739,3.592,3.592,0,0,1,4.345,3.461c.051,2.864.017,5.729.012,8.593a.731.731,0,0,1-.711.816c-.414,0-.686-.32-.687-.827,0-2.787,0-5.573,0-8.36a2.228,2.228,0,1,0-4.449-.008C234.392,330.407,234.4,332.15,234.4,333.894Z" transform="translate(-86.637 -105.448)" fill="#1f3965" stroke="#1f3965" stroke-width="0.5"/>
      <path id="Path_88338" data-name="Path 88338" d="M188.734,289.587c0-1.9-.038-3.8.008-5.695a14.541,14.541,0,0,1,3.537-9.209c.364-.434.793-.516,1.123-.227s.309.694-.041,1.112a13.6,13.6,0,0,0-3.242,9.147c.033,3.61-.021,7.22.039,10.829a12.329,12.329,0,0,0,2.112,6.566c.076.117.156.232.228.352a.7.7,0,1,1-1.171.761,14.271,14.271,0,0,1-2.592-7.988c-.03-1.882-.006-3.765-.006-5.648Z" transform="translate(-53.425 -61.015)" fill="#1f3965" stroke="#1f3965" stroke-width="0.5"/>
      <path id="Path_88339" data-name="Path 88339" d="M250.7,308.689q0,2.638,0,5.276a2.654,2.654,0,0,1-.031.511.686.686,0,0,1-1.337.009,1.941,1.941,0,0,1-.034-.417c0-3.424-.019-6.848,0-10.272a7.2,7.2,0,0,1,5.924-7.176,6.9,6.9,0,0,1,3.141.15c.584.156.829.5.691.957-.121.4-.5.548-1.039.411a5.723,5.723,0,0,0-7.016,3.77,6.171,6.171,0,0,0-.3,2.018Q250.7,306.308,250.7,308.689Z" transform="translate(-106.447 -80.449)" fill="#1f3965" stroke="#1f3965" stroke-width="0.5"/>
      <path id="Path_88340" data-name="Path 88340" d="M384.806,280.436c0,1.521.006,2.781,0,4.041a.688.688,0,0,1-.69.77.716.716,0,0,1-.707-.766c-.007-.108,0-.218,0-.327,0-1.742-.01-3.484,0-5.226a15.291,15.291,0,0,0-.491-4.336,13.336,13.336,0,0,0-3.27-5.667c-.1-.1-.2-.2-.294-.3a.7.7,0,1,1,1.005-.968,14.507,14.507,0,0,1,4.327,8.614A36.715,36.715,0,0,1,384.806,280.436Z" transform="translate(-220.112 -54.951)" fill="#1f3965" stroke="#1f3965" stroke-width="0.5"/>
      <path id="Path_88341" data-name="Path 88341" d="M342.094,323.117q0,2.755,0,5.509a3.311,3.311,0,0,1-.012.419.678.678,0,0,1-.714.652.665.665,0,0,1-.667-.65,4.33,4.33,0,0,1-.011-.466c0-3.33-.018-6.661.007-9.991a6.158,6.158,0,0,0-1.5-4.339.694.694,0,0,1,.01-1.07.718.718,0,0,1,1.064.172,7.133,7.133,0,0,1,1.822,4.908Q342.09,320.689,342.094,323.117Z" transform="translate(-184.947 -94.911)" fill="#1f3965" stroke="#1f3965" stroke-width="0.5"/>
      <path id="Path_88342" data-name="Path 88342" d="M246.085,235.93a14.548,14.548,0,0,1,7.255,1.916.837.837,0,0,1,.519.612.66.66,0,0,1-.264.656.709.709,0,0,1-.831.02,12.5,12.5,0,0,0-2.808-1.223,13.063,13.063,0,0,0-11.15,1.609c-.065.042-.129.087-.194.128a.707.707,0,1,1-.763-1.172,14.378,14.378,0,0,1,8.235-2.545Z" transform="translate(-96.073 -27.34)" fill="#1f3965" stroke="#1f3965" stroke-width="0.5"/>
      <path id="Path_88343" data-name="Path 88343" d="M218.3,405.144a11.257,11.257,0,0,0,.8,4.972,9.708,9.708,0,0,0,4.2,4.658c.135.077.273.148.4.23a.708.708,0,0,1,.3.99.689.689,0,0,1-.975.237,11.165,11.165,0,0,1-6.129-9.915c-.019-1.323-.012-2.647,0-3.97,0-.606.432-.95.928-.777a.68.68,0,0,1,.471.722C218.3,403.132,218.3,403.972,218.3,405.144Z" transform="translate(-78.087 -172.461)" fill="#1f3965" stroke="#1f3965" stroke-width="0.5"/>
      <path id="Path_88344" data-name="Path 88344" d="M312.217,439.624a9.69,9.69,0,0,1-1.631,5.45.859.859,0,0,1-.557.459.666.666,0,0,1-.7-.259.7.7,0,0,1,.013-.867,8.567,8.567,0,0,0,1.209-2.653,8.412,8.412,0,0,0-3.666-9.228c-.105-.066-.215-.124-.319-.191a.7.7,0,1,1,.713-1.2,9.64,9.64,0,0,1,2.455,1.983A9.756,9.756,0,0,1,312.217,439.624Z" transform="translate(-156.218 -198.313)" fill="#1f3965" stroke="#1f3965" stroke-width="0.5"/>
      <path id="Path_88345" data-name="Path 88345" d="M384.29,427.418a15.13,15.13,0,0,1-4.441,10.654.745.745,0,0,1-.958.21.66.66,0,0,1-.325-.757.77.77,0,0,1,.272-.423,13.29,13.29,0,0,0,3.8-7.273,17.189,17.189,0,0,0,.266-3.064,1.744,1.744,0,0,1,.049-.461.627.627,0,0,1,.7-.486.606.606,0,0,1,.627.573C384.316,426.731,384.29,427.076,384.29,427.418Z" transform="translate(-219.612 -193.736)" fill="#1f3965" stroke="#1f3965" stroke-width="0.5"/>
      <path id="Path_88346" data-name="Path 88346" d="M302.473,363.521c0,.527.006,1.055,0,1.582-.008.545-.267.864-.692.872s-.71-.315-.714-.848q-.012-1.6,0-3.21c0-.538.283-.855.713-.848s.685.321.693.87C302.479,362.466,302.473,362.994,302.473,363.521Z" transform="translate(-151.772 -136.985)" fill="#1f3965" stroke="#1f3965" stroke-width="0.5"/>
      <path id="Path_88347" data-name="Path 88347" d="M260.934,464.112a.674.674,0,0,1-.957.62,6.713,6.713,0,0,1-2.941-2.7.627.627,0,0,1,.234-.895.619.619,0,0,1,.911.145,6.682,6.682,0,0,0,2.447,2.237A.59.59,0,0,1,260.934,464.112Z" transform="translate(-113.145 -224.53)" fill="#1f3965" stroke="#1f3965" stroke-width="0.5"/>
    </g>
  </g>
</svg>
