<svg xmlns="http://www.w3.org/2000/svg" width="95" height="95" viewBox="0 0 95 95">
  <g id="ic_virtual_class" data-name="ic_virtual class" transform="translate(-287 -2848)">
    <path id="Path_79353" data-name="Path 79353" d="M47.5,0A47.5,47.5,0,1,1,0,47.5,47.5,47.5,0,0,1,47.5,0Z" transform="translate(287 2848)" fill="#fff"/>
    <path id="icon-virtual-classes" d="M90.358,149.765a3.7,3.7,0,0,1-3.682-3.717v-29.1a3.7,3.7,0,0,1,3.682-3.713h40.429a3.7,3.7,0,0,1,3.682,3.713V130.45a13.648,13.648,0,0,1,1.577.907V116.944a5.287,5.287,0,0,0-5.258-5.3H90.358a5.287,5.287,0,0,0-5.258,5.3v29.1a5.286,5.286,0,0,0,5.258,5.3h13.365l-1.411,4.591h-3.1a.8.8,0,0,0,0,1.591h22.718a.8.8,0,0,0,0-1.591h-3.1l-1.411-4.591-.511-1.587H90.358Zm13.6,6.182,1.414-4.591h10.393l1.412,4.591Zm26.825-41.124H90.358a2.142,2.142,0,0,0-2.1,2.123v25.2a2.142,2.142,0,0,0,2.1,2.123h24.378c-.039-.426-.06-.858-.06-1.294v-.3h-4.687a2.85,2.85,0,0,0,.209-1.063c.023-2.621-.411-6.194-2.577-8.494l-.028-.029c-.025-.026-.049-.053-.075-.08l-.053-.051c-.059-.059-.12-.118-.181-.175l-.026-.024A6.449,6.449,0,0,0,105.5,131.6a5.554,5.554,0,0,0,2.132-6.181,5.467,5.467,0,0,0-10.46-.057,5.554,5.554,0,0,0,2.066,6.2,6.484,6.484,0,0,0-1.828,1.189l-.026.024c-.061.057-.122.116-.181.175-.018.017-.036.033-.053.051l-.075.08-.028.029c-2.169,2.3-2.6,5.873-2.577,8.494a2.85,2.85,0,0,0,.209,1.064H90.358a.552.552,0,0,1-.529-.532v-25.2a.552.552,0,0,1,.529-.532h40.429a.552.552,0,0,1,.529.532v12.418a13.525,13.525,0,0,1,1.576.434V116.944a2.142,2.142,0,0,0-2.1-2.123ZM98.5,127.052a3.9,3.9,0,1,1,3.9,3.931A3.914,3.914,0,0,1,98.5,127.052Zm-1.642,9.39a6.155,6.155,0,0,1,2.276-3,6.383,6.383,0,0,1,6.4,0,6.157,6.157,0,0,1,2.276,3,14.7,14.7,0,0,1,.8,5.156.975.975,0,0,1-.883,1.035v-.006c-.047.007-.092.018-.138.027a2.4,2.4,0,0,1-.267.014H97.353a2.4,2.4,0,0,1-.267-.014c-.046-.009-.091-.02-.138-.027v.006a.976.976,0,0,1-.883-1.035A14.611,14.611,0,0,1,96.861,136.442ZM109.374,146.9a1.145,1.145,0,1,1,1.141,1.159A1.15,1.15,0,0,1,109.374,146.9Zm19.058-28.525H118.6a.731.731,0,0,0-.728.734V127.2a.737.737,0,0,0,.213.52.724.724,0,0,0,.515.215h9.831a.725.725,0,0,0,.518-.214.738.738,0,0,0,.215-.521v-8.087a.737.737,0,0,0-.215-.521.724.724,0,0,0-.518-.213Zm-6.811,8.083a2.129,2.129,0,0,1,.5-.934,2.017,2.017,0,0,1,1.5-.525,1.856,1.856,0,0,1,1.967,1.46Zm.979-3.945a1.022,1.022,0,1,1,1.021,1.03,1.027,1.027,0,0,1-1.021-1.03Zm5.1,3.945H126.9a3.283,3.283,0,0,0-1.6-2.357,2.333,2.333,0,0,0-.055-3.243,2.284,2.284,0,0,0-3.215-.015,2.333,2.333,0,0,0-.084,3.242,2.837,2.837,0,0,0-.721.532,3.555,3.555,0,0,0-.908,1.839h-.98v-6.616H127.7Zm.781,4.053a12.46,12.46,0,1,0,12.349,12.458,12.406,12.406,0,0,0-12.349-12.458Zm0,23.206a10.748,10.748,0,1,1,10.651-10.746,10.7,10.7,0,0,1-10.651,10.746Zm5.768-13.91a1.3,1.3,0,0,0-1.319,0h0l-.693.4a1.527,1.527,0,0,0-1.454-1.075h-6.013a1.532,1.532,0,0,0-1.524,1.536v4.9a1.532,1.532,0,0,0,1.524,1.536h6.009a1.527,1.527,0,0,0,1.454-1.076l.693.4a1.309,1.309,0,0,0,1.319,0,1.333,1.333,0,0,0,.659-1.153v-4.324a1.319,1.319,0,0,0-.66-1.159Zm-.64,5.477a.016.016,0,0,1-.01.018.015.015,0,0,1-.02,0l-2.575-1.5v1.768a.228.228,0,0,1-.225.226h-6.009a.228.228,0,0,1-.225-.226v-4.9a.228.228,0,0,1,.225-.226h6.009a.228.228,0,0,1,.225.226v1.769l2.571-1.5h0a.015.015,0,0,1,.02,0,.016.016,0,0,1,.01.018Z" transform="translate(221.4 2760.86)" fill="#1f3965" stroke="#1f3965" stroke-width="0.5"/>
  </g>
</svg>
