<svg xmlns="http://www.w3.org/2000/svg" width="95" height="95" viewBox="0 0 95 95">
  <g id="ic_vehicletracking" transform="translate(-287 -2848)">
    <path id="Path_79353" data-name="Path 79353" d="M47.5,0A47.5,47.5,0,1,1,0,47.5,47.5,47.5,0,0,1,47.5,0Z" transform="translate(287 2848)" fill="#fff"/>
    <g id="truck" transform="translate(298 2832.827)">
      <path id="Path_73651" data-name="Path 73651" d="M112.844,329.688h2.532a.844.844,0,1,0,0-1.688h-2.532a.844.844,0,1,0,0,1.688Z" transform="translate(-93.028 -257.776)" fill="#1f3965"/>
      <g id="Group_175155" data-name="Group 175155" transform="translate(8 40.001)">
        <path id="Path_73652" data-name="Path 73652" d="M59.482,47.558H52.409a10.142,10.142,0,0,0-19.614,0H25.723a.842.842,0,0,0-.844.84v9.237H15.6a.849.849,0,0,0-.7.374l-1.685,2.515v0l-5.066,7.56A.844.844,0,0,0,8,68.551V80.307a.842.842,0,0,0,.844.84h3.448a5.067,5.067,0,0,0,9.984,0H46.894a5.067,5.067,0,0,0,9.984,0h2.6a.842.842,0,0,0,.844-.84V48.4A.842.842,0,0,0,59.482,47.558ZM14.359,61.833H21.5v5.878H10.421ZM9.688,72.749h1.688a.84.84,0,1,1,0,1.679H9.688Zm7.6,10.916a3.359,3.359,0,1,1,3.376-3.359A3.367,3.367,0,0,1,17.284,83.665Zm7.6-4.2h-2.6a5.067,5.067,0,0,0-9.984,0h-2.6V76.108h1.688a2.519,2.519,0,1,0,0-5.038H9.688V69.39H22.347a.842.842,0,0,0,.844-.84V60.993a.842.842,0,0,0-.844-.84H15.485l.562-.84h8.832ZM42.6,41.68a8.428,8.428,0,0,1,8.44,8.4c0,3.63-5.6,11.184-8.44,14.642-2.844-3.458-8.44-11.011-8.44-14.642A8.428,8.428,0,0,1,42.6,41.68Zm9.284,41.986a3.359,3.359,0,1,1,3.376-3.359A3.367,3.367,0,0,1,51.886,83.665Zm6.752-4.2h-1.76a5.067,5.067,0,0,0-9.984,0H26.567V72.749H58.638Zm0-8.4H26.567V49.237h5.944c-.023.277-.036.557-.036.84,0,2.289,1.612,5.777,4.791,10.366,2.319,3.348,4.67,6.1,4.695,6.132a.845.845,0,0,0,1.285,0c.024-.027,2.376-2.784,4.695-6.132,3.179-4.589,4.791-8.077,4.791-10.366,0-.282-.013-.563-.036-.84h5.944Z" transform="translate(-8 -40.001)" fill="#1f3965" stroke="#1f3965" stroke-width="0.3"/>
        <path id="Path_73653" data-name="Path 73653" d="M308.186,96.371A4.186,4.186,0,1,0,304,92.186,4.186,4.186,0,0,0,308.186,96.371Z" transform="translate(-273.472 -82.936)" fill="none" stroke="#1f3965" stroke-width="2.5"/>
      </g>
    </g>
  </g>
</svg>
