<svg xmlns="http://www.w3.org/2000/svg" width="95" height="95" viewBox="0 0 95 95">
  <g id="ic_whatsapp" transform="translate(-287 -2848)">
    <path id="Path_79353" data-name="Path 79353" d="M47.5,0A47.5,47.5,0,1,1,0,47.5,47.5,47.5,0,0,1,47.5,0Z" transform="translate(287 2848)" fill="#fff"/>
    <g id="Group_162557" data-name="Group 162557" transform="translate(313.917 2870.167)">
      <g id="Group_161919" data-name="Group 161919" transform="translate(0 0)">
        <g id="smartphone_1_" data-name="smartphone (1)">
          <path id="Path_73613" data-name="Path 73613" d="M25.657,0H4.138A4.149,4.149,0,0,0,0,4.15V47.308a4.149,4.149,0,0,0,4.138,4.15H25.657a4.149,4.149,0,0,0,4.138-4.15V34.859H28.14v8.3H1.655V8.3H28.14v3.32H29.8V4.15A4.149,4.149,0,0,0,25.657,0ZM28.14,44.819v2.49a2.489,2.489,0,0,1-2.483,2.49H4.138a2.489,2.489,0,0,1-2.483-2.49v-2.49ZM1.655,6.64V4.15A2.489,2.489,0,0,1,4.138,1.66H25.657A2.489,2.489,0,0,1,28.14,4.15V6.64Z" transform="translate(0 0)" fill="#1f3965" stroke="#1f3965" stroke-width="0.5"/>
          <rect id="Rectangle_3061" data-name="Rectangle 3061" width="6.431" height="1.979" transform="translate(11.539 46.153)" fill="#1f3965" stroke="#1f3965" stroke-width="0.5"/>
        </g>
        <path id="Path_73619" data-name="Path 73619" d="M80.971,21.149a12.867,12.867,0,1,0-23.063-8.458c-.014.274-.018.548-.014.825q0,.328.026.652A12.777,12.777,0,0,0,61.8,22.559c.245.237,1.938,1.61,1.957,1.591l.016-.016a12.738,12.738,0,0,0,6.252,2.038q.464.027.931.02c.183,0,.364-.009.546-.02a12.8,12.8,0,0,0,3.72-.781l6.867,1.1a.739.739,0,0,0,.792-1.029ZM75.259,23.9a.855.855,0,0,0-.117-.008.75.75,0,0,0-.267.049,11.375,11.375,0,0,1-10.742-1.35c-.018-.014-.036-.027-.054-.04a11.421,11.421,0,1,1,15.465-1.983.737.737,0,0,0-.105.769l1.54,3.477Zm0,0" transform="translate(-42.807 10.001)" fill="#1f3965" stroke="#1f3965" stroke-width="0.5"/>
      </g>
      <path id="Path_73620" data-name="Path 73620" d="M321.648,101.228h.013l9.929-.148a.892.892,0,1,0-.027-1.784l-9.929.148a.892.892,0,1,0,.013,1.784Zm0,0" transform="translate(-297.074 -79.422)" fill="#1f3965" stroke="#1f3965" stroke-width="0.5"/>
      <path id="Path_73621" data-name="Path 73621" d="M327.054,146.715l-4.72.071a.892.892,0,0,0,.013,1.784h.013l4.72-.071a.892.892,0,1,0-.012-1.784Zm0,0" transform="translate(-297.683 -120.859)" fill="#1f3965" stroke="#1f3965" stroke-width="0.5"/>
    </g>
  </g>
</svg>
